<svg version="1.1" xmlns="http://www.w3.org/2000/svg"  viewBox="0 0 65 65">
                    <path d="M15.6,21.24c3.76,0,6.81,3.11,6.81,6.95s-3.05,6.95-6.81,6.95-6.81-3.11-6.81-6.95,3.05-6.95,6.81-6.95ZM30.3,44.16l-6.12-6.29c-1.13-1.15-2.68-1.81-4.29-1.81H11.36c-1.61,0-3.17,.66-4.29,1.81L.85,44.16c-1.13,1.15-1.13,3.12,0,4.21H.85c1.13,1.26,3,1.2,4.19,0l3.76-3.83v17.45c0,1.64,1.29,3.01,2.95,3.01s2.95-1.37,2.95-3.01v-6.56c0-.49,.43-.93,.91-.93s.91,.44,.91,.93v6.56c0,1.64,1.29,3.01,2.95,3.01s2.95-1.37,2.95-3.01v-17.39l3.76,3.83c1.13,1.15,3,1.2,4.19,0h0c1.13-1.15,1.13-3.12-.05-4.27ZM61.61,39.6v23.98c0,.71,.59,1.41,1.38,1.41s1.38-.6,1.38-1.41v-24.39c-.1,.1-.2,.1-.3,.1-.59,.3-1.19,.4-1.78,.4-.2,0-.4,0-.69-.1ZM43.72,65c1.68,0,2.97-1.31,3.06-3.02l.4-19.25h2.17l.3,19.25c0,1.71,1.48,3.02,3.06,3.02,1.68,0,2.97-1.41,2.97-3.12l-.69-34.47,1.48,1.51,3.06,7.26c.49,1.11,1.48,1.71,2.67,1.71,.4,0,.79-.1,1.09-.2,1.48-.6,2.08-2.32,1.48-3.83l-3.26-7.76c-.1-.3-.4-.6-.59-.91l-4.35-4.53c-1.48-1.51-3.46-2.32-5.63-2.32h-5.54c-1.88,0-3.76,.5-5.34,1.61l-7.32,4.74c-1.29,.81-1.68,2.52-.99,3.93l4.55,7.96c.79,1.41,2.57,1.91,3.95,1.11,.4-.2,.69-.6,.99-1.01l-.49,25.29c-.1,1.61,1.19,3.02,2.97,3.02-.1,0,0,0,0,0Zm-5.63-36.98l3.26-2.12-.1,7.56-3.16-5.44ZM41.44,9.47h0c0,3.83,3.06,6.95,6.72,6.95s6.72-3.12,6.72-6.85h0c-1.78,.3-3.95,.5-6.72,.5-2.77-.1-5.04-.2-6.72-.6ZM48.16,8.26c5.24,0,9.39-.81,9.39-1.91,0-.6-1.29-1.11-3.26-1.41l-1.09-3.43c-.3-.91-1.09-1.51-2.08-1.51h-5.93c-.89,0-1.78,.6-2.08,1.51l-1.09,3.43c-1.98,.3-3.26,.91-3.26,1.41,0,1.11,4.25,1.91,9.39,1.91Z">

                    </path>

            </svg>