<?xml version="1.0" encoding="utf-8"?>
<!-- Generator: Adobe Illustrator 26.4.1, SVG Export Plug-In . SVG Version: 6.00 Build 0)  -->
<svg version="1.1" id="Слой_1" xmlns="http://www.w3.org/2000/svg" xmlns:xlink="http://www.w3.org/1999/xlink" x="0px" y="0px"
	 viewBox="0 0 65 65" style="enable-background:new 0 0 65 65;" xml:space="preserve">
<path d="M32.5,21.2c3.8,0,6.8,3.1,6.8,6.9s-3,7-6.8,7c-3.8,0-6.8-3.1-6.8-7S28.7,21.2,32.5,21.2z M47.2,44.2l-6.1-6.3
	c-1.1-1.2-2.7-1.8-4.3-1.8h-8.5c-1.6,0-3.2,0.7-4.3,1.8l-6.2,6.3c-1.1,1.2-1.1,3.1,0,4.2l0,0c1.1,1.3,3,1.2,4.2,0l3.8-3.8V62
	c0,1.6,1.3,3,3,3s2.9-1.4,2.9-3v-6.6c0-0.5,0.4-0.9,0.9-0.9s0.9,0.4,0.9,0.9V62c0,1.6,1.3,3,3,3s3-1.4,3-3V44.6l3.8,3.8
	c1.1,1.2,3,1.2,4.2,0l0,0C48.4,47.3,48.4,45.3,47.2,44.2L47.2,44.2z"/>
</svg>
