<?xml version="1.0" encoding="utf-8"?>
<!-- Generator: Adobe Illustrator 26.4.1, SVG Export Plug-In . SVG Version: 6.00 Build 0)  -->
<svg version="1.1" id="Слой_1" xmlns="http://www.w3.org/2000/svg" xmlns:xlink="http://www.w3.org/1999/xlink" x="0px" y="0px"
	 viewBox="0 0 65 65" style="enable-background:new 0 0 65 65;" xml:space="preserve">
<path d="M45.9,39.6v24c0,0.7,0.6,1.4,1.4,1.4s1.4-0.6,1.4-1.4V39.2c-0.1,0.1-0.2,0.1-0.3,0.1c-0.6,0.3-1.2,0.4-1.8,0.4	C46.4,39.7,46.2,39.7,45.9,39.6L45.9,39.6z M28,65c1.7,0,3-1.3,3.1-3l0.4-19.2h2.2L33.9,62c0,1.7,1.5,3,3.1,3c1.7,0,3-1.4,3-3.1	l-0.7-34.5l1.5,1.5l3.1,7.3c0.5,1.1,1.5,1.7,2.7,1.7c0.4,0,0.8-0.1,1.1-0.2c1.5-0.6,2.1-2.3,1.5-3.8l-3.3-7.8c-0.1-0.3-0.4-0.6-0.6-0.9l-4.3-4.5c-1.5-1.5-3.5-2.3-5.6-2.3h-5.5c-1.9,0-3.8,0.5-5.3,1.6L17,24.7c-1.3,0.8-1.7,2.5-1,3.9l4.6,8c0.8,1.4,2.6,1.9,4,1.1c0.4-0.2,0.7-0.6,1-1L25,62C24.9,63.6,26.2,65,28,65C27.9,65,28,65,28,65L28,65z M22.4,28l3.3-2.1l-0.1,7.6C25.5,33.5,22.4,28,22.4,28z M25.7,9.5L25.7,9.5c0,3.8,3.1,6.9,6.7,6.9s6.7-3.1,6.7-6.9l0,0c-1.8,0.3-4,0.5-6.7,0.5C29.7,10,27.4,9.9,25.7,9.5z M32.5,8.3c5.2,0,9.4-0.8,9.4-1.9c0-0.6-1.3-1.1-3.3-1.4l-1.1-3.4C37.2,0.6,36.4,0,35.4,0h-5.9c-0.9,0-1.8,0.6-2.1,1.5l-1.1,3.4c-2,0.3-3.3,0.9-3.3,1.4C23.1,7.5,27.3,8.3,32.5,8.3L32.5,8.3z"/>
</svg>
