<?xml version="1.0" encoding="utf-8"?>
<!-- Generator: Adobe Illustrator 26.4.1, SVG Export Plug-In . SVG Version: 6.00 Build 0)  -->
<svg version="1.1" id="Слой_1" xmlns="http://www.w3.org/2000/svg" xmlns:xlink="http://www.w3.org/1999/xlink" x="0px" y="0px"
	 viewBox="0 0 90 90" style="enable-background:new 0 0 90 90;" xml:space="preserve">
<style type="text/css">
	.st0{fill:#FFFFFF;}
	.st1{display:none;}
</style>
<path class="st0" d="M56.9,79.6c0,0,0.2-0.1,0.5-0.2c0.4-0.2,0.8-0.3,1.4-0.6c1-0.6,2.2-1.5,2.6-2.9c0.5-1.3,0.2-2.5-0.2-3.4
	S60.4,71,60.4,71s-0.6,0.3-1.4,0.9c-0.4,0.4-0.8,0.6-1.2,1.1s-0.6,1-0.9,1.6c-0.5,1.1-0.5,2.3-0.5,3.3
	C56.7,78.9,56.9,79.6,56.9,79.6z M54.9,73.2c-0.3,0.1-0.6,0.3-1.1,0.5c-0.8,0.5-1.9,1.1-2.7,2c-0.8,1-1.2,2.3-1.4,3.3
	s-0.1,1.8-0.1,1.8s0.9,0,2.1-0.3c0.3-0.1,0.6-0.1,0.9-0.3c0.3-0.1,0.6-0.3,0.9-0.5c0.6-0.4,1.2-0.8,1.5-1.4c0.8-1.2,0.8-2.5,0.7-3.5
	S55.2,73,55.2,73S55.2,73.1,54.9,73.2L54.9,73.2z M14.9,34.5c0.7-0.4,1.3-1.3,1.7-2c0.5-0.7,0.6-1.4,0.6-1.4s-0.5-0.3-1.2-0.5
	c-0.7-0.2-1.5-0.4-2.4,0.2c-0.5,0.3-0.8,0.5-1.1,1c-0.3,0.5-0.5,0.9-0.7,1.3c-0.2,0.5-0.4,0.8-0.5,1.1s-0.1,0.5-0.1,0.5
	s0.5,0.3,1.2,0.4C13.2,35,14,35,14.9,34.5z M61.9,9.8c0.5,0.3,0.8,0.4,1.3,0.5s0.8,0.2,1.2,0.2c0.7,0.1,1.3,0,1.3,0
	s-0.1-0.5-0.5-1.3C65,8.8,64.7,8.4,64.4,8c-0.4-0.4-0.7-0.7-1.2-1c-0.9-0.5-1.9-0.5-2.6-0.5c-0.7,0.1-1.3,0.3-1.3,0.3S59.6,7.4,60,8
	C60.5,8.6,61.1,9.3,61.9,9.8z M63.4,14c-0.4,0.5-0.5,1-0.5,1s0.5,0.3,1.1,0.5c0.3,0.1,0.6,0.3,1.1,0.3c0.3,0.3,0.6,0.3,1.1,0.3
	c0.8-0.1,1.4-0.6,1.8-1.2c0.5-0.5,0.6-1,0.6-1s-0.5-0.4-1.2-0.8c-0.7-0.4-1.6-0.6-2.3-0.5C64.3,12.8,63.7,13.4,63.4,14L63.4,14z
	 M65.1,67.3c0,0-0.1,0.1-0.4,0.4c-0.2,0.2-0.5,0.5-0.8,0.9s-0.5,0.9-0.8,1.4s-0.5,1.1-0.6,1.7C62.3,73,62.6,74.1,63,75
	s0.8,1.4,0.8,1.4s0.2-0.1,0.5-0.4s0.6-0.5,1.1-1c0.8-0.8,1.6-2.1,1.8-3.3c0.2-1.3-0.4-2.4-0.9-3.2C65.6,67.8,65.1,67.3,65.1,67.3z
	 M26.3,68.7c-0.3-0.4-0.5-0.7-0.8-0.9c-0.2-0.3-0.4-0.4-0.4-0.4s-0.5,0.5-1.1,1.3c-0.5,0.8-1.1,1.9-0.9,3.2c0.2,1.3,0.9,2.6,1.8,3.3
	c0.5,0.5,0.8,0.7,1.1,1c0.3,0.3,0.5,0.4,0.5,0.4s0.5-0.6,0.8-1.4c0.4-0.9,0.6-2.1,0.5-3.3c-0.1-0.7-0.4-1.3-0.6-1.7
	C26.9,69.5,26.6,69.1,26.3,68.7z M10.5,42.6c0,0,0.5,0.2,1.3,0.1c0.7-0.1,1.7-0.3,2.4-1c0.4-0.4,0.6-0.7,0.8-1.2
	c0.3-0.5,0.5-0.9,0.5-1.4c0.1-0.5,0.2-0.8,0.3-1.1s0.1-0.5,0.1-0.5s-0.5-0.2-1.3-0.2c-0.7-0.1-1.7,0-2.4,0.7
	c-0.7,0.6-1.3,1.8-1.4,2.7C10.6,41.9,10.5,42.6,10.5,42.6z M16.9,19.9c0,0,0.4,0.5,0.9,0.8c0.5,0.4,1.3,0.7,2.2,0.6
	c0.6,0,1.4-0.5,2.1-0.9c0.3-0.2,0.5-0.5,0.7-0.6l0.3-0.3c0,0-0.3-0.5-0.7-0.9c-0.5-0.5-1.2-0.9-2.1-0.9c-0.8,0-1.7,0.5-2.3,1.1
	C17.3,19.4,16.9,19.9,16.9,19.9z M27.4,11c0.5-0.1,0.9-0.2,1.3-0.5c0.8-0.5,1.4-1.2,1.7-1.7C30.8,8.2,31,7.6,31,7.6
	s-0.5-0.2-1.2-0.3s-1.7-0.1-2.6,0.5c-0.4,0.2-0.8,0.5-1.1,0.9c-0.4,0.4-0.5,0.7-0.7,1.1C25,10.5,25,11.1,25,11.1s0.5,0.1,1.3,0.1
	C26.6,11.2,27,11.1,27.4,11z M21.7,14c0,0,0.2,0.5,0.6,1c0.5,0.5,1,1,1.8,1.2c0.4-0.2,0.7-0.2,1.1-0.3c0.4-0.1,0.7-0.2,1.1-0.3
	c0.6-0.3,1.1-0.5,1.1-0.5s-0.2-0.5-0.5-1s-0.9-1.2-1.6-1.4c-0.8-0.2-1.7,0.1-2.3,0.5S21.7,14,21.7,14z M21.3,13.5
	c0,0,0.5-0.5,0.8-1.2c0.5-0.7,0.9-1.5,1-2.5c0.1-0.9-0.3-1.7-0.6-2.2c-0.4-0.5-0.8-0.8-0.8-0.8s-0.5,0.5-1.1,1.3
	c-0.3,0.4-0.5,0.8-0.8,1.3c0,0.4-0.1,0.8-0.2,1.4c0,0.9,0.5,1.6,0.8,2.1C20.8,13.2,21.3,13.5,21.3,13.5z M28.9,72.6
	c-0.4,0.9-0.6,2.2-0.2,3.4c0.5,1.4,1.6,2.2,2.6,2.9c0.5,0.4,1,0.5,1.4,0.6s0.5,0.2,0.5,0.2s0.3-0.7,0.4-1.7c0.1-1,0.1-2.3-0.5-3.3
	c-0.2-0.7-0.5-1.2-0.9-1.6c-0.4-0.5-0.8-0.7-1.2-1.1c-0.7-0.6-1.4-0.9-1.4-0.9S29.3,71.7,28.9,72.6z M68.9,62.6c0,0-0.1,0.2-0.3,0.5
	c-0.2,0.3-0.3,0.6-0.5,1.1s-0.5,0.9-0.5,1.5c-0.2,0.5-0.3,1.1-0.3,1.7c0,1.2,0.5,2.3,1.1,3c0.5,0.7,1.1,1.2,1.1,1.2S70,71,70.7,70
	c0.5-1,1.1-2.3,1-3.6c-0.2-1.3-0.9-2.2-1.5-2.8C69.5,62.9,68.9,62.6,68.9,62.6z M75.4,34.6c0.8,0.5,1.7,0.5,2.4,0.5
	c0.7-0.1,1.2-0.4,1.2-0.4s0-0.2-0.1-0.5s-0.3-0.7-0.5-1.1c-0.2-0.5-0.5-0.9-0.7-1.3c-0.3-0.5-0.7-0.7-1.1-1
	c-0.8-0.5-1.7-0.4-2.4-0.2c-0.7,0.2-1.2,0.5-1.2,0.5s0.2,0.6,0.6,1.4C74,33.2,74.5,34.1,75.4,34.6z M72.7,64.4
	c0.6,0.5,1.3,0.8,1.3,0.8s0.1-0.2,0.3-0.5c0.2-0.3,0.4-0.7,0.5-1.3c0.2-0.5,0.3-1.2,0.4-1.7c0-0.3,0.1-0.6,0-0.9
	c0-0.3-0.1-0.6-0.2-0.9c-0.4-1.2-1.2-1.9-2-2.3c-0.7-0.5-1.4-0.6-1.4-0.6s-0.3,0.7-0.5,1.6c-0.3,0.9-0.5,2.1-0.1,3.3
	C71.4,63.1,72.1,63.9,72.7,64.4L72.7,64.4z M77.3,58.2c0,0,0.1-0.2,0.2-0.5s0.2-0.8,0.3-1.4c0.1-0.5,0.1-1.2,0.1-1.7
	c-0.1-0.6-0.3-1.2-0.5-1.7c-0.5-1-1.4-1.5-2.3-1.8c-0.8-0.3-1.4-0.3-1.4-0.3s-0.2,0.7-0.2,1.6c0,0.5,0,1,0.1,1.5
	c-0.2,0.6,0,1.2,0.3,1.6c0.5,1,1.4,1.7,2.1,2.1C76.7,58,77.3,58.2,77.3,58.2z M79.7,31.2c-0.1,0.5-0.1,1.1-0.1,1.5
	c0,0.5,0.1,0.9,0.1,1.2s0.1,0.5,0.1,0.5s0.5,0,1.3-0.2c0.6-0.2,1.5-0.6,2-1.5c0.4-0.8,0.5-2.2,0.4-3.3c-0.2-1.1-0.4-1.9-0.4-1.9
	s-0.5,0-1.2,0.4c-0.6,0.3-1.4,0.8-1.8,1.8C79.9,30.1,79.8,30.7,79.7,31.2z M81.6,37.5c-0.6,0.9-0.8,2.2-1,3.2s-0.1,1.8-0.1,1.8
	s0.5,0.1,1.3,0.1c0.7-0.1,1.6-0.4,2.3-1.3c0.4-0.5,0.6-1,0.7-1.6c0.2-0.6,0.2-1.2,0.3-1.8v-1.4c0-0.4-0.1-0.5-0.1-0.5
	s-0.5-0.1-1.3,0.1C83,36.2,82.2,36.6,81.6,37.5z M73.8,19.6c0,0,0.5-0.2,1-0.5c0.5-0.4,1.1-1,1.3-2c0.2-1-0.2-2.2-0.5-3.1
	c-0.2-0.5-0.5-0.8-0.5-1.1c-0.2-0.3-0.3-0.5-0.3-0.5s-0.5,0.2-1,0.7s-1,1.2-1.1,2.2s0.2,2,0.5,2.8C73.5,19,73.8,19.6,73.8,19.6z
	 M68,18.7c-0.5,0.5-0.7,0.9-0.7,0.9s0.1,0.1,0.3,0.3c0.2,0.2,0.4,0.4,0.7,0.6c0.5,0.4,1.3,0.8,2.1,0.9c0.8,0.1,1.6-0.3,2.2-0.6
	c0.5-0.4,0.9-0.8,0.9-0.8s-0.4-0.5-1-1.1c-0.6-0.5-1.5-1.1-2.3-1.1S68.6,18.3,68,18.7z M74,23.9c-0.9-0.3-1.7,0.1-2.3,0.5
	c-0.6,0.4-1,0.7-1,0.7s0.1,0.1,0.2,0.4c0.2,0.2,0.4,0.5,0.6,0.8c0.5,0.5,1.2,1.2,2,1.5s1.7,0.2,2.3-0.1c0.6-0.3,1.1-0.6,1.1-0.6
	s-0.1-0.2-0.2-0.5s-0.3-0.6-0.5-1C75.6,24.9,74.9,24.2,74,23.9z M79.2,48.7c0-0.5-0.1-1.1-0.3-1.6c-0.2-0.6-0.5-1.1-0.8-1.5
	c-0.7-0.8-1.6-1.2-2.4-1.3s-1.4,0-1.4,0s0,0.7,0.1,1.6c0.3,0.9,0.5,2,1.1,2.9s1.5,1.4,2.3,1.5c0.7,0.2,1.4,0.2,1.4,0.2
	S79.2,49.7,79.2,48.7z M77.3,26.4c0.1,0.3,0.1,0.5,0.1,0.5s0.5-0.1,1.2-0.4c0.6-0.3,1.4-0.8,1.7-1.8c0.3-1.1,0.1-2.3-0.2-3.3
	c-0.1-0.5-0.3-0.9-0.5-1.3c-0.1-0.3-0.2-0.5-0.2-0.5s-0.5,0.1-1.1,0.5c-0.5,0.4-1.2,1-1.4,2s-0.2,2.2,0.1,3.1
	C77.2,25.7,77.3,26.1,77.3,26.4L77.3,26.4z M79.4,40.9c-0.2-1-0.7-2.1-1.4-2.7c-0.7-0.6-1.7-0.7-2.4-0.7c-0.7,0.1-1.3,0.3-1.3,0.3
	s0,0.2,0.1,0.5s0.1,0.6,0.3,1.1c0.1,0.5,0.3,0.9,0.5,1.4c0.2,0.4,0.5,0.7,0.8,1.1c0.7,0.7,1.6,0.9,2.4,1c0.7,0.1,1.3-0.1,1.3-0.1
	S79.7,41.8,79.4,40.9z M68.9,13.5c0,0,0.5-0.3,0.9-0.7s0.9-1.2,0.8-2.1c0-0.5-0.1-1-0.3-1.4c-0.2-0.5-0.5-0.9-0.8-1.3
	c-0.5-0.7-1.1-1.3-1.1-1.3S68,7.1,67.7,7.6c-0.4,0.5-0.7,1.3-0.6,2.2c0.1,0.9,0.5,1.8,1,2.5C68.5,13,68.9,13.5,68.9,13.5z M39,75.7
	c-0.8-1-1.9-1.6-2.7-2c-0.5-0.1-0.8-0.4-1.1-0.5s-0.5-0.1-0.5-0.1s-0.3,0.7-0.5,1.8c-0.1,1-0.1,2.3,0.7,3.5c0.4,0.5,0.9,1,1.5,1.4
	c0.3,0.2,0.6,0.4,0.9,0.5c0.3,0.1,0.6,0.2,0.9,0.3c1.2,0.3,2.1,0.3,2.1,0.3s0.1-0.8-0.1-1.8C40.2,78,39.9,76.7,39,75.7L39,75.7z
	 M12.3,50.4c0.7-0.2,1.6-0.6,2.3-1.5s0.9-2,1.1-2.9c0.2-0.9,0.1-1.6,0.1-1.6s-0.6-0.1-1.4,0c-0.8,0.1-1.7,0.4-2.4,1.3
	c-0.4,0.5-0.6,1-0.8,1.5s-0.2,1.1-0.3,1.6c-0.1,1,0.1,1.8,0.1,1.8S11.6,50.5,12.3,50.4z M38.2,82c-0.4,0-0.6,0.1-1,0.1
	s-0.7,0-1.1,0.1c-0.7,0.1-1.4,0.3-2.1,0.6c-1.4,0.5-2.2,1.6-2.6,2.5c-0.5,0.9-0.6,1.7-0.6,1.7s0.3,0.1,0.7,0.3
	c0.5,0.1,1.1,0.4,1.9,0.5c1.6,0.1,3.5,0.1,4.9-0.8c1.4-0.8,1.9-2.1,2.1-3.1c0.2-1,0.1-1.8,0.1-1.8S39.5,82,38.2,82z M63.3,79.8
	c-1.4-0.2-2.9,0-4.1,0.5c-0.5,0.2-1.1,0.3-1.4,0.4s-0.6,0.2-0.6,0.2s0.1,0.8,0.5,1.7c0.5,0.9,1.3,1.9,2.7,2.3c0.8,0.2,1.6,0.2,2.4,0
	c0.8-0.1,1.6-0.3,2.3-0.6c1.4-0.6,2.3-1.3,2.3-1.3s-0.3-0.7-1-1.4C65.7,80.8,64.6,80,63.3,79.8z M25.1,78.9c0.6-0.7,0.9-1.4,0.9-1.4
	s-0.2-0.1-0.5-0.4c-0.3-0.2-0.7-0.5-1.3-0.8c-1.1-0.5-2.3-1.3-3.7-1.4c-1.4-0.1-2.4,0.4-3.2,0.9c-0.7,0.5-1.2,1.2-1.2,1.2
	s0.2,0.2,0.5,0.5c0.4,0.3,0.8,0.7,1.4,1.2c0.5,0.5,1.2,0.8,1.9,1.2c0.8,0.3,1.5,0.5,2.3,0.5C23.6,80.3,24.5,79.6,25.1,78.9z
	 M32.5,82.5c0.5-0.9,0.5-1.7,0.5-1.7s-0.2-0.1-0.6-0.2c-0.4-0.1-0.9-0.2-1.4-0.4c-1.2-0.4-2.7-0.5-4.1-0.5c-1.4,0.2-2.3,1-3.1,1.7
	c-0.6,0.7-1,1.4-1,1.4s1,0.6,2.3,1.3c0.6,0.4,1.4,0.5,2.3,0.6c0.9,0.2,1.7,0.2,2.4,0C31.2,84.4,32,83.4,32.5,82.5z M80.9,53.9
	c-0.5,0.4-0.8,0.9-1.2,1.4c-0.4,0.5-0.6,1.1-0.9,1.5s-0.5,0.9-0.5,1.3c-0.1,0.4-0.2,0.5-0.2,0.5s0.5,0.4,1.4,0.5
	c0.8,0.2,1.8,0.3,2.8-0.5c0.5-0.4,0.9-0.9,1.3-1.4s0.7-1.2,0.9-1.7c0.5-1.2,0.6-2.1,0.6-2.1s-0.5-0.3-1.4-0.4
	C82.9,53,81.8,53.2,80.9,53.9z M19,73.5c0.7-0.5,1.1-1.1,1.1-1.1s-0.5-0.7-1.4-1.4c-0.8-0.8-1.9-1.7-3.2-2.1
	c-1.2-0.4-2.3-0.2-3.1,0.2C11.6,69.4,11,70,11,70s0.1,0.3,0.4,0.6c0.3,0.4,0.5,0.9,1,1.4s1,1,1.6,1.4c0.5,0.4,1.2,0.6,1.9,0.8
	C17.3,74.5,18.3,74,19,73.5z M72.7,75.8c-0.7-0.5-1.8-1-3.2-0.9s-2.6,0.8-3.7,1.4c-0.5,0.3-1,0.5-1.3,0.8S64,77.5,64,77.5
	s0.3,0.7,0.9,1.4c0.6,0.7,1.5,1.4,3,1.4c0.8,0,1.5-0.2,2.3-0.5c0.7-0.3,1.4-0.7,1.9-1.2s1.1-0.8,1.4-1.2c0.3-0.4,0.5-0.5,0.5-0.5
	S73.5,76.4,72.7,75.8z M84.4,44.6c-0.8,0.1-1.7,0.4-2.5,1.3c-0.4,0.5-0.6,0.9-0.9,1.4s-0.5,1.1-0.6,1.6c-0.3,1-0.4,1.8-0.4,1.8
	s0.5,0.3,1.4,0.3c0.8,0.1,1.7-0.1,2.6-0.9c0.8-0.9,1.4-2.3,1.5-3.3c0.2-1.2,0.3-2.1,0.3-2.1S85.2,44.5,84.4,44.6z M74.7,68.8
	c-1.3,0.4-2.3,1.3-3.2,2.1c-0.9,0.7-1.4,1.4-1.4,1.4s0.5,0.5,1.1,1.1c0.7,0.5,1.7,1,3.1,0.7c0.7-0.1,1.4-0.4,1.9-0.8
	c0.5-0.5,1.1-1,1.6-1.4c0.5-0.5,0.8-1,1-1.4c0.3-0.4,0.4-0.6,0.4-0.6s-0.5-0.5-1.4-0.9C77,68.6,75.9,68.3,74.7,68.8z M78.5,61.6
	c-0.3,0.2-0.5,0.4-0.7,0.5c-0.3,0.2-0.5,0.4-0.7,0.6c-0.5,0.5-0.8,0.9-1.2,1.4c-0.3,0.5-0.5,0.9-0.8,1.2c-0.2,0.3-0.3,0.5-0.3,0.5
	s0.5,0.5,1.3,0.8c0.7,0.4,1.9,0.6,3.1,0.1c1-0.5,2.1-1.8,2.7-2.9s1-2.1,1-2.1s-0.5-0.4-1.4-0.5C80.7,61.1,79.6,61,78.5,61.6
	L78.5,61.6z M56,82.8c-0.6-0.4-1.4-0.5-2.1-0.6c-0.4-0.1-0.7-0.1-1.1-0.1c-0.4,0-0.7-0.1-1-0.1c-1.3-0.1-2.3,0.1-2.3,0.1
	s-0.1,0.8,0.1,1.8c0.2,1,0.7,2.3,2.1,3.1c1.4,0.9,3.3,0.9,4.9,0.8c0.8,0,1.4-0.3,1.9-0.5s0.7-0.3,0.7-0.3s-0.1-0.8-0.6-1.7
	C58.2,84.4,57.3,83.4,56,82.8z M15.4,19.1c0.5,0.4,1,0.5,1,0.5s0.4-0.5,0.6-1.4c0.4-0.8,0.6-1.8,0.5-2.8s-0.5-1.6-1.1-2.2
	c-0.5-0.5-1-0.7-1-0.7s-0.1,0.2-0.3,0.5s-0.4,0.6-0.5,1.1c-0.4,0.9-0.7,2.1-0.5,3.1C14.3,18.1,14.8,18.7,15.4,19.1z M11.7,26.4
	c0.6,0.3,1.2,0.4,1.2,0.4s0.1-0.2,0.1-0.5c0.1-0.3,0.2-0.6,0.3-1.2c0.2-0.9,0.3-2.1,0.1-3.1c-0.3-1-0.9-1.6-1.4-2s-1.1-0.5-1.1-0.5
	s-0.1,0.2-0.2,0.5c-0.1,0.3-0.3,0.7-0.5,1.3c-0.4,1.1-0.5,2.3-0.2,3.3C10.3,25.6,11,26.1,11.7,26.4z M14.5,27.6
	c0.6,0.3,1.4,0.5,2.3,0.1c0.7-0.3,1.4-0.9,2-1.5c0.3-0.4,0.5-0.6,0.6-0.8c0.2-0.2,0.2-0.4,0.2-0.4s-0.4-0.4-1-0.7s-1.4-0.6-2.3-0.5
	c-0.9,0.3-1.6,1-2.2,1.7c-0.3,0.4-0.5,0.7-0.5,1c-0.1,0.3-0.2,0.5-0.2,0.5S13.8,27.3,14.5,27.6z M15.9,64.8c0.2,0.3,0.3,0.5,0.3,0.5
	s0.6-0.3,1.3-0.8c0.6-0.5,1.4-1.4,1.6-2.5c0.4-1.2,0.2-2.3-0.1-3.3c-0.2-1-0.5-1.6-0.5-1.6s-0.6,0.2-1.4,0.6c-0.7,0.5-1.5,1.2-2,2.3
	c-0.1,0.3-0.2,0.6-0.2,0.9v0.9c0.1,0.6,0.2,1.3,0.4,1.7C15.6,64.1,15.7,64.5,15.9,64.8z M20.9,71.5c0,0,0.5-0.5,1.1-1.2
	c0.5-0.7,1.1-1.8,1.1-3c-0.1-0.5-0.2-1.1-0.3-1.7c-0.2-0.5-0.4-1.1-0.5-1.5c-0.3-0.5-0.4-0.8-0.5-1.1c-0.2-0.3-0.3-0.5-0.3-0.5
	s-0.6,0.3-1.3,0.9c-0.6,0.6-1.4,1.5-1.5,2.8s0.5,2.6,1,3.6C20.3,70.9,20.9,71.5,20.9,71.5z M12.9,57.8c0.1,0.4,0.2,0.5,0.2,0.5
	s0.6-0.1,1.4-0.5c0.7-0.4,1.5-1.1,2.1-2.1c0.1-0.5,0.3-1.1,0.3-1.6c0.1-0.5,0-1.1,0.1-1.5c0-1-0.2-1.6-0.2-1.6s-0.6,0-1.4,0.3
	c-0.8,0.3-1.7,0.7-2.3,1.8c-0.3,0.5-0.5,1.1-0.5,1.7c0,0.6,0,1.2,0.1,1.7C12.7,57,12.8,57.4,12.9,57.8z M9,51
	c0.8-0.1,1.4-0.3,1.4-0.3s-0.1-0.8-0.4-1.8c-0.2-0.5-0.4-1.1-0.6-1.6c-0.2-0.5-0.5-1.1-0.9-1.4c-0.7-0.8-1.7-1.2-2.5-1.3
	s-1.4,0.1-1.4,0.1s0,0.9,0.3,2.1c0.1,1.1,0.6,2.4,1.5,3.3C7.2,50.9,8.2,51.1,9,51z M9.2,34.3c0.7,0.2,1.3,0.2,1.3,0.2s0-0.2,0.1-0.5
	c0-0.3,0.1-0.7,0.1-1.2s0-1-0.1-1.5s-0.2-1.1-0.4-1.5c-0.5-1-1.2-1.5-1.8-1.8c-0.7-0.5-1.3-0.5-1.3-0.5s-0.3,0.8-0.4,1.9
	s0,2.4,0.5,3.3C7.7,33.7,8.6,34.1,9.2,34.3z M8,58.7c1,0.7,2,0.6,2.8,0.5c0.8-0.2,1.4-0.5,1.4-0.5S12,58.4,11.9,58s-0.3-0.8-0.5-1.3
	s-0.5-1-0.9-1.5s-0.7-1-1.2-1.4c-0.9-0.7-2-0.9-2.8-0.8s-1.4,0.4-1.4,0.4s0.2,1,0.6,2.1c0.3,0.5,0.6,1.2,1,1.7
	C7.1,57.8,7.5,58.3,8,58.7z M14.2,66.7c0.8-0.4,1.3-0.8,1.3-0.8s-0.1-0.2-0.3-0.5s-0.5-0.7-0.8-1.2c-0.4-0.5-0.7-1-1.2-1.4
	c-0.2-0.2-0.5-0.5-0.7-0.6s-0.5-0.4-0.7-0.5c-1.1-0.6-2.2-0.5-3-0.4c-0.8,0.2-1.4,0.5-1.4,0.5s0.4,1,1,2.1c0.5,1.1,1.6,2.3,2.7,2.9
	C12.3,67.3,13.4,67.1,14.2,66.7z M5.4,39.7c0.1,0.6,0.4,1.2,0.7,1.6c0.6,0.9,1.6,1.2,2.3,1.3s1.3-0.1,1.3-0.1s0-0.8-0.1-1.8
	c-0.2-1-0.4-2.3-1-3.2C8,36.6,7.2,36.2,6.4,36s-1.3-0.1-1.3-0.1s0,0.2-0.1,0.5c-0.1,0.4,0,0.9,0,1.4S5.2,39.1,5.4,39.7z M56.9,16.2
	H33.1c-0.8,5.7-4.4,10.6-9.3,13V40c0,15,8.6,27.9,21.1,33.9c12.6-6,21.2-19,21.2-33.9V29.1C61.2,26.7,57.6,21.9,56.9,16.2z M55,40.5
	l-4.1,4.2l1,6c0.2,1.1-0.9,1.9-1.8,1.4l-5-2.8l-5,2.9c-0.9,0.5-2-0.3-1.8-1.4l1-6L35,40.5c-0.7-0.8-0.3-2.1,0.7-2.3l5.6-0.9l2.5-5.5
	c0.5-1,1.8-1,2.2,0l2.5,5.5l0,0l5.6,0.9C55.3,38.4,55.7,39.7,55,40.5L55,40.5z"/>
<circle class="st1" cx="45" cy="45" r="45"/>
</svg>
