<?xml version="1.0" encoding="UTF-8"?>
<svg id="_Слой_2" data-name="Слой 2" xmlns="http://www.w3.org/2000/svg" viewBox="0 0 637.67 766.5">
  <defs>
    <style>
      .cls-1 {
        fill: none;
        stroke: #020202;
        stroke-miterlimit: 333.33;
        stroke-width: 63.67px;
      }
    </style>
  </defs>
  <g id="Layer_1" data-name="Layer 1">
    <path class="cls-1" d="M255.17,31.83h127.67c52.84,0,95.67,42.83,95.67,95.67h0v159.33c0,88-71.34,159.33-159.33,159.33-.11,0-.22,0-.33,0h0c-88,0-159.33-71.34-159.33-159.33h0V127.5c0-52.84,42.83-95.67,95.67-95.67h0ZM159.5,159.5h319c0,52.84-42.83,95.67-95.67,95.67-.11,0-.22,0-.33,0h-127.33c-52.84,0-95.67-42.83-95.67-95.67h0ZM31.83,765.17v-33.33c.92-157.91,129.09-285.49,287-285.67h0c158.43.18,286.82,128.57,287,287v33.33M318.83,637.5c17.67,0,32,14.33,32,32s-14.33,32-32,32-32-14.33-32-32,14.33-32,32-32ZM350.83,765.17v-95.67M159.5,446.5l159.33,191,159.33-191"/>
  </g>
</svg>