<?xml version="1.0" encoding="utf-8"?>
<svg version="1.1" xmlns="http://www.w3.org/2000/svg" viewBox="0 0 500 500">
<style type="text/css">.st0{fill:#FFF;} .st1{fill:#F18835;}</style>
<g>
	<animateTransform  accumulate="none" additive="replace" attributeName="transform" attributeType="XML" calcMode="linear" dur="8s" fill="remove" from="0 250 250" repeatCount="indefinite" restart="always" to="-360 250 250" type="rotate">
	</animateTransform>
	<path class="st0" d="M85.9,432.4l-9.3-9.3c-1.8-1.8-3.1-3.3-3.9-4.4s-1.2-2.2-1.5-3.4c-0.2-1.2-0.2-2.4,0.2-3.7
		c0.3-1.3,1-2.4,2-3.4c1.1-1.1,2.4-1.8,3.9-2.1c1.5-0.3,3-0.2,4.4,0.3c-1-1.8-1.4-3.6-1.2-5.4c0.2-1.8,1-3.3,2.4-4.7
		c1.1-1.1,2.3-1.8,3.8-2.4c1.5-0.5,3-0.6,4.4-0.4c1.5,0.3,2.9,0.9,4.3,2c0.9,0.7,2.8,2.5,5.8,5.5l7.9,7.9L85.9,432.4z M85.1,423.8
		l5.4-5.4l-3.1-3.1c-1.8-1.8-3-2.9-3.5-3.3c-0.9-0.7-1.8-1.1-2.7-1.1c-0.9,0-1.8,0.4-2.5,1.1s-1.1,1.5-1.2,2.4
		c-0.1,0.8,0.3,1.7,1,2.6c0.4,0.5,1.7,1.9,3.9,4.1L85.1,423.8z M94.4,414.5l6.2-6.2l-4.4-4.4c-1.7-1.7-2.8-2.7-3.4-3.1
		c-0.8-0.6-1.7-0.8-2.6-0.8c-0.9,0.1-1.8,0.5-2.6,1.3c-0.7,0.7-1.1,1.5-1.3,2.3s0,1.7,0.4,2.5c0.4,0.9,1.7,2.4,3.8,4.5L94.4,414.5z"
		/>
	<path class="st0" d="M65.5,377.7l-2.2-6.4c3.5-1.4,6.6-1.6,9.4-0.9c2.8,0.8,5.2,2.6,7.3,5.4c2.6,3.5,3.6,7.3,2.9,11.3
		s-3.1,7.6-7.3,10.7c-4.4,3.3-8.6,4.7-12.8,4.3c-4.1-0.4-7.6-2.5-10.3-6.2c-2.4-3.2-3.4-6.6-3-10c0.2-2,1.2-4.2,2.8-6.3l5.2,4.3
		c-1.1,1.3-1.7,2.8-1.8,4.4s0.5,3.1,1.5,4.5c1.5,2,3.4,3,5.7,3.2c2.3,0.2,5-0.9,8.2-3.3c3.3-2.5,5.3-4.9,5.8-7.1
		c0.5-2.3,0.1-4.3-1.4-6.3c-1.1-1.4-2.4-2.3-4.1-2.6C69.7,376.3,67.7,376.7,65.5,377.7z"/>
	<path class="st0" d="M68.9,361.1l-29,15.7l-11.6-21.5l4.9-2.7l8.5,15.6l6.4-3.5l-7.9-14.5l4.9-2.6l7.9,14.5l7.9-4.3l-8.8-16.2
		L57,339L68.9,361.1z"/>
	<path class="st0" d="M55,334.8l-30.9,11.5l-3.7-10c-1.4-3.8-2.2-6.3-2.3-7.6c-0.2-1.9,0.3-3.8,1.4-5.6c1.1-1.8,2.9-3.1,5.3-4
		c1.9-0.7,3.6-1,5.2-0.7c1.5,0.2,2.9,0.7,4,1.5s2,1.7,2.7,2.7c0.8,1.4,1.8,3.5,2.8,6.3L41,333l11.6-4.3L55,334.8z M27,338.1l8.8-3.3
		l-1.3-3.4c-0.9-2.5-1.7-4-2.3-4.7c-0.6-0.7-1.4-1.2-2.2-1.4c-0.9-0.2-1.8-0.2-2.7,0.2c-1.1,0.4-1.9,1.1-2.4,2s-0.6,1.9-0.4,3
		c0.1,0.8,0.6,2.3,1.5,4.6L27,338.1z"/>
	<path class="st0" d="M29.4,312c-3.3,0.7-6.1,0.8-8.6,0.3c-1.8-0.4-3.5-1.1-5-2.1S13,308,12,306.6c-1.3-1.8-2.2-4.1-2.7-6.7
		c-1-4.7-0.3-8.9,2-12.3c2.3-3.5,6.1-5.8,11.4-6.9c5.2-1.1,9.6-0.5,13.1,1.7s5.8,5.7,6.8,10.4c1,4.8,0.3,8.9-2,12.4
		S34.5,311,29.4,312z M27.8,305.4c3.6-0.8,6.2-2.2,7.8-4.3s2-4.4,1.5-7s-1.9-4.5-4.1-5.8s-5.2-1.5-8.9-0.7s-6.3,2.2-7.8,4.2
		s-1.9,4.3-1.4,7c0.6,2.7,1.9,4.7,4.1,5.9C21.1,305.9,24,306.2,27.8,305.4z"/>
	<path class="st0" d="M25.3,252.8l1.7-6.5c3.6,0.8,6.4,2.3,8.2,4.5s2.9,5.1,3,8.6c0.2,4.4-1.1,8-3.9,11c-2.8,3-6.9,4.6-12,4.8
		c-5.5,0.3-9.8-0.9-13-3.6s-4.9-6.3-5.1-10.9c-0.2-4,0.8-7.3,3.1-10c1.3-1.6,3.3-2.8,5.9-3.7l1.9,6.5c-1.7,0.5-3,1.4-3.9,2.6
		c-0.9,1.3-1.3,2.8-1.3,4.6c0.1,2.4,1.1,4.4,2.9,5.8s4.7,2,8.6,1.9c4.2-0.2,7.1-1.1,8.8-2.7s2.5-3.6,2.4-6c-0.1-1.8-0.7-3.3-1.9-4.5
		C29.5,254.1,27.7,253.2,25.3,252.8z"/>
	<path class="st0" d="M27.3,218.8l2.7-6.2c3.5,1.3,6,3.2,7.5,5.7s2.1,5.4,1.7,9c-0.4,4.4-2.3,7.8-5.5,10.3c-3.3,2.5-7.5,3.5-12.6,3
		c-5.5-0.5-9.5-2.4-12.3-5.5c-2.7-3.1-3.9-7-3.4-11.6c0.4-4,1.9-7.1,4.5-9.4c1.6-1.3,3.7-2.3,6.4-2.7l0.9,6.7
		c-1.7,0.2-3.2,0.9-4.3,2s-1.7,2.6-1.9,4.3c-0.2,2.4,0.4,4.5,2,6.2s4.3,2.7,8.2,3.1c4.1,0.4,7.2,0,9.1-1.3s3-3.2,3.2-5.5
		c0.2-1.8-0.2-3.3-1.2-4.7C31.3,220.7,29.6,219.6,27.3,218.8z"/>
	<path class="st0" d="M9,200.7l1.5-6l21.2,5.5l-17.8-18.5l1.6-6.4l31.9,8.2l-1.5,6l-20.8-5.3l17.5,18.2l-1.7,6.4L9,200.7z"/>
	<path class="st0" d="M18.2,146.1l1.2-2.8c1.8,1,3,2.2,3.6,3.9c0.6,1.6,0.5,3.3-0.3,5.2c-0.8,1.8-2,3.1-3.5,3.8
		c-1.6,0.7-3.3,0.7-5.3,0.1l1.2-2.8c1,0.3,1.9,0.3,2.7-0.1c0.8-0.4,1.4-1.1,1.9-2.3c0.5-1.1,0.6-2.1,0.3-2.9S19.2,146.6,18.2,146.1z
		 M19.1,165l2.4-5.7l20.2,8.6l-15-20.9l2.6-6.1l30.3,12.9l-2.4,5.7l-19.8-8.4l14.5,20.7l-2.6,6.1L19.1,165z"/>
	<path class="st0" d="M63.1,124.4l5.1-4.4c2.5,2.7,3.9,5.5,4.2,8.4c0.3,2.9-0.5,5.8-2.4,8.8c-2.3,3.7-5.5,6-9.5,6.8
		s-8.2-0.1-12.6-2.9c-4.7-2.9-7.5-6.3-8.6-10.3s-0.4-8,2-11.9c2.1-3.4,4.9-5.6,8.2-6.5c2-0.5,4.3-0.4,6.9,0.3l-2.1,6.4
		c-1.7-0.6-3.2-0.6-4.7-0.1s-2.7,1.5-3.6,3c-1.3,2.1-1.6,4.2-0.9,6.4c0.7,2.2,2.7,4.4,6,6.4c3.5,2.2,6.5,3.1,8.7,2.8
		c2.3-0.3,4.1-1.5,5.3-3.6c0.9-1.5,1.3-3.1,1-4.8C65.9,127.8,64.9,126.1,63.1,124.4z"/>
	<path class="st0" d="M54.6,100.3l4.3-5.1l10.8,9c0.8-1.2,1.2-2.2,1-3c-0.1-0.8-0.9-2.5-2.4-5.1c-1.9-3.3-2.7-5.8-2.4-7.4
		c0.2-1.6,1.3-3.6,3.3-6c0.1-0.1,0.3-0.4,0.6-0.8l3.8,3.1l-0.7,0.7c-0.9,1-1.4,1.9-1.5,2.6s-0.1,1.4,0.2,2.2c0.3,0.7,1,2.1,2.2,4
		c0.6,1,1.1,2,1.4,2.8c0.3,0.9,0.3,2,0.1,3.3c1.3-0.9,2.7-1.3,4.3-1.2c1.6,0.1,3.7,0.4,6.2,1l9.8,2.3l-5,6l-9.1-2.4
		c-0.1,0-0.4-0.1-0.8-0.2c-0.1,0-0.7-0.1-1.7-0.4c-1.8-0.4-3-0.5-3.7-0.3s-1.4,0.7-2.1,1.5l11.1,9.2l-4.3,5.1L54.6,100.3z"/>
	<path class="st0" d="M119.4,80.7l-5.4,4.9l-7.1-3.6l-9.7,8.8l3,7.4l-5.3,4.8L82.3,70l5.2-4.7L119.4,80.7z M101.6,79.3l-11.6-6
		l4.9,12L101.6,79.3z"/>
	<path class="st0" d="M138,68.4L130.4,57l-1.1,0.7c-1.7,1.2-2.8,2.2-3.2,3.2c-0.4,1-0.6,3.4-0.6,7.1v8.6l-6.6,4.4l-0.2-7.6
		c-0.1-3,0-5.2,0.2-6.6s0.7-2.8,1.4-4.3c-2.8,1.3-5.3,1.6-7.3,1c-2.1-0.6-3.7-1.9-5-3.8c-1.1-1.7-1.7-3.4-1.7-5.3s0.5-3.5,1.6-4.8
		c1.1-1.4,3-3,5.7-4.8l11.7-7.7l18.2,27.4L138,68.4z M122.8,45.7l-4.3,2.9c-2.2,1.5-3.6,2.5-4.2,3s-1,1.3-1.1,2.2s0.1,1.8,0.7,2.7
		c0.6,1,1.4,1.6,2.2,1.8s1.7,0.2,2.5-0.2s2.4-1.3,4.7-2.8l4.1-2.7L122.8,45.7z"/>
	<path class="st0" d="M176.4,45.6l1.4,3.6l-6.1,2.3l-1.4-3.6c-5,1.7-8.9,1.8-11.8,0.3c-2.9-1.5-5-3.9-6.2-7.3
		c-1.3-3.6-1.4-6.8-0.1-9.8c1.3-3,4.3-5.4,8.9-7.4l-1.2-3l6.1-2.3l1.2,3c5-1.7,8.9-1.8,11.8-0.3s5,3.9,6.3,7.3s1.3,6.6,0.2,9.6
		C184.3,41,181.3,43.6,176.4,45.6z M168.4,42.7L163.2,29c-2.6,1-4.3,2.3-5,3.9c-0.7,1.6-0.6,3.6,0.3,6
		C160.1,43.3,163.4,44.6,168.4,42.7z M174.5,40.4c1.6-0.6,2.9-1.4,3.9-2.4s1.5-2,1.7-3.1s-0.1-2.6-0.8-4.3c-1.7-4.5-5-5.7-9.9-3.9
		L174.5,40.4z"/>
	<path class="st0" d="M195.6,43.3L189,11l23.9-4.9l1.1,5.5l-17.4,3.6l1.5,7.2l16.2-3.3l1.1,5.4l-16.2,3.3l1.8,8.8l18-3.7l1.1,5.4
		L195.6,43.3z"/>
	<path class="st0" d="M225.5,4.7l22.7-1.3l1.6,27.4l2.9-0.2l0.7,12.7l-5.5,0.3l-0.4-7.2l-20.7,1.2l0.4,7.2l-5.5,0.3L221,32.4
		l2.8-0.2c1.2-2.9,1.9-6.2,2.1-9.9s0.2-8.4-0.2-14.1L225.5,4.7z M232.2,9.8c0.6,10,0.1,17.3-1.5,22l12.5-0.7l-1.3-21.8L232.2,9.8z"
		/>
	<path class="st0" d="M256.6,36.4l2.8-32.8l24.3,2.1l-0.5,5.5l-17.7-1.5l-0.6,7.3l16.5,1.4l-0.5,5.5l-16.5-1.4l-0.8,8.9l18.3,1.6
		l-0.5,5.5L256.6,36.4z"/>
	<path class="st0" d="M286.3,39.3l7.4-32.1l10.4,2.4c3.9,0.9,6.5,1.7,7.6,2.3c1.7,0.9,3,2.3,3.9,4.2s1,4.1,0.4,6.7
		c-0.5,2-1.2,3.5-2.2,4.7s-2.2,2-3.5,2.5s-2.5,0.8-3.7,0.8c-1.6,0-3.9-0.4-6.8-1.1l-4.2-1l-2.8,12.1L286.3,39.3z M298.9,14.1
		l-2.1,9.1l3.5,0.8c2.6,0.6,4.3,0.8,5.2,0.7s1.7-0.5,2.4-1.1c0.7-0.6,1.1-1.4,1.3-2.3c0.3-1.2,0.1-2.2-0.4-3.1s-1.3-1.6-2.3-2
		c-0.7-0.3-2.3-0.8-4.6-1.3L298.9,14.1z"/>
	<path class="st0" d="M339.3,55.4l-6.8-2.5l-0.1-8l-12.3-4.6l-5.1,6.1l-6.6-2.4l23.4-26.4l6.6,2.4L339.3,55.4z M332.4,39V26
		l-8.4,9.9L332.4,39z"/>
	<path class="st0" d="M357.6,28l5.8,3.2l-13.3,24l11.3,6.3l13.3-24l5.8,3.2l-13.3,24l2.4,1.3l-6.2,11.1l-4.8-2.7l3.5-6.3l-20.5-11.4
		L357.6,28z"/>
	<path class="st0" d="M390.1,47l4.9,3.8l-13.4,17.3l24-9.2l5.2,4.1l-20.2,26l-4.9-3.8l13.2-17L375.2,77l-5.3-4L390.1,47z"/>
	<path class="st0" d="M408.6,107.2l9.9-9.5l-0.9-1c-1.4-1.5-2.7-2.4-3.7-2.6s-3.4,0-7.1,0.7l-8.5,1.5l-5.5-5.8l7.4-1.5
		c2.9-0.6,5.1-0.9,6.5-1c1.4,0,2.9,0.2,4.4,0.7c-1.8-2.6-2.5-4.9-2.3-7c0.3-2.1,1.2-4,2.9-5.6c1.5-1.4,3.1-2.2,4.9-2.6
		s3.5-0.1,5,0.7s3.4,2.4,5.7,4.8l9.7,10.1L413.2,112L408.6,107.2z M428.4,88.3l-3.6-3.8c-1.8-1.9-3.1-3.1-3.7-3.6s-1.4-0.8-2.4-0.7
		c-0.9,0-1.8,0.4-2.6,1.2c-0.8,0.8-1.3,1.6-1.4,2.5s0.1,1.7,0.6,2.5s1.7,2.1,3.6,4.1l3.4,3.6L428.4,88.3z"/>
	<path class="st0" d="M452.4,109.3l13.8,22.3l-28,17.3l-3.5-5.7l23.3-14.4l-6.8-11l-23.3,14.4l-3.5-5.7L452.4,109.3z"/>
	<path class="st0" d="M455.4,146.5c3.1-1.3,5.9-1.9,8.4-1.9c1.8,0,3.6,0.4,5.3,1.1c1.7,0.7,3.2,1.6,4.4,2.8c1.6,1.6,2.9,3.6,3.9,6
		c1.9,4.5,2,8.6,0.3,12.5s-5,6.8-9.9,8.9c-4.9,2-9.3,2.3-13.2,0.8s-6.8-4.5-8.6-9c-1.9-4.5-2-8.7-0.4-12.5
		C447.3,151.4,450.6,148.5,455.4,146.5z M458.2,152.7c-3.4,1.4-5.7,3.3-6.8,5.6c-1.1,2.3-1.2,4.7-0.1,7.2s2.7,4.1,5.2,4.9
		c2.4,0.8,5.4,0.5,8.9-1s5.8-3.3,6.8-5.5c1.1-2.2,1.1-4.6,0-7.2s-2.8-4.2-5.2-5C464.7,150.9,461.7,151.2,458.2,152.7z"/>
	<path class="st0" d="M485.9,179.5l5.6,22.4l-31.9,8l-1.6-6.5l26.5-6.6l-2.4-9.6l-13.6,3.4c-3.9,1-6.7,1.5-8.3,1.6
		c-1.6,0.1-3-0.2-4.1-1s-1.9-2.3-2.5-4.4c-0.2-0.8-0.5-2.1-0.8-4.2l5-1.2l0.3,1.4c0.3,1.4,0.7,2.2,1.2,2.6c0.5,0.4,1.4,0.4,2.9,0
		l5.5-1.4L485.9,179.5z"/>
	<path class="st0" d="M493.4,212.7l0.6,6.2l-21.8,2.1l23.1,11.2l0.6,6.6l-32.8,3.1l-0.6-6.2l21.4-2l-22.7-11.2l-0.6-6.6L493.4,212.7
		z"/>
	<path class="st0" d="M461.6,277.3l0.4-7.2l7.6-2.5l0.7-13.1l-7.3-3.1l0.4-7l32.2,14.6l-0.4,7L461.6,277.3z M475.3,265.8l12.4-3.9
		l-12-5.1L475.3,265.8z"/>
	<path class="st0" d="M459.9,285l26.9,5l1.8-9.6l5.5,1l-4.8,25.7l-5.5-1l1.8-9.6l-26.9-5L459.9,285z"/>
	<path class="st0" d="M486.9,315.9l-7.2,21.9l-31.3-10.3l2.1-6.3l26,8.5l3.1-9.4l-13.4-4.4c-3.8-1.3-6.5-2.3-7.9-3
		c-1.4-0.8-2.4-1.8-2.9-3c-0.5-1.3-0.4-3,0.3-5.1c0.2-0.7,0.8-2.1,1.5-4l4.9,1.6l-0.5,1.4c-0.4,1.3-0.5,2.3-0.3,2.8
		c0.2,0.6,1,1.1,2.4,1.5l5.4,1.7L486.9,315.9z"/>
	<path class="st0" d="M461.3,339.2c3,1.5,5.3,3.3,6.8,5.2c1.2,1.4,2,3,2.6,4.8s0.8,3.5,0.7,5.1c-0.2,2.2-0.9,4.5-2.1,6.9
		c-2.2,4.3-5.3,7.1-9.3,8.3c-4,1.2-8.4,0.6-13.2-1.8c-4.7-2.4-7.8-5.6-9.1-9.5c-1.4-3.9-0.9-8.1,1.3-12.4c2.2-4.4,5.3-7.1,9.3-8.4
		S456.7,336.9,461.3,339.2z M458.4,345.4c-3.3-1.7-6.2-2.2-8.7-1.6c-2.5,0.7-4.3,2.2-5.6,4.5s-1.3,4.7-0.4,7.1s3.1,4.4,6.5,6.2
		c3.4,1.7,6.2,2.3,8.6,1.6c2.4-0.6,4.2-2.2,5.5-4.6c1.2-2.4,1.4-4.8,0.5-7.2S461.8,347.2,458.4,345.4z"/>
	<path class="st0" d="M429.9,363.8l26.6,19.4l-3.9,5.4l-10.5-7.6l-7.7,10.5l10.5,7.6l-3.9,5.4L414.4,385l3.9-5.4l11.6,8.5l7.7-10.5
		l-11.6-8.5L429.9,363.8z"/>
	<path class="st0" d="M389.7,410.6l5.1-5.1l7.3,3.2l9.3-9.3l-3.4-7.2l5-5l14.4,32.3l-4.9,5L389.7,410.6z M407.6,411.1l11.9,5.4
		l-5.5-11.8L407.6,411.1z"/>
</g>
<g>
	<path class="st1" d="M207.3,88.2c8.2-1.9,19.9-3.3,32.3,0.8c13.5,4.4,18.9,11.1,34,21c10.1,6.6,20.6,11.9,33.2,12.2
		c-3.3,1.8-9.9,4.8-18.3,4.4c-1.6-0.1-6.7-0.5-15.6-4.7c-7.8-3.7-10.2-6.5-18.6-12.4c-6.1-4.3-17.7-12.2-33-17.5
		C215.6,90,210.6,88.9,207.3,88.2z"/>
	<path class="st0" d="M264.2,123.6c-13.8,2.6-26.3-0.8-38-7.6c-10.7-6.3-21.5-12.5-32.4-18.5c-2.9-1.6-6-3-9-3.9
		c-3.2-0.9-6.4-1.3-10.2-2c5.7-3.1,11.5-4.1,17.6-3.1c9.7,1.6,18.5,5.4,26.9,10.3C233.8,107.4,247.6,117.8,264.2,123.6z"/>
	<path class="st0" d="M226.2,120.3c-9.5,4.4-18.8,4.2-28.2,0.3c-8.3-3.5-16.5-7-24.9-10.1c-2.9-1.1-6.4-1-9.8-1.5
		c2.3-4.3,6.6-5.9,11-6.4c4.3-0.4,9.2-0.6,13.2,0.9C200.5,108.6,213.1,114.5,226.2,120.3L226.2,120.3z"/>
	<path class="st0" d="M283.6,110.5c5.8-4.8,12.4-6.5,19.8-4.4c6,1.7,11.7,3.8,17.8,5.3c3.9,1,8.1,1.1,12.1,1.7
		c-1.6,5.3-9,9.2-16.4,7.4c-7-1.8-13.8-4.3-20.7-6.4C292.2,112.8,288,111.8,283.6,110.5z"/>
	<path class="st1" d="M274.5,104.2c-6.4,0-11.3-4.5-11.4-10.6c-0.1-6,4.8-10.8,11.1-10.9c6.5-0.1,11.3,4.4,11.3,10.6
		C285.5,99.4,280.8,104.1,274.5,104.2L274.5,104.2z"/>
</g>
<g>
	<path class="st1" d="M136.2,299.7c-1.2,2.3-2.5,5.7-1.8,9.4c0.6,2.9,2.1,4.9,7.9,10.3c10,9.5,13,11,14.7,16c0.5,1.5,1.6,5.1,0,8.6
		c-0.7,1.5-1.7,2.7-5.7,5.2c-5.2,3.3-10,6.4-17.6,7.7c-2,0.3-4.9,0.7-8.5,0.5c7.1-5.2,12.6-9.2,16.5-11.7c0.9-0.6,2.9-1.8,3-3.8
		c0.1-1.1-0.8-2.3-2.4-4.1c-3.3-3.6-6.8-7-10-10.6c-3.7-4.1-6.1-8.8-5.9-14.5c0.1-1.9,0.6-3.3,0.9-4.1
		C129.5,303.1,134.5,300.5,136.2,299.7z"/>
	<path class="st0" d="M99.2,366.5c0-6.6,1.3-11.6,2.5-14.9c1.4-3.9,4.5-10.7,9.2-17.1c1.8-2.5,4.4-5.5,5.8-10.4
		c0.4-1.5,0.5-2.3,1.1-3.9c1.5-3.9,4-6.6,5.9-8.3c1.5,5,3,10,4.5,15c-4.4,7.9-10,16.7-17,25.7C107.2,357.7,103.1,362.4,99.2,366.5z
		"/>
	<path class="st1" d="M164.3,279.3c-5.8,0-10.7-4.8-10.7-10.4c0.1-5.8,4.8-10.6,10.6-10.7c5.6-0.1,11.1,5.3,11,10.9
		C175.2,274.6,170.2,279.3,164.3,279.3L164.3,279.3z"/>
	<path class="st0" d="M185.7,304.7c-4.4,7.4-11.1,10-19.1,7.2c-6.3-2.2-11.6-6-13.3-12.7c-0.7-2.7-0.2-5.8,0.3-8.6s1.3-5.7,3.1-8.7
		c1,3.2,2.4,6.2,3.2,9.5c1.4,6.7,5.1,11.7,11.8,13.3C175.8,305.6,180.8,304.7,185.7,304.7L185.7,304.7z"/>
	<path class="st1" d="M149.1,285.3c-5.9-4.2-11.8-8.8-19.8-5.9c-7.2,2.7-11.6,8.4-16.9,14.3c4-10.4,9.9-18.3,19.1-23.6
		c4.1-2.3,10.4-1.1,14.7,2.6C150.1,276,151.2,280.2,149.1,285.3z"/>
</g>
<g>
	<path class="st1" d="M290.7,392.8c-12.5-5.2-11.3-4.8-17.2-7.3c-12-4.8-16.1-6-18.9-6.5c-1.3-1.8-2.8-4.1-4.1-7
		c-1.5-3.2-2.2-6-2.7-8.3c0.4,0,0.7,0.1,1.2,0.1c11.7,1.2,23,3.8,33,10.4c2.6,3,5.6,7.4,7.5,13.4
		C290,389.4,290.4,391.2,290.7,392.8z"/>
	<path class="st0" d="M256.5,379c-5.3-1.1-5.2-0.5-13.7-1.6c0,0-20.1-1.9-30.9-10.4c-2.5-2-4-3.8-3.6-7.1c0.2-1.6-0.5-3.3-0.7-5.5
		c13.2,7.8,27.8,8,42.2,9.4c0.5,2.3,1.2,5.2,2.7,8.3C253.8,374.9,255.2,377.3,256.5,379z"/>
	<path class="st0" d="M315.2,396.6c0,0.5,0,0.8,0,1.3c-1.2,0.2-2.5,0.6-3.7,0.4c-10.2-2-20.7-5.5-20.7-5.5
		c-0.3-1.6-0.6-3.3-1.2-5.1c-1.8-6-5-10.4-7.5-13.4c9.9,6.6,20,13,29.9,19.6C313.1,394.7,314.1,395.7,315.2,396.6z"/>
	<path class="st0" d="M189.1,345.6c6.2,0,11.9,5.8,11.7,11.7c-0.2,6-5.6,11.3-11.7,11.4c-6.2,0.1-11.8-5.6-11.7-11.8
		C177.5,350.9,183,345.6,189.1,345.6L189.1,345.6z"/>
	<path class="st1" d="M221.6,378.2c2.9,0.9,5.4,1.7,7.8,2.7c0.7,0.3,1.5,1.2,1.7,2c1.6,7.3,2.8,14.5,0.8,21.9
		c-1.7,6-5.4,10.2-12.3,12.1c5.9-10,3.1-20.4,2.1-30.5C221.4,383.8,221.6,381.2,221.6,378.2z"/>
	<path class="st1" d="M206.3,368.3c3.1,2.8,8.1,5.2,9,8.6c1.4,5.9,0.8,12.4-0.2,18.4c-1,5.9-6.1,9-11.8,8.9
		C209.2,392.7,208.5,380.8,206.3,368.3z"/>
	<path class="st1" d="M320,399.5c4.6,7,0.2,16-9.1,17.9C314,411.4,316.9,405.5,320,399.5z"/>
</g>
<g>
	<path class="st1" d="M354.1,350.6c-1.7,5-4.9,12.4-11.2,20.4c0.3-1.9,0.9-5.7,1.6-10.5c1.1-7.1,2.1-13.9,2.4-15.4
		c0.8-5.5,1.9-14.3,1.9-24.1c0-7.1-4.2-12-11.4-13.9c-7.5-2-15-3.7-22.4-6.1c-3.6-1.1-7.1-3.1-10.3-5.1c-1.4-0.8-7-6.1-6-11.9
		c0.1-0.6,0.6-3.5,3.1-5.1c0.2-0.1,3.2-1.9,6.3-0.4c0.3,0.2,2.7,1.4,3.2,4.2c0.4,2.5-1.1,4.4-1.6,5c-0.6,0.7-1.4,1.7-2.6,1.9
		c-1.4,0.3-3.3-0.4-3.3-0.4l0,0c1.5,1.5,4.1,3.6,7.8,5c1.6,0.6,3.2,0.9,5.2,1.2c7.3,0.9,15.5-0.4,19.2-1.1
		c4.8,3.9,10.5,9.8,15,18.1c2.6,4.8,6.2,11.3,6.5,20.5C357.7,340.3,355.8,345.5,354.1,350.6z"/>
	<path class="st1" d="M390.3,269.2c-4.4,8.2-8.1,15.7-12.5,22.8c-5.1,8-6.3,16.8-6.8,25.7c-2.3-3.9-6.1-9.3-12-14.6
		c-5.5-4.9-11-7.9-14.9-9.8c10.2-2.8,22.8-7.6,35.6-16.2C383.6,274.6,387.2,271.9,390.3,269.2z"/>
	<path class="st0" d="M371,317.7c-0.3,7-1.6,12.8-2.8,17.2c-1,3.3-4.5,14.9-14.1,27.1c-4.3,5.5-8.6,9.5-11.8,12.1
		c0.1-0.8,0.3-1.9,0.5-3.2c6.2-8,9.5-15.4,11.2-20.4c1.8-5.1,3.6-10.3,3.3-17.4c-0.4-15.1-9.8-25.3-12.2-27.8
		c-5.2-5.4-10.7-8.5-14.4-10.2c4.5-0.6,8.9-1.2,13.4-1.8c4,1.8,9.4,4.9,14.9,9.8C365,308.4,368.8,313.8,371,317.7z"/>
	<path class="st1" d="M358.4,279.2c-0.1,5.1-5.2,9.8-10.8,9.8c-5.8,0-10.5-4.8-10.3-10.5c0.1-5.3,5-9.7,10.8-9.6
		C353.5,269.1,358.5,274.1,358.4,279.2z"/>
	<path class="st1" d="M376.7,329.9c11,9.6,18.4,27.5,12.5,42.5c-2.7-10.7-7.5-19.7-15.4-26.9c-0.6-0.5-0.8-1.8-0.6-2.5
		C374.2,338.7,375.4,334.4,376.7,329.9z"/>
</g>
<g>
	<path class="st0" d="M201.9,179.2c0.8,3.1,1.5,6.4,2.1,9.9c0.5,2.9,1,5.7,1.4,8.4c0.9,5.7,1.8,13.1,2.6,21.7
		c0,0,1.1,11.8,1.1,22.1c0,20.9-3,41.4-7.6,61.7c0.6,0,1.3,0.1,1.9,0.1c3.2-12.5,5-23.2,6.1-31.1c5.3-40.2-0.3-70.3-2.1-79.1
		c-1.2-5.9-2.4-10.7-3.3-13.9C203.3,179,202.6,179.1,201.9,179.2z"/>
	<path class="st0" d="M295.9,179.1c-0.6-0.1-1.1-0.2-1.8-0.3c-0.5,1.6-0.9,3.3-1.3,5.1c-1,4-1.8,7.8-2.5,11.5
		c-6.4,34.8-3.6,98.1,5.2,106.9c-4.2-20.4-7.2-40.9-7.2-61.8C288.3,219.6,291.5,199.5,295.9,179.1z"/>
	<path class="st0" d="M207,193.2c12.8-1.7,27.4-3,43.4-3.2c15.6-0.2,29.8,0.7,42.3,2.1c-0.2,0.5-0.4,1-0.5,1.6
		c-12.7-1.3-27-2.1-42.5-1.9c-15.8,0.2-30.2,1.4-43.1,3.1C206.8,194.3,206.9,193.8,207,193.2z"/>
	<path class="st1" d="M214.6,188.6c-0.2,0-0.6,0.3-1.1,3.9c-0.5,4.6-0.9,7.7,0.3,11.7c0.6,2.2,1.8,6.4,5.9,9.7
		c1.2,0.9,4.5,3.7,9.5,3.7c1.1,0,4.1-0.1,6.6-1.9c2.5-1.8,3.6-4.7,5.1-8.7c1.1-3,1-4,2.3-5.3c2.4-2.5,5.7-2.6,6-2.6
		c3.8-0.1,6.4,2.4,7.7,4.4c0.7,1.2,0.5,1.5,1.2,3.4c0.5,1.1,2.1,5.8,6.6,8.3c0.9,0.6,4.4,2.5,8.3,1.7c7.7-1.7,10.2-13.2,10.7-15.3
		c0.6-2.7,0.5-5.1,0.3-9.8c-0.1-2-0.2-3-0.6-3.1c-0.6-0.2-1.7,1.6-4.1,6.4c-3.9,7.6-4.3,9.1-5.9,9.4c-1.2,0.2-1.8-0.7-6.4-4.5
		c-3.6-2.9-5.3-4.5-7.2-5.4c-1.6-0.8-5.2-2.8-10.1-2.8c-0.9,0-6,0.1-10.7,3.4c-1.8,1.2-2.9,2.6-5.3,5.3c-4,4.3-4.1,5.6-5.6,5.9
		c-3.8,0.6-7.9-6.2-8.7-7.5C215.9,193.4,215.6,188.5,214.6,188.6z"/>
	<path class="st0" d="M258,206.9c-1.3,0.7-2.4,1.4-3.6,2.1c-4.2,2.6-7.3,2.6-11.1-0.6c-0.9-0.8-1.8-1.3-2.4-1.4
		c0.4-4.1,3.4-7.3,7-7.8C252.4,198.3,257.3,201.7,258,206.9z"/>
	<path class="st0" d="M265,268.1c-1.2,0.1-2.4,0.2-3.7,0.2c-1.4,0-2.7,0-4-0.1c0.6-2.2,1.2-4.5,1.8-6.7c0.6,1,1.3,2.1,2.3,3.2
		C262.6,266.2,263.9,267.3,265,268.1z"/>
	<path class="st1" d="M260.7,255.2c-1.3,7.7-2.6,13.3-2.9,14.6c-1.7,7.2-3.9,17.9-5.8,32.5c-4.7-4.7-6-11.6-6.9-18.6
		c-1.2-9.3,1.5-18.1,3.5-27c1-4.2,1.9-8.6,3.2-12.7c2.5-8.4,1.3-16.8,0.1-25.6c8.4,8.1,10.2,15.6,10.6,19.3
		C263,241.7,262.2,246.2,260.7,255.2z"/>
	<path class="st0" d="M243.7,267.5c-9.9-1.1-13.3-4.8-13.3-14.2c0-11.3,8.1-24.2,18.6-28.2c-0.6,4.1-0.9,7.6-1.8,11.1
		c-1,4.5-2.5,8.8-3.4,13.4c-0.2,1.1-0.5,2.6,0,4.3s1.6,2.9,2.3,3.6C245.3,260.8,244.5,264.2,243.7,267.5z"/>
	<path class="st0" d="M260.9,175c0,6.2-5.2,11.3-11.4,11.3c-6.4,0-11.6-5.3-11.5-11.6c0.1-6.1,5.6-11.3,11.7-11.1
		C255.9,163.7,260.9,168.8,260.9,175z"/>
</g>
<g>
	<path class="st1" d="M361.5,230.9c0.4-0.2-1-4.9-4.1-9.6c-2.3-3.7-5.1-6.2-10.5-11.1c-3.4-3.2-4.8-4.1-7.3-6.9
		c-3.5-3.8-4.3-4.8-4.3-4.8c-0.4-0.5-1.4-1.6-3-3.2c-0.1-0.1-0.6-0.6-1.2-1.2c-1.3-1.3-3.1-2.8-5.1-4.4
		c-12.2-9.4-25.6-11.8-25.8-11.4c-0.1,0.2,4.9,1.5,12.3,5.8c1.8,1.1,5.9,3.6,10.6,7.3c2.3,1.8,3.8,3.3,6.2,5.5
		c5,4.7,5.7,6,11.1,11.2c1.1,1.1,2.6,2.4,5.5,5.2c6.8,6.4,7.1,6.4,8.6,8C359.4,226.6,361.2,231.1,361.5,230.9z"/>
	<path class="st0" d="M378.5,173.3c-0.4-1.5-1.7-5.3-4.5-9.6c-2.6-3.9-5.9-7.4-9.9-10.3c-4.6-3.3-11.8-2.9-16.1,1.1
		c-3.7,3.4-6.2,6.9-3,12.2c1.1-0.9,8-6.7,16.3-4.9c5,1,8.3,4.3,10.2,6.1c3.6,3.5,5.4,7.2,6.3,9.5c0.6,0,1.1,0,1.7,0
		C379.3,176.4,379,175,378.5,173.3z"/>
	<path class="st0" d="M326.5,191c0,0,3.4-0.6,6.3-2.2c3.6-2,10.7-7.4,9.2-14.8c-0.7-3.6-1.9-7.3-2.8-10.9
		c-0.1,2.3-0.8,7.8-4.8,12.7c-4,4.7-11.3,10.3-17.7,7.5c-1.5-0.7-3.1-0.9-4.6-1.4c-0.3,0.5-0.6,0.9-0.8,1.5c1.2,1.6,4.2,5,9.1,6.7
		C322.8,190.8,324.9,191,326.5,191z"/>
	<path class="st0" d="M385.3,236.9c0.8,1.1,1.7,2.1,2.6,3.2c1.3,0.2,2.6,0.5,4,0.7c-0.1-0.8-0.4-2.1-0.7-3.6
		c-1.5-6.5-3.7-10.8-10.9-24.4c-1.5-2.8-4.2-6.1-5.9-11.1c-1.3-3.8-3.9-7.2-6-11.2c-1.1,4.3-2.2,8.6-3.4,12.9
		C370,214.5,376.6,225.9,385.3,236.9z"/>
	<path class="st0" d="M363.8,232.5c-5.4-4.3-10.9-8.6-16.3-12.8c5.3-4.9,9.1-9.4,11.6-12.7c6-7.9,6.4-11,6.5-12.3
		c0.2-3.9-1.6-7.9-5.2-12.6c-1.1,0.4-2.1,0.8-3.2,1.2c0.8,4,0.2,6.8-0.5,8.5c-2,4.8-5.9,5.3-14.4,13.4c-2.4,2.3-3.9,4-5.2,6.4
		c-1.5,2.8-3.1,5.9-2.1,9.3c0.8,2.7,2.9,5,6.5,6.7c3.2,1.5,4.8,2.3,9.2,4.1c2.4,1,5.9,2.5,10.1,4.7c1.7-0.5,3.4-1.1,5.1-1.6
		C365.1,234,364.4,233.2,363.8,232.5z"/>
	<path class="st0" d="M331.5,161.8c-6.2,0-11-4.8-10.9-10.9c0-6.1,4.9-10.6,11.2-10.6c6,0,10.7,4.7,10.7,10.6
		C342.5,156.9,337.5,161.8,331.5,161.8z"/>
	<path class="st1" d="M422.6,168.4c-0.2-0.6-9.4,4.1-23.1,5.8c-2.3,0.3-7.9,0.9-14.5,1.3c-2.8,0.3-5.2,0.3-6.8,0.4
		c-2.1,0.2-5.1,0.7-8.7,1.7c-15.6,4.3-26.3,14.3-26,14.7c0.1,0.2,4.4-3.3,12.8-6.8c5-2.1,9.5-3.3,13-4.2c3.9-1,6.4-1.7,9.9-2.2
		c5.6-0.8,7.3-0.4,14.1-1.1c0.4-0.1,4.9-0.6,8.9-1.4C413.5,174.3,422.8,169,422.6,168.4z"/>
	<path class="st1" d="M426.5,244.4c0-0.3-4.2,0.7-10.4,0.7c-10.6-0.2-20.1-3.6-27.3-4.9c-2.3-0.4-3.2-0.6-3.2-0.6
		c-2.9-0.5-3.6-0.6-6-1.1c-3.5-0.7-5-1.1-7.9-1.5c-1.5-0.2-3.2-0.3-6.5-0.5c-5.3-0.3-9.4-0.3-11-0.3c-5.2,0-9.3,0-14.5,0.5
		c-6.8,0.6-13.2,1.8-13.1,2.2c0,0.2,1.4,0.1,13.3-0.4c4.6-0.2,5-0.2,5.6-0.2c2.4,0,7.1,0,13.1,0.3c3.5,0.2,5.8,0.4,10.5,1
		c5,0.6,9.3,1.2,12.6,1.8l0,0c4.3,1,7.6,1.3,8.6,1.5c6.5,0.8,15.3,3.8,23.2,3.9C420.8,247,426.5,244.8,426.5,244.4L426.5,244.4z"/>
	<path class="st1" d="M416.2,228.7c0-0.2-5.2-0.7-11.1-0.6c-5.7,0.2-12.7,1.5-26.7,4.3c-5.7,1.1-5.9,1.2-9.2,1.8
		c-3.5,0.6-5.1,0.8-7.9,1.5c-1.4,0.4-3.1,0.8-6.2,1.9c-4.7,1.6-7.3,2.8-10.3,3.9c-7.2,2.8-10.9,4.2-15.9,5.1
		c-6.5,1.2-10.8,0.8-10.8,1.2s5.3,1.3,11.3,0.7c3.3-0.3,5.6-1,8.3-1.8c5.3-1.5,6.3-2.5,12.3-4.6c3.3-1.1,5.5-1.7,10.1-3
		c4.8-1.3,9.1-2.2,12.4-3c4.4-0.7,7.5-1.5,8.5-1.8c9.2-2.4,15.7-4.2,23-5C411,228.5,416.2,228.9,416.2,228.7z"/>
</g>
<g>
	<path class="st0" d="M119.1,177.1c0.6,5.1,0,9.7,1.8,13c2.9,5.5,7.4,10.3,11.3,15.3c5.8,7.3,12.5,13.9,17.5,21.7
		c6.9,10.8,2,25.4-9.8,32c0.3-1.3,0.4-2.5,0.9-3.5c4-9.9,1-18.4-5.6-26.1c-5.5-6.4-11.3-12.4-16.4-19.1c-5.3-6.9-8.3-14.7-4.8-23.4
		C115.1,183.6,117.1,180.8,119.1,177.1z"/>
	<path class="st0" d="M88.6,256.7c4.9-8.5,9.5-16.5,14.2-24.6c4.7-8.2,6.9-16.8,5.9-26.2c5.3,2.5,9.7,10.4,8.7,17.4
		c-2.3,14.6-9.8,25.8-23.8,32.1C92.1,256.4,90.5,256.4,88.6,256.7z"/>
	<path class="st0" d="M115.4,176c-6.7,4-13.6,7.3-22,4.6c-6.8-2.2-9.7-7.7-6.5-14.4c1.7-3.5,4.5-7,7.7-9.4
		c5.6-4.1,12.4-5.3,19.7-4.2c-3.2,2-6.6,3.7-9.5,6c-3.3,2.6-6.7,5.4-9.3,8.6c-2.8,3.5-1.7,6,2.7,6.7
		C103.9,175,109.5,175.4,115.4,176L115.4,176z"/>
	<path class="st0" d="M126.9,156.4c-5.4-0.1-9.9-4.6-9.9-10c0-5.6,4.6-10,10.3-9.9c5.6,0.1,9.9,4.5,9.9,9.9
		C137.2,152,132.5,156.5,126.9,156.4L126.9,156.4z"/>
	<path class="st0" d="M161.8,171.2c-2,11.2-10,19.1-19,18.7c-8.2-0.4-16-6.9-16.5-13.9c6,2.8,12.1,7.3,18.7,5.2
		C150.9,179.1,156.1,174.6,161.8,171.2L161.8,171.2z"/>
	<path class="st1" d="M132.9,168.1c0-1.7,0-3.3,0.1-5c12.4,0,24.9,0,37.3,0.1c0.1-0.4,0.3-0.9,0.4-1.3c11.6-0.1,23.2-0.2,34.8-0.3
		c-0.2,1.1-0.3,2.2-0.5,3.3c-10.7,0-21.3,0.1-32,0.1c-0.3,1.2-0.7,2.3-1,3.5C159.1,168.3,146,168.2,132.9,168.1z"/>
	<path class="st1" d="M130.6,161.8c1.5,6.3,0.9,7.1-4.8,7.8c-4.4,0.5-8.8,0.9-13.2,1.5c-4.8,0.7-5.3-3.6-8-6.5
		C113.2,163.6,121.9,162.7,130.6,161.8z"/>
	<path class="st1" d="M166.9,157.4h-29.1v-1.6h29.1V157.4z"/>
	<path class="st1" d="M143.8,160.9h-1.1v-2.2h1.1V160.9z"/>
	<path class="st1" d="M160.7,160.9h-0.9v-2.2h0.9V160.9z"/>
	<path class="st1" d="M136.4,170.4c-0.5,0-1,0-1.5,0c0.1,0.3,1.8,4.1,5.8,4.8c3.4,0.6,7.1-1.3,8.8-4.7c-0.6,0-1.2,0-1.8,0
		c-1.2,2.1-3.5,3.3-5.9,3.3C138.3,173.6,136.5,170.6,136.4,170.4z"/>
</g>
</svg>
