<?xml version="1.0" encoding="utf-8"?>
<svg version="1.1" xmlns="http://www.w3.org/2000/svg" viewBox="0 0 90 90" fill-rule="evenodd">
	<path fill="white" d="M30.3,35.6c0,0,0.3,4,1.2,7.3c0.8,3.1,6,10.2,12.4,10.4c0.4,0,1.8,0,2.1,0c6.5-0.1,11.7-7.3,12.6-10.4c0.9-3.3,1.2-7.3,1.2-7.3c1,0.3,2.4,0.2,2.9-1c0.6-1.6,1.8-9.8,0.6-10.7c-0.3-0.2-0.7-0.3-1.1-0.2c-0.2-9.4,1.9-14.4-5.8-17.4c-1-6.2-9.4-6-11.1-6.2c0,0-0.6,0-0.7,0C24.4,0.6,28.1,14.4,27.8,23.6c-0.4-0.1-0.8,0-1.1,0.2c-1.2,0.9,0,9.1,0.6,10.7C27.9,35.7,29.2,35.9,30.3,35.6zM45,82.9L45,82.9c2.2-3.3,4.3-7.7,6-12c-0.9-3.7-2.3-6.9-3.1-8.5c0.7-1.2,2.2-2.5,2.5-3.7c0.3-1.2-0.3-2.1-1.3-2.9c-0.4-0.3-1.1-0.5-1.5-0.2l-1.7,0.8c-0.5,0.2-1.2,0.2-1.7,0l-1.7-0.8c-0.5-0.2-1.1-0.1-1.5,0.2c-1,0.8-1.6,1.6-1.3,2.9c0.3,1.2,1.8,2.5,2.5,3.7c-0.8,1.6-2.2,4.8-3.1,8.5C40.8,75.3,42.8,79.6,45,82.9zM90,86.7l-3-17.9c-0.6-2.4-3-5.1-5.3-5.9L66.3,57c0,0-2.6-1.1-3.4-1.8L60.3,53c-0.8-0.7-1.9-0.8-1.9,0.4v0.1c0.6,4.1-6.7,25.6-13.4,33l-0.1,0c-6.7-7.4-14-28.9-13.4-33l0-0.1c0-1.2-1.1-1-1.9-0.4l-2.6,2.2c-0.8,0.7-3.4,1.8-3.4,1.8h0L8.4,62.8C6,63.7,3.6,66.3,3,68.7L0,86.7v0c-0.3,1.8,1,3.3,2.9,3.3h84.1C88.9,90,90.2,88.5,90,86.7z"/>
</svg>
