<?xml version="1.0" encoding="utf-8"?>
<svg version="1.1" xmlns="http://www.w3.org/2000/svg" viewBox="0 0 800 880">
<path fill="white" d="M209.2,30.8h-86.2c-51,0-92.3,41.3-92.3,92.3v61.5c0,51,41.3,92.3,92.3,92.3h86.2c51,0,92.3-41.3,92.3-92.3v-61.5C301.5,72.1,260.2,30.8,209.2,30.8z M178.5,203.1h-24.6c-27.2,0-49.2-22.1-49.2-49.2c0-27.2,22-49.2,49.2-49.2h24.6c27.2,0,49.2,22.1,49.2,49.2C227.7,181,205.6,203.1,178.5,203.1z M467.7,276.9h86.2c51,0,92.3-41.3,92.3-92.3v-61.5c0-51-41.3-92.3-92.3-92.3h-86.2c-51,0-92.3,41.3-92.3,92.3v61.5C375.4,235.6,416.7,276.9,467.7,276.9z M498.5,104.6h24.6c27.2,0,49.2,22,49.2,49.2s-22,49.2-49.2,49.2h-24.6c-27.2,0-49.2-22-49.2-49.2C449.2,126.7,471.3,104.6,498.5,104.6C498.4,104.6,498.5,104.6,498.5,104.6z M209.2,350.8h-86.2c-51,0-92.3,41.3-92.3,92.3v61.5c0,51,41.3,92.3,92.3,92.3h86.2c51,0,92.3-41.3,92.3-92.3v-61.5C301.5,392.1,260.2,350.8,209.2,350.8z M178.5,523.1h-24.6c-27.2,0-49.2-22-49.3-49.2c0-27.2,22-49.2,49.2-49.3c0,0,0,0,0,0h24.6c27.2,0,49.2,22,49.3,49.2C227.7,501,205.7,523.1,178.5,523.1C178.5,523.1,178.5,523.1,178.5,523.1z M732.3,609.2H609.2v-43.4c57.7-20.4,87.9-83.7,67.5-141.4c-20.4-57.7-83.7-87.9-141.4-67.5c-57.7,20.4-87.9,83.7-67.5,141.4c11.2,31.5,36,56.4,67.5,67.5v43.4H412.3c-20.3-0.1-36.8,16.3-36.9,36.6c0,0.1,0,0.2,0,0.3v86.5c0.1,20.3,16.6,36.7,36.9,36.6c0,0,0,0,0,0l0,0c20.3-0.1,36.7-16.6,36.6-36.9c0,0,0,0,0,0v-49.2h86.2v49.5c0.1,20.3,16.6,36.7,36.9,36.6c0.1,0,0.2,0,0.3,0l0,0c20.3-0.1,36.7-16.6,36.6-36.9c0,0,0,0,0,0v-49.2h86.2v49.5c0.1,20.3,16.6,36.7,36.9,36.6c0.1,0,0.2,0,0.3,0l0,0c20.3,0.1,36.8-16.3,36.9-36.6c0-0.1,0-0.2,0-0.3v-86.2c0.1-20.3-16.3-36.8-36.6-36.9C732.5,609.2,732.4,609.2,732.3,609.2z M572.3,424.6L572.3,424.6c20.4,0,36.9,16.5,36.9,36.9c0,20.4-16.5,36.9-36.9,36.9c-20.4,0-36.9-16.5-36.9-36.9l0,0c-0.1-20.3,16.3-36.8,36.6-36.9c0.2,0,0.4,0,0.6,0L572.3,424.6z"/>
</svg>