<?xml version="1.0" encoding="utf-8"?>
<svg version="1.1" xmlns="http://www.w3.org/2000/svg" viewBox="0 0 175 196" fill-rule="evenodd">
	<path fill="white" d="M103.8,2.2c17.9,4.8,30.9,16.3,36.6,34.7c0.3,0.9,0.4,1.9,0.6,2.9c0.5,2.3,0.9,4.4,4,5c4.2,0.9,6.7,4.5,6.7,8.7c0.1,8.3,0.1,16.5,0,24.8c0,4.2-2.4,7.5-6.4,8.6c-2.9,0.8-3.9,2.1-3.6,5c0.1,1.5-0.4,3.2-0.6,4.7c-0.3,2.2,0.1,4,1.9,5.7c2.9,2.7,3.5,7.2,1.9,10.3c-2.3,4.4-5.4,6.2-10.7,5.5c-4-0.5-6.2-3.4-7.5-6.9c-1.3-3.9,1.4-9,5.6-11.3c1.1-0.6,2.3-2.1,2.4-3.4c0.5-6.7,0.7-13.6,0.8-20.4c0.1-9,0-18.1,0-27.1c0-16.2-8.5-27.3-21.7-35.2C106.5,9.2,98.2,7,89.7,6.8C77.9,6.4,67,9.6,57.2,16.6C49.6,22.1,44,29.2,41.5,38.4c-0.7,2.6-1.3,5.3-1.3,8c-0.1,11.9-0.1,23.9,0,35.8c0,3.7-1.9,5-5,5.1c-4.9,0.3-11.1-2-11.2-10.1c0-8,0-16,0-24c0-4.2,2.5-7.8,6.7-8.7c2.9-0.6,3.5-2.4,4-4.6c3.8-17.5,14.7-29.1,31-35.3C72.6,2,79.6-0.2,89.3,0C97.8,0.3,99.2,0.9,103.8,2.2z M123.9,53c0,1.9,0,3.7,0,5.6c0,2.5-0.8,5.2,2.5,6.6c0.7,0.3,1.1,1.9,1.2,2.9c0.9,9.9-1.7,18.7-8.5,26.2c-1.6,1.8-2.5,4.3-3.4,6.7c-4.2,11.2-11.8,18.8-23.6,21.4c-7.5,1.7-14.4-0.8-20.6-5.1c-6.8-4.7-10.3-11.7-13.6-19.1c-1.1-2.5-2.7-4.8-4.4-7c-5.1-6.8-6.7-14.4-6-22.6c0.1-1.1,0.5-2.9,1.2-3.2c3.2-1.3,2.3-3.9,2.5-6.2c0.5-7.1,0-14.4,1.7-21.2c3.2-12.5,12.3-19.6,25-21.9c9-1.6,18-1.4,26.7,2.1c10.2,4.2,16.2,12,18.6,22.6C124,44.7,123.5,48.9,123.9,53C123.7,52.9,124,53,123.9,53z M87.6,179.9c-3-5.7-5.7-10.7-8-15.8c-0.7-1.5-0.1-3.8,0.3-5.6c1.9-8.7,1.9-8.4,10.3-8.7c3.8-0.1,3.7,2.3,4.6,4.6C98.9,164.3,92,171.1,87.6,179.9z M87.6,146.8c-5.8,0-5.9,0-7.2-5.7c-2.2-9.4-2.7-8.6,6.6-8.5c2.1,0,4.2,0.1,6.3,0c2.7-0.2,3.3,1.2,2.9,3.4c-0.3,1.7-0.7,3.3-1.1,4.9C93.5,146.8,93.5,146.8,87.6,146.8z M174.4,174c-1.9-5.2-2.7-10.9-4.6-16.2c-3.4-9.4-9-17.5-18-22.1c-11.1-6.1-22.9-11-35-16.5c-0.2,1.5-0.5,3-0.8,4.5c-0.4,1.5-0.8,3-1.1,4.5c-0.4,2.5-0.9,4.9-1.5,7.3c-0.1,0.2-0.1,0.4-0.2,0.7c0,0.1-0.1,0.2-0.1,0.4c-2.2,8.4-4.9,16.4-8.5,24.1c-3.6,7.7-8,15-13.3,22c-0.3,0.4-0.6,0.8-0.9,1.1c-1.1,1.2-2,1.8-2.9,1.8s-1.9-0.6-2.9-1.8c-0.3-0.3-0.6-0.7-0.9-1.1c-5.2-7-9.6-14.4-13.3-22c-3.6-7.7-6.3-15.7-8.5-24.1c0-0.1-0.1-0.2-0.1-0.4c-0.1-0.2-0.1-0.4-0.2-0.7c-0.6-2.4-1.1-4.8-1.5-7.3c-0.3-1.5-0.6-3-1.1-4.5c-0.3-1.5-0.5-3-0.8-4.5c-6.6,3-13,5.8-19.4,8.7c-5.5,2.4-15.5,7.7-15.7,7.8c-8.9,4.6-14.6,12.7-18,22.1c-1.9,5.3-2.7,11-4.6,16.2c-1.7,4.6,0.5,11,5.6,12.5c3.9,1.1,7.8,2.3,11.8,2.9c9.4,1.5,18.9,2.7,28.3,3.8c3.5,0.7,6.6,1.2,9.4,1.4l0,0h0.1c2,0.2,3.9,0.2,5.8,0.2c11.9,0.5,24,1.2,36,1.2c10.2-0.1,20.5-1.7,30.7-2.8c9.4-1.1,18.9-2.3,28.3-3.8c4-0.6,7.9-1.8,11.8-2.9C173.9,185.1,176.1,178.6,174.4,174z"/>
</svg>