<?xml version="1.0" encoding="utf-8"?>
<svg version="1.1" xmlns="http://www.w3.org/2000/svg" viewBox="0 0 86 91" fill-rule="evenodd">
	<path fill="white" d="M32.9,54.8V53c-0.4,0-0.8,0-1.2,0c-5.4,0-10.3-2.1-13.9-5.6c3.1-3.6,5-8.2,5-13.4l0-13.9C22.8,9,31.9,0,43,0s20.2,9,20.2,20.2l0,13.9c0,5.1,1.9,9.8,5,13.4c-3.6,3.5-8.5,5.6-13.9,5.6c-0.4,0-0.8,0-1.2,0v1.8L43,90C43,90,32.9,54.8,32.9,54.8z M43.5,91h39.3l0,0c1.7,0,3.1-1.4,3.2-3.1v0v0v0l0-0.4c0-11.8-7.7-21.7-18.3-25.1l0,0c-2.9-0.8-5.7-1.9-8.3-3.4l-1.5,15.6l-4.8-0.8L43.5,91z M42.5,91H3.2l0,0c-1.7,0-3.1-1.4-3.2-3.1v0v0v0l0-0.4c0-11.8,7.7-21.7,18.3-25.1l0,0c2.9-0.8,5.7-1.9,8.3-3.4l1.5,15.6l4.8-0.8L42.5,91z"/>
</svg>
