<?xml version="1.0" encoding="utf-8"?>
<!-- Generator: Adobe Illustrator 26.4.1, SVG Export Plug-In . SVG Version: 6.00 Build 0)  -->
<svg version="1.1" id="Слой_1" xmlns="http://www.w3.org/2000/svg" xmlns:xlink="http://www.w3.org/1999/xlink" x="0px" y="0px"
	 viewBox="0 0 512 491.6" style="enable-background:new 0 0 512 491.6;" xml:space="preserve">
<style type="text/css">
	.st0{fill-rule:evenodd;clip-rule:evenodd;fill:#FFFFFF;}
	.st1{display:none;fill-rule:evenodd;clip-rule:evenodd;}
</style>
<path class="st0" d="M208.4,314.7c7.8,37.4,28.7,96.8,48.2,141.2c20.1-45.8,42.7-107.6,50-144.8l2.1-19.3l0.6-16
	c27-1.6,50.1-4.2,62.9-7.6c16.6-4.4,30.4-11,39.9-21c-14.9-7.8-24.4-21.2-29.8-38.6c-12.7-40.6-0.7-68.2-6.3-112.3
	c-7.6-59-42.9-78.7-77.9-74.7C253.5-18.5,173.3,4.9,151.7,73.5c-10.9,34.6-4.3,45.6-5.5,80.7c-1.6,47.2-12.8,78.8-37.2,88.8
	c8.4,11,20.5,19.4,36.5,25.1c11.9,4.2,34,6.8,60.2,8.2l0.3,15.3L208.4,314.7L208.4,314.7z"/>
<path class="st0" d="M155.8,322c-14,4.6-30.5,9.1-47.3,13.8C23,359.4-3.1,394.6,0.3,490.6H256l-77.6-90.9l-72.1,25L155.8,322
	L155.8,322z"/>
<path class="st0" d="M256,490.6h255.7c3.3-93.7-21.4-131.5-105.7-154.9c-18.1-5-36-9.9-50.6-14.9l50.3,103.9l-72.1-25L256,490.6z"/>
<path class="st1" d="M172.5,194.2c0,0,1.7,22.7,6.8,41.5c4.5,17.6,34.1,58,70.5,59.1c2.3,0,10.2,0,11.9,0
	c37-0.6,66.5-41.5,71.6-59.1c5.1-18.8,6.8-41.5,6.8-41.5c5.7,1.7,13.6,1.1,16.5-5.7c3.4-9.1,10.2-55.7,3.4-60.8
	c-1.7-1.1-4-1.7-6.3-1.1c-1.1-53.4,10.8-81.9-33-98.9c-5.7-35.2-53.4-34.1-63.1-35.2c0,0-3.4,0-4,0C139-4.7,160,73.7,158.3,126
	c-2.3-0.6-4.5,0-6.3,1.1c-6.8,5.1,0,51.7,3.4,60.8C158.9,194.8,166.2,196,172.5,194.2z M256.1,463.1L256.1,463.1
	c12.5-18.8,24.4-43.8,34.1-68.2c-5.1-21-13.1-39.2-17.6-48.3c4-6.8,12.5-14.2,14.2-21c1.7-6.8-1.7-11.9-7.4-16.5
	c-2.3-1.7-6.3-2.8-8.5-1.1l-9.7,4.5c-2.8,1.1-6.8,1.1-9.7,0l-9.7-4.5c-2.8-1.1-6.3-0.6-8.5,1.1c-5.7,4.5-9.1,9.1-7.4,16.5
	c1.7,6.8,10.2,14.2,14.2,21c-4.5,9.1-12.5,27.3-17.6,48.3C232.2,419.9,243.6,444.4,256.1,463.1z M511.9,484.7L494.8,383
	c-3.4-13.6-17.1-29-30.1-33.5l-87.5-33.5c0,0-14.8-6.3-19.3-10.2L343,293.2c-4.5-4-10.8-4.5-10.8,2.3v0.6
	c3.4,23.3-38.1,145.5-76.2,187.6h-0.6c-38.1-42.1-79.6-164.3-76.2-187.6v-0.6c0-6.8-6.3-5.7-10.8-2.3l-14.8,12.5
	c-4.5,4-19.3,10.2-19.3,10.2l0,0l-86.4,33c-13.6,5.1-27.3,19.9-30.7,33.5L0.2,484.7l0,0c-1.7,10.2,5.7,18.8,16.5,18.8h478.1
	C505.6,503.5,513,495,511.9,484.7z"/>
</svg>
