<?xml version="1.0" encoding="utf-8"?>
<svg version="1.1" xmlns="http://www.w3.org/2000/svg" viewBox="0 0 162 196" fill-rule="evenodd">
	<path fill="white" d="M84.6,0c1.8,0.3,3.5,0.5,5.3,0.7c20.5,3.4,37.2,18.4,43,38.4c1.1,3.8,1.8,7.7,2,11.6c0,0.4,0.4,0.9,0.7,1.1c2.8,1.8,4.4,4.4,4.4,7.7c0,6,0,12,0,17.9c0,4-2.5,7.2-6.3,8.5c-0.4,0.1-0.8,0.5-1.1,0.8c-7.4,11.1-17.8,16.2-31.1,15.3c-2.4-0.2-4.8-0.9-7.2-1.5c-0.5-0.1-0.9-0.1-1.3,0.2c-2.5,1.8-5.6,1.8-8,0c-2.3-1.8-3.2-4.9-2.1-7.6c1.1-2.8,3.8-4.4,6.9-4.1c2.8,0.3,5.1,2.5,5.7,5.5c0.1,0.4,0.4,0.8,0.7,0.9c10.5,3.7,23.8-0.6,30.3-9.7c0-0.1,0-0.1,0.1-0.3c-0.2-0.1-0.4-0.3-0.6-0.4c-2.8-1.8-4.3-4.3-4.4-7.6c0-6,0-12,0-17.9c0-3.3,1.4-5.8,4.2-7.5c0.6-0.4,0.8-0.8,0.7-1.5c-0.9-11-5.2-20.6-12.9-28.5C104.5,12.8,93.2,8.2,80,8.3C58.8,8.6,40,24.5,36.2,45.5c-0.3,1.8-0.5,3.6-0.7,5.4c-0.1,0.5,0.1,0.8,0.5,1.1c2.8,1.8,4.3,4.4,4.4,7.7c0,5.9,0,11.8,0,17.7c0,4.8-3.5,8.6-8,9c-5.2,0.4-9.3-2.6-10.1-7.5c-0.1-0.5-0.1-1.1-0.1-1.7c0-5.8,0-11.6,0-17.3c0-3.5,1.5-6.1,4.4-8c0.3-0.2,0.6-0.7,0.6-1C28.8,26.2,46.2,6.1,70.4,1.1c2.1-0.4,4.2-0.6,6.3-0.9c0.3,0,0.6-0.1,1-0.2C80,0,82.3,0,84.6,0z M161.6,159.1c-0.4-5.6-1.1-11.2-2.9-16.5c-1.7-4.8-4.4-8.8-9.2-11c-3-1.4-6.1-2.1-9.3-2.8c-6.1-1.2-12.3-2.4-18.1-4.7c-4.6-1.8-8.9-4.3-13-7.2c-0.2-0.2-0.4-0.4-0.6-0.5c2.4-1,4.8-1.9,7.2-2.9c3.9-1.7,7.5-3.8,10.6-6.7c2.3-2.2,4.1-4.7,4.8-7.9c0.1-0.4,0.1-0.9,0.2-1.5c-2.7,2.5-5.5,4.6-8.6,6.2c-8.7,4.6-17.8,5.7-27.4,3.4c-0.4-0.1-1-0.1-1.5,0.1c-4.7,1.9-10.1,0.8-13.6-2.9c-3.5-3.7-4.3-9.2-2.1-13.7c2.2-4.6,7.1-7.4,12.2-6.8c4.2,0.5,7.4,2.6,9.5,6.4c0.4,0.7,0.8,1,1.6,1.1c6.3,0.8,12-0.8,17-4.7c0.1-0.1,0.3-0.2,0.5-0.3c-2.5-3.4-2.9-7.1-2.8-11c0.1-4.9,0.1-9.9,0-14.8c0-3.7,1-7,3.3-9.8c0.2-0.2,0.3-0.6,0.3-0.9c-3.1-13-9.7-23.4-22.2-29.2c-13.5-6.2-33-4.7-45.1,9c-5.1,5.8-8.2,12.6-9.9,20c-0.1,0.4,0.1,0.8,0.3,1.1c2.2,2.8,3.2,6,3.2,9.6c0,5.7,0,11.4,0,17.1c0,8.1-5.6,14.2-13.7,14.9c-0.6,0.1-0.9,0.3-1,0.9c-1.3,5,0.3,9.2,3.7,12.8c3.5,3.7,7.9,6.1,12.6,8.1c2,0.9,4.1,1.6,6.4,2.5c-2.7,1.6-5.1,3.3-7.7,4.7c-6.4,3.6-13.3,5.5-20.4,6.9c-3.3,0.7-6.7,1.4-10,2.3c-6,1.6-10,5.6-12.1,11.4c-1.6,4.3-2.5,8.9-2.9,13.4c-0.3,3.4-0.4,6.7-0.7,10.1c0,0.4-0.1,0.7-0.1,1.1c0,2.2,0,4.3,0,6.5c1.2,5.7,5.4,8.7,10.1,11.2c6.1,3.3,12.7,5.3,19.5,6.8c10.3,2.4,20.8,3.8,31.4,4.5c3.8,0.3,7.5,0.4,11.3,0.6c0.3,0,0.6,0.1,0.9,0.1c5.1,0,10.3,0,15.4,0c2.2-0.1,4.4-0.3,6.6-0.4c14.9-0.9,29.6-2.6,43.9-6.7c5.6-1.6,11.1-3.6,16-6.9c0.8-0.6,1.6-1.2,2.4-1.8c2.2-1.9,3.9-4.2,4.6-7.1c0-3,0-6,0-9C161.9,162.4,161.7,160.8,161.6,159.1z M127.9,151.1c-0.6,0-0.9,0-1.3,0c0,0,0,0,0,0c-7,0-14,0-21.1,0c0,0,0,0,0,0c-0.8,0-1.2,0.2-1.7,1c-7.2,11.4-14.4,22.7-21.6,34.1c-0.4,0.6-0.7,1.1-1.2,1.8c0,0,0,0,0,0c0,0,0,0,0,0c-2.8-4.5-5.6-8.9-8.4-13.3c-4.8-7.6-9.6-15.2-14.4-22.8c-0.4-0.6-0.8-0.8-1.4-0.8c-3.7,0-7.4,0-11.2,0c-3.7,0-7.5,0-11.4,0c7.2-11.9,14.2-23.7,21.4-35.6c0,0,0,0,0,0c0,0,0,0,0,0c8.5,23.5,16.9,36.7,25.4,60.3c8.5-23.5,16.9-36.7,25.4-60.3C113.6,127.4,120.7,139.1,127.9,151.1C127.9,151.1,127.9,151.1,127.9,151.1L127.9,151.1z"/>
</svg>