<?xml version="1.0" encoding="UTF-8"?>
<svg id="_Слой_2" data-name="Слой 2" xmlns="http://www.w3.org/2000/svg" viewBox="0 0 456.65 800">
  <defs>
    <style>
      .cls-1 {
        fill: #010101;
        stroke-width: 0px;
      }
    </style>
  </defs>
  <g id="_Слой_2-2" data-name=" Слой 2">
    <g id="_Слой_1-2" data-name=" Слой 1-2">
      <g>
        <path class="cls-1" d="M272.56,0c48.55,0,87.91,39.36,87.91,87.91s-39.36,87.91-87.91,87.91-87.91-39.36-87.91-87.91S224.01,0,272.56,0ZM456.31,392.98c-18.95-129.22-46.98-189.85-111.59-235.09-18.3,18.87-43.86,30.65-72.16,30.65s-54.8-12.26-73.17-31.76c-23.92,20.06-42.23,47.37-58.67,72.11-18.86,28.4-38.36,57.77-56.17,59.28-1.89.16-3.71.51-5.49.96-5.25-1.44-10.75-2.27-16.46-2.27-34.51,0-62.6,28.08-62.6,62.6,0,9.43,7.64,17.07,17.07,17.07s17.07-7.64,17.07-17.07c0-12.44,8.06-22.91,19.19-26.78.02.79.02,1.57.08,2.37,1.51,17.81,16.43,31.24,33.97,31.24.97,0,1.94-.03,2.93-.12.25-.02.49-.08.74-.1v426.85c0,9.44,7.64,17.07,17.07,17.07s17.07-7.64,17.07-17.07v-433.46c0-1.23-.12-2.44-.19-3.65,22.44-11.97,40.08-32.54,55.65-54.36v30.4s-47.67,259.01-39.06,307.26c0,0,3.69.98,10.19,2.5l-.73,21.27c-3.64,104.89-3.64,105.41-3.64,106.79,0,22.27,18.06,40.33,40.33,40.33s39.95-17.68,40.33-39.63c.12-4.5,2.13-62.35,3.6-104.7l.38-10.64c25.05,2.68,53.11,4.18,81.26,2.81l.26,7.83c1.47,42.35,3.49,100.21,3.61,104.7.39,21.96,18.3,39.63,40.33,39.63s40.33-18.06,40.33-40.33c0-1.38,0-1.9-3.64-106.79l-.66-19.07c4.23-1.46,8.43-2.99,12.49-4.7.53-35-39.06-296.95-45.42-302.84v-42.01c10.91,27.26,20.22,64.71,28.13,118.61,2.5,16.98,17.07,29.2,33.74,29.2,1.64,0,3.32-.13,4.99-.38,18.64-2.72,31.55-20.06,28.82-38.71h.02Z"/>
      </g>
    </g>
  </g>
</svg>