<?xml version="1.0" encoding="utf-8"?>
<svg version="1.1" xmlns="http://www.w3.org/2000/svg" viewBox="0 0 109 125" fill-rule="evenodd">
<path fill="white" d="M36.7,84.6C33,82.5,2.7,108.7,0,124.8v0.1h109l-0.1-0.1c-2.7-17.2-37.6-42.2-40.8-40.3
	C57.9,90.8,47.1,90.5,36.7,84.6L36.7,84.6z M98.5,67.3c-0.3-2.5-0.8-5-1.6-7.4c9.7-9,7.8-17-0.8-24.3c5.1-12.3,0.1-18.6-13-20
	C77.9,0.9,68.8-3.1,56.2,2.2c-3.3,1.3-1.9,1.4-5.1,0c-10.6-4.6-18.6-1.9-24,8.1c-3.2,5.8-0.6,3.8-6.9,5.9C9.9,19.8,7.4,26.3,13,36
	c-7.8,7-10.8,14.7-1.1,23.9c-4.4,15.9,2,19.8,8.2,19.7c7.8-0.1,11.5-4.4,10.9-12.1c-0.3-3.5-1.7-6.7-4.8-8.4
	c-5.3-2.9-4.4,0.3-1.3-6.4c0.9-1.5,1-3.5,0.4-5.1c-3.3-7.5-4.8-4.7,2-11.3c1.5-1.3,2.7-3.1,3.4-5c1-3.1-0.3-6.1,5-4.5
	c7.1,2.2,11.7-1,16.2-4.7c3-2.4,2.4-3.2,5.7,0.3c2.3,2.5,5.5,4.2,9,4.6c7.5,1,11.8-4.4,17.4,2.9c6.2,8.1,0.3,10.7-0.1,17.3
	c-0.2,2.8,0.6,5.9,2.6,9.4c-7.2,2.8-10.5,12.4-7.6,18c2,4.1,7.4,5.4,12,4.4C97.2,77.7,99.1,73.4,98.5,67.3z M61.6,91.9
	c-4.6,1.5-9.5,1.5-14,0l-7,27.5h27.8L61.6,91.9z M54.5,30.6c1.6,0,9.6,0.2,16,6.5c6.8,6.6,6.9,15,6.9,16.4c0,1.5-0.2,10-7.1,16.6
	c-6.4,6.1-14.1,6.3-15.8,6.3C53,76.4,44,76,37.4,68.5c-5.4-6.1-5.7-13-5.8-15c0-1.7,0.2-9.3,6.2-15.7C44.4,30.8,53.1,30.7,54.5,30.6
	z"/>
</svg>
