<?xml version="1.0" encoding="utf-8"?>
<svg version="1.1" xmlns="http://www.w3.org/2000/svg" viewBox="0 0 109 125" fill-rule="evenodd">
  <path fill="white" d="M35.7,83.6c-3.7-2.1-21.8,2.7-25.9,5.9C1.3,95.9,1.7,107.7-1,123.8v0.1h109l-0.1-0.1
	c-2.7-17.2-2.1-29.5-12.6-35.6c-3.7-2.1-25-6.6-28.2-4.7C56.9,89.8,46.1,89.5,35.7,83.6L35.7,83.6z M97.5,66.3
	c-0.3-2.5-0.8-5-1.6-7.4c9.7-9,7.8-17-0.8-24.3c5.1-12.3,0.1-18.6-13-20C76.9-0.1,67.8-4.1,55.2,1.2c-3.3,1.3-1.9,1.4-5.1,0
	c-10.6-4.6-18.6-1.9-24,8.1c-3.2,5.8-0.6,3.8-6.9,5.9C8.9,18.8,6.4,25.3,12,35c-7.8,7-10.8,14.7-1.1,23.9c-4.4,15.9,2,19.8,8.2,19.7
	c7.8-0.1,11.5-4.4,10.9-12.1c-0.3-3.5-1.7-6.7-4.8-8.4c-5.3-2.9-4.4,0.3-1.3-6.4c0.9-1.5,1-3.5,0.4-5.1c-3.3-7.5-4.8-4.7,2-11.3
	c1.5-1.3,2.7-3.1,3.4-5c1-3.1-0.3-6.1,5-4.5c7.1,2.2,11.7-1,16.2-4.7c3-2.4,2.4-3.2,5.7,0.3c2.3,2.5,5.5,4.2,9,4.6
	c7.5,1,11.8-4.4,17.4,2.9c6.2,8.1,0.3,10.7-0.1,17.3c-0.2,2.8,0.6,5.9,2.6,9.4c-7.2,2.8-10.5,12.4-7.6,18c2,4.1,7.4,5.4,12,4.4
	C96.2,76.7,98.1,72.4,97.5,66.3z M60.6,90.9c-4.6,1.5-9.5,1.5-14,0l-7,27.5h27.8L60.6,90.9z M53.5,29.6c1.6,0,9.6,0.2,16,6.5
	c6.8,6.6,6.9,15,6.9,16.4c0,1.5-0.2,10-7.1,16.6c-6.4,6.1-14.1,6.3-15.8,6.3c-1.5,0-10.5-0.4-17.1-7.9c-5.4-6.1-5.7-13-5.8-15
	c0-1.7,0.2-9.3,6.2-15.7C43.4,29.8,52.1,29.7,53.5,29.6z"/>
</svg>
