<?xml version="1.0" encoding="utf-8"?>
<svg version="1.1" xmlns="http://www.w3.org/2000/svg" viewBox="0 0 800 880">
	<path fill="white" d="M115.5,528.8c4.5,9.9,14.4,15.8,24.6,15.8c3.8,0,7.4-0.8,11-2.3l0.2-0.1l64.2-32.4v234c0,10.2,6.9,18.7,20.4,25.6c10,5,24.2,9.4,42.2,12.9c32.2,6.3,75.5,9.8,121.9,9.8s89.7-3.4,122-9.8c17.9-3.5,32.1-7.8,42.2-12.9c13.5-6.8,20.4-15.4,20.4-25.6v-234l63.9,32.3l0.4,0.2c6.6,3,13.8,3.2,20.6,0.6s12.1-7.6,15-14.1l33.2-73.8c3-6.6,3.2-13.8,0.6-20.6c-2.6-6.7-7.6-12.1-14.1-15L529.6,340c-5.2-2.3-28.6-6.2-42.2-7.2c1.1,2.2,1.8,4.6,2.2,7.2l4.2,36.5L689,470.4l-11.3,25.3l-124.2-59.8c-7.2-3.4-15.5,1.8-15.5,9.8v312.6c-5.5,1.6-12.1,3.2-19.8,4.7c-5.5,1.1-11.4,2.1-17.6,3c0,0-0.9-327.8-1.6-329.5c-1,3.4-2.6,6.6-5.1,9.3c-4.6,5.1-11,8-17.8,8c-1.8,0-3.5-0.2-5.3-0.6l-10.4-2.3v319.5c-12.8,1-26.3,1.6-40.3,1.9V441.8l-20.1-4.5l-20.1,4.5v330.4c-13.5-0.3-26.6-0.9-39.2-1.8V450.6l-11.5,2.6c-1.7,0.4-3.5,0.6-5.3,0.6c-6.8,0-13.4-3-17.8-8c-2.3-2.6-4.1-5.8-5-9.1c-0.8,1.7-0.6,329.6-0.6,329.6c-6.6-1-12.8-2-18.6-3.1c-7.3-1.4-13.4-3-18.7-4.4v-313c0-8-8.3-13.3-15.5-9.8l-125.2,60.2L111,470.8L306,377l4.3-37c0.3-2.6,1-5,2.2-7.2c-13.7,1-37,4.8-42.2,7.2L95.8,419.2c-6.6,3-11.5,8.3-14.1,15c-2.6,6.7-2.3,14,0.6,20.6L115.5,528.8z M323.9,437.4c0.6,0,1.1-0.1,1.7-0.2l15.1-3.4l39.2-8.8l18.5-4.1c0.6-0.2,1.1-0.2,1.6-0.2c0.6,0,1.1,0.1,1.6,0.2L420,425l40.3,9l14,3.1c0.6,0.2,1.1,0.2,1.7,0.2c4.4,0,8-3.8,7.5-8.5l-2.2-18.2l-6.9-58.6l-1.2-10.2c-0.2-1.4-0.9-2.6-1.8-3.4c-1-1-2.6-1.6-4-1.6c-1.4,0-2.8,0.6-4,1.6l-58.4,57.2c-1.5,1.4-3.4,2.2-5.3,2.2s-3.8-0.7-5.3-2.2l-58.4-57.2c-1.2-1.1-2.6-1.6-4-1.6c-1.7,0-3.4,0.8-4.5,2.1c-0.6,0.8-1.1,1.8-1.3,3l-1.2,10.2l-7,59.4l-2,17.4C315.9,433.5,319.5,437.4,323.9,437.4z M428.1,133.2l-19.7-39.9c-3.2-6.9-13.4-7.2-17,0l-19.7,39.9l-43.6,6.3c-7.7,1.2-11.1,10.8-5.3,16.5l31.7,30.9l-7.5,43.5c-1.2,7.8,6.8,13.8,14,10.2l39.1-20.7l38.8,20.4c7.2,3.6,15.2-2.4,14-10.2l-7.5-43.5l31.7-30.6c5.7-5.7,2.4-15.3-5.3-16.5L428.1,133.2C428.2,133.2,428.1,133.2,428.1,133.2z M208.1,179.6l-19.7-39.9c-3.2-6.9-13.4-7.2-17,0l-19.7,39.9l-43.6,6.3c-7.7,1.2-11.1,10.8-5.3,16.5l31.7,30.9l-7.5,43.5c-1.2,7.8,6.8,13.8,14,10.2l39.1-20.7l38.8,20.4c7.2,3.6,15.2-2.4,14-10.2l-7.5-43.5l31.7-30.6c5.7-5.7,2.4-15.3-5.3-16.5L208.1,179.6C208.2,179.6,208.1,179.6,208.1,179.6z M648.1,179.6l-19.7-39.9c-3.2-6.9-13.4-7.2-17,0l-19.7,39.9l-43.6,6.3c-7.7,1.2-11.1,10.8-5.3,16.5l31.7,30.9l-7.5,43.5c-1.2,7.8,6.8,13.8,14,10.2l39.1-20.7l38.8,20.4c7.2,3.6,15.2-2.4,14-10.2l-7.5-43.5l31.7-30.6c5.7-5.7,2.4-15.3-5.3-16.5L648.1,179.6C648.2,179.6,648.1,179.6,648.1,179.6z"/>
</svg>
