<?xml version="1.0" encoding="utf-8"?>
<svg version="1.1" xmlns="http://www.w3.org/2000/svg" viewBox="0 0 800 880">
<path fill="white" d="M44.4,551c5.6,12.4,18,19.7,30.8,19.7c4.7,0,9.3-1,13.8-2.9l0.2-0.1l80.2-40.5v292.5c0,12.7,8.6,23.4,25.5,32c12.5,6.3,30.2,11.7,52.7,16.1c40.2,7.9,94.4,12.2,152.4,12.2s112.2-4.3,152.5-12.2c22.4-4.4,40.1-9.8,52.7-16.1c16.9-8.5,25.5-19.3,25.5-32V527.2l79.9,40.4l0.5,0.2c8.2,3.7,17.3,4,25.7,0.8c8.4-3.2,15.1-9.5,18.8-17.6l41.5-92.3c3.7-8.2,4-17.3,0.8-25.7s-9.5-15.1-17.6-18.8L561.9,315c-6.5-2.9-35.8-7.8-52.8-9c1.4,2.8,2.3,5.8,2.7,9l5.3,45.6L761.2,478l-14.1,31.6l-155.3-74.8c-9-4.3-19.4,2.2-19.4,12.2v390.8c-6.9,2-15.1,4-24.8,5.9c-6.9,1.4-14.3,2.6-22,3.8c0,0-1.1-409.7-2-411.9c-1.2,4.2-3.3,8.2-6.4,11.6c-5.7,6.4-13.8,10-22.3,10c-2.2,0-4.4-0.2-6.6-0.7l-13-2.9V853c-16,1.2-32.9,2-50.4,2.4V442.2l-25.1-5.6l-25.1,5.6v413c-16.9-0.4-33.3-1.1-49-2.3V453.2l-14.4,3.3c-2.1,0.5-4.4,0.7-6.6,0.7c-8.5,0-16.7-3.7-22.3-10c-2.9-3.3-5.1-7.3-6.3-11.4c-1,2.1-0.7,412-0.7,412c-8.2-1.2-16-2.5-23.3-3.9c-9.1-1.8-16.8-3.7-23.4-5.5V447.1c0-10-10.4-16.6-19.4-12.2L53,510.1l-14.2-31.6l243.7-117.2l5.4-46.3c0.4-3.2,1.3-6.3,2.7-9c-17.1,1.2-46.3,6-52.8,9l-218,99c-8.2,3.7-14.4,10.4-17.6,18.8s-2.9,17.5,0.8,25.7L44.4,551z M304.9,436.7c0.7,0,1.4-0.1,2.1-0.2l18.9-4.2l49-11l23.1-5.1c0.7-0.2,1.4-0.2,2-0.2c0.7,0,1.4,0.1,2,0.2l23.1,5.1l50.4,11.3l17.5,3.9c0.7,0.2,1.4,0.2,2.1,0.2c5.5,0,10-4.8,9.4-10.6l-2.7-22.8l-8.6-73.3l-1.5-12.8c-0.2-1.8-1.1-3.3-2.2-4.3c-1.3-1.3-3.2-2-5-2c-1.7,0-3.5,0.7-5,2l-73,71.5c-1.9,1.8-4.2,2.7-6.6,2.7c-2.4,0-4.8-0.9-6.6-2.7l-73-71.5c-1.5-1.4-3.2-2-5-2c-2.1,0-4.2,1-5.6,2.6c-0.8,1-1.4,2.3-1.6,3.8l-1.5,12.8l-8.7,74.3l-2.5,21.7C294.9,431.9,299.4,436.7,304.9,436.7z M435.1,56.5L410.5,6.6c-4.1-8.7-16.8-9-21.2,0l-24.6,49.9l-54.5,7.8c-9.7,1.5-13.9,13.5-6.7,20.7l39.6,38.6l-9.4,54.4c-1.5,9.7,8.5,17.2,17.5,12.7l48.9-25.9l48.5,25.5c9,4.5,19.1-3,17.5-12.7l-9.4-54.4L496.3,85c7.1-7.1,3-19.1-6.7-20.7L435.1,56.5C435.2,56.5,435.1,56.5,435.1,56.5z M160.2,114.5l-24.6-49.9c-4.1-8.7-16.8-9-21.2,0l-24.6,49.9l-54.5,7.8c-9.7,1.5-13.9,13.5-6.7,20.7l39.6,38.6L58.8,236c-1.5,9.7,8.5,17.2,17.5,12.7l48.9-25.9l48.5,25.5c9,4.5,19.1-3,17.5-12.7l-9.4-54.4l39.6-38.2c7.1-7.1,3-19.1-6.7-20.7L160.2,114.5C160.3,114.5,160.2,114.5,160.2,114.5z M710.1,114.5l-24.6-49.9c-4.1-8.7-16.8-9-21.2,0l-24.6,49.9l-54.5,7.8c-9.7,1.5-13.9,13.5-6.7,20.7l39.6,38.6l-9.4,54.4c-1.5,9.7,8.5,17.2,17.5,12.7l48.9-25.9l48.5,25.5c9,4.5,19.1-3,17.5-12.7l-9.4-54.4l39.6-38.2c7.1-7.1,3-19.1-6.7-20.7L710.1,114.5C710.2,114.5,710.1,114.5,710.1,114.5z"/>
</svg>