<?xml version="1.0" encoding="UTF-8"?>
<svg id="_Слой_2" data-name="Слой 2" xmlns="http://www.w3.org/2000/svg" viewBox="0 0 83.95 95.26">
  <defs>
    <style>
      .cls-1 {
        fill: #fff;
      }
    </style>
  </defs>
  <g id="_Слой_1-2" data-name="Слой 1">
    <path class="cls-1" d="m73.89,14.35h-6.41l-.76-5.59c-.36-2.68-1.74-5.05-3.88-6.68-2.14-1.64-4.8-2.33-7.47-1.98L8.77,6.35c-2.68.35-5.06,1.73-6.7,3.88C.44,12.36-.26,15.03.09,17.69l8.07,60.17c.61,4.56,4.23,8.07,8.68,8.65.67,4.93,4.89,8.74,9.98,8.74h47.03c5.56,0,10.09-4.53,10.09-10.09V24.44c.03-5.56-4.5-10.09-10.06-10.09h0Zm-57.14,10.09v59.15c-2.95-.59-5.32-3.02-5.73-6.11L2.95,17.32c-.26-1.91.24-3.82,1.41-5.35s2.86-2.52,4.77-2.77L55.75,2.95c.32-.05.65-.06.97-.06,1.57,0,3.09.52,4.36,1.48,1.53,1.17,2.52,2.86,2.77,4.77l.7,5.2H26.86c-5.57,0-10.1,4.53-10.1,10.09h0Zm64.35,60.73c0,3.97-3.24,7.21-7.21,7.21H26.86c-3.97,0-7.2-3.23-7.21-7.2V24.44c0-3.97,3.24-7.21,7.21-7.21h47.03c3.97,0,7.21,3.24,7.21,7.21v60.73Z"/>
    <path class="cls-1" d="m50.36,55.8c.76,0,1.52-.05,2.24-.15,5.17-.7,9.77-3.8,12.33-8.44,1.38-2.47,2.11-5.27,2.11-8.11,0-9.2-7.48-16.68-16.69-16.68s-16.68,7.48-16.68,16.68c0,2.86.73,5.67,2.11,8.11,2.96,5.3,8.55,8.59,14.59,8.59h0Zm11.32-8.84c-.15.23-.32.45-.48.67-.2.26-.43.5-.64.74-.18.2-.36.39-.55.59-.23.23-.48.44-.73.65-.2.17-.41.35-.61.5-.26.2-.55.38-.82.56-.21.14-.44.29-.67.43-.29.17-.59.3-.89.45-.23.11-.45.23-.68.32-.33.14-.67.24-1,.35-.23.07-.45.17-.68.23-.38.11-.77.17-1.15.24-.2.03-.39.09-.59.12-.59.07-1.2.12-1.8.12s-1.21-.05-1.8-.12c-.2-.03-.38-.07-.57-.11-.39-.07-.79-.14-1.17-.24-.23-.06-.44-.15-.67-.21-.35-.11-.68-.21-1.02-.35-.23-.09-.44-.21-.67-.32-.32-.15-.62-.3-.93-.47-.21-.12-.43-.26-.64-.39-.29-.18-.57-.36-.85-.57-.2-.15-.39-.32-.59-.48-.26-.21-.52-.44-.76-.68-.18-.18-.35-.38-.53-.56-.23-.24-.45-.5-.65-.77-.17-.21-.32-.43-.47-.65-.11-.15-.21-.32-.32-.48,2.52-3.95,6.89-6.38,11.62-6.38s9.11,2.43,11.64,6.38c-.13.14-.22.3-.34.45h0Zm-14.06-12.5c0-1.52,1.24-2.76,2.76-2.76s2.76,1.24,2.76,2.76-1.24,2.76-2.76,2.76-2.76-1.24-2.76-2.76Zm-10.29,9.09c-.48-1.43-.77-2.93-.77-4.45,0-7.61,6.2-13.81,13.81-13.81s13.82,6.2,13.82,13.81c0,1.52-.27,3.02-.77,4.45-2.2-2.76-5.18-4.76-8.55-5.7.71-.94,1.15-2.11,1.15-3.38,0-3.11-2.53-5.65-5.65-5.65s-5.65,2.53-5.65,5.65c0,1.27.44,2.44,1.15,3.38-3.34.92-6.33,2.92-8.53,5.7h0Z"/>
    <path class="cls-1" d="m73.68,84.15h-34.79c-.8,0-1.44.65-1.44,1.44s.65,1.44,1.44,1.44h34.79c.8,0,1.44-.65,1.44-1.44s-.64-1.44-1.44-1.44Z"/>
    <path class="cls-1" d="m31.79,84.15h-4.73c-.8,0-1.44.65-1.44,1.44s.65,1.44,1.44,1.44h4.73c.8,0,1.44-.65,1.44-1.44s-.64-1.44-1.44-1.44Z"/>
    <path class="cls-1" d="m73.68,76.18h-34.79c-.8,0-1.44.65-1.44,1.44s.65,1.44,1.44,1.44h34.79c.8,0,1.44-.65,1.44-1.44s-.64-1.44-1.44-1.44Z"/>
    <path class="cls-1" d="m31.79,76.18h-4.73c-.8,0-1.44.65-1.44,1.44s.65,1.44,1.44,1.44h4.73c.8,0,1.44-.65,1.44-1.44s-.64-1.44-1.44-1.44Z"/>
    <path class="cls-1" d="m73.68,68.2h-34.79c-.8,0-1.44.65-1.44,1.44s.65,1.44,1.44,1.44h34.79c.8,0,1.44-.65,1.44-1.44s-.64-1.44-1.44-1.44Z"/>
    <path class="cls-1" d="m31.79,68.2h-4.73c-.8,0-1.44.65-1.44,1.44s.65,1.44,1.44,1.44h4.73c.8,0,1.44-.65,1.44-1.44s-.64-1.44-1.44-1.44Z"/>
    <path class="cls-1" d="m73.68,60.21h-34.79c-.8,0-1.44.65-1.44,1.44s.65,1.44,1.44,1.44h34.79c.8,0,1.44-.65,1.44-1.44s-.64-1.44-1.44-1.44Z"/>
    <path class="cls-1" d="m31.79,60.21h-4.73c-.8,0-1.44.65-1.44,1.44s.65,1.44,1.44,1.44h4.73c.8,0,1.44-.65,1.44-1.44s-.64-1.44-1.44-1.44Z"/>
  </g>
</svg>