<?xml version="1.0" encoding="utf-8"?>
<svg version="1.1" xmlns="http://www.w3.org/2000/svg" viewBox="0 0 800 880">
<path fill="white" d="M435,56.5L410.4,6.6c-4.1-8.7-16.8-9-21.2,0l-24.6,49.9l-54.5,7.8c-9.7,1.5-13.9,13.5-6.7,20.7l39.6,38.6l-9.4,54.4c-1.5,9.7,8.5,17.2,17.5,12.7l48.9-25.9l48.5,25.5c9,4.5,19.1-3,17.5-12.7l-9.4-54.4L496.2,85c7.1-7.1,3-19.1-6.7-20.7L435,56.5C435.1,56.5,435,56.5,435,56.5z M160.2,114.5l-24.6-49.9c-4.1-8.7-16.8-9-21.2,0l-24.6,49.9l-54.5,7.8c-9.7,1.5-13.9,13.5-6.7,20.7l39.6,38.6L58.8,236c-1.5,9.7,8.5,17.2,17.5,12.7l48.9-25.9l48.5,25.5c9,4.5,19.1-3,17.5-12.7l-9.4-54.4l39.6-38.2c7.1-7.1,3-19.1-6.7-20.7L160.2,114.5C160.3,114.5,160.2,114.5,160.2,114.5z M710,114.5l-24.6-49.9c-4.1-8.7-16.8-9-21.2,0l-24.6,49.9l-54.5,7.8c-9.7,1.5-13.9,13.5-6.7,20.7l39.6,38.6l-9.4,54.4c-1.5,9.7,8.5,17.2,17.5,12.7l48.9-25.9l48.5,25.5c9,4.5,19.1-3,17.5-12.7l-9.4-54.4l39.6-38.2c7.1-7.1,3-19.1-6.7-20.7L710,114.5C710.1,114.5,710,114.5,710,114.5z M797,458.7L755.5,551c-3.7,8.1-10.4,14.4-18.8,17.6c-8.4,3.2-17.5,2.9-25.7-0.8l-0.5-0.2l-79.9-40.4v292.5c0,12.7-8.6,23.5-25.5,32c-12.6,6.3-30.3,11.7-52.7,16.1c-40.3,7.9-94.5,12.2-152.5,12.2s-112.2-4.3-152.4-12.2c-22.5-4.4-40.2-9.8-52.7-16.1c-16.9-8.6-25.5-19.3-25.5-32V527.2l-80.2,40.5l-0.2,0.1c-4.5,1.9-9.1,2.9-13.8,2.9c-12.8,0-25.2-7.3-30.8-19.7L3,458.5c-3.7-8.2-4-17.3-0.8-25.7c3.2-8.4,9.4-15.1,17.6-18.8l218-99c6.5-3,35.7-7.8,52.8-9L400,436c-55.6,0-100,44.4-100,100s44.4,100,100,100s100-44.4,100-100s-44.4-100-100-100l109-130c17,1.2,46.3,6.1,52.8,9l218.4,99.2c8.1,3.7,14.4,10.4,17.6,18.8C801,441.4,800.7,450.5,797,458.7z"/>
</svg>
