<?xml version="1.0" encoding="utf-8"?>
<svg version="1.1" xmlns="http://www.w3.org/2000/svg" viewBox="0 0 100 100">
  <path fill="white" d="M98.07,89.63c-2.85-6.52-16.74-10.84-25.98-14.89-9.11-4-8-6.44-8.29-9.73,4.92,.71,12.84,.13,16.89-9.4,0,0-8,4.36-8-1.83,0-4.25,7.6-12.32,7.6-26.07S68.13,0,50.17,0,20.64,14.74,20.64,29.29s10.65,23.9,5.32,26.78c0,0-3.16,1.86-6.65-.85,0,0,4.21,10.92,17.22,9.4,0,.08-.01,.17-.02,.25-.33,3.36,.64,5.82-8.59,9.87-9.23,4.05-23.13,8.37-25.98,14.89-2.85,6.52-1.71,10.36-1.71,10.36H99.77s1.15-3.84-1.7-10.37Z"/>
</svg>
