<?xml version="1.0" encoding="utf-8"?>
<svg version="1.1" xmlns="http://www.w3.org/2000/svg" viewBox="0 0 800 880">
<path fill="white" d="M428,133.2l-19.7-39.9c-3.3-7-13.4-7.2-17,0l-19.7,39.9l-43.6,6.2c-7.8,1.2-11.1,10.8-5.4,16.6l31.7,30.9l-7.5,43.5c-1.2,7.8,6.8,13.8,14,10.2l39.1-20.7l38.8,20.4c7.2,3.6,15.3-2.4,14-10.2l-7.5-43.5L477,156c5.7-5.7,2.4-15.3-5.4-16.6L428,133.2C428.1,133.2,428,133.2,428,133.2z M208.2,179.6l-19.7-39.9c-3.3-7-13.4-7.2-17,0l-19.7,39.9l-43.6,6.2c-7.8,1.2-11.1,10.8-5.4,16.6l31.7,30.9l-7.5,43.5c-1.2,7.8,6.8,13.8,14,10.2l39.1-20.7l38.8,20.4c7.2,3.6,15.3-2.4,14-10.2l-7.5-43.5l31.7-30.6c5.7-5.7,2.4-15.3-5.4-16.6L208.2,179.6C208.2,179.6,208.2,179.6,208.2,179.6z M648,179.6l-19.7-39.9c-3.3-7-13.4-7.2-17,0l-19.7,39.9l-43.6,6.2c-7.8,1.2-11.1,10.8-5.4,16.6l31.7,30.9l-7.5,43.5c-1.2,7.8,6.8,13.8,14,10.2l39.1-20.7l38.8,20.4c7.2,3.6,15.3-2.4,14-10.2l-7.5-43.5l31.7-30.6c5.7-5.7,2.4-15.3-5.4-16.6L648,179.6C648.1,179.6,648,179.6,648,179.6z M717.6,455l-33.2,73.8c-3,6.5-8.3,11.5-15,14.1c-6.7,2.6-14,2.3-20.6-0.6l-0.4-0.2l-63.9-32.3v234c0,10.2-6.9,18.8-20.4,25.6c-10.1,5-24.2,9.4-42.2,12.9c-32.2,6.3-75.6,9.8-122,9.8s-89.8-3.4-121.9-9.8c-18-3.5-32.2-7.8-42.2-12.9c-13.5-6.9-20.4-15.4-20.4-25.6v-234l-64.2,32.4l-0.2,0.1c-3.6,1.5-7.3,2.3-11,2.3c-10.2,0-20.2-5.8-24.6-15.8l-33-74c-3-6.6-3.2-13.8-0.6-20.6c2.6-6.7,7.5-12.1,14.1-15L270.2,340c5.2-2.4,28.6-6.2,42.2-7.2l87.5,104c-44.5,0-80,35.5-80,80c0,44.5,35.5,80,80,80s80-35.5,80-80c0-44.5-35.5-80-80-80l87.2-104c13.6,1,37,4.9,42.2,7.2l174.7,79.4c6.5,3,11.5,8.3,14.1,15C720.8,441.1,720.6,448.4,717.6,455z"/>
</svg>
