<?xml version="1.0" encoding="utf-8"?>
<svg version="1.1" xmlns="http://www.w3.org/2000/svg" viewBox="0 0 100 100">
  <path fill="white" d="M98.07,89.61c-2.85-6.54-16.74-10.87-25.98-14.94-9.23-4.06-7.97-6.53-8.3-9.9-.04-.45-.07-.92-.09-1.41,2.77-2.71,5.04-6.22,6.56-10.23,0,0,.09-.22,.11-.29,.35-.96,.67-1.96,.94-2.98,2.12-.43,3.35-2.72,3.82-4.85,.48-.86,1.46-2.98,1.24-5.38-.28-2.95-1.43-4.39-2.76-5.03,.36-.87,.69-1.76,.96-2.65,1.37-4.54,.07-14.71-2.18-20.31-2.24-5.6-11.61-9.87-14.58-9.74-2.58,.11-3.51,1.28-4.66,2.11-.17-.85-.54-1.61-1.26-2.14-2.72-2.02-11.28-2.93-15.25,.17-3.97,3.1-4.91,4.78-7.96,9.22-3.06,4.45-4.06,15.35-3.75,17.68,.19,1.44,.76,3.73,1.42,5.69-1.31,.66-2.44,2.09-2.71,5.01-.23,2.4,.76,4.52,1.24,5.38,.48,2.16,1.75,4.5,3.93,4.87,.27,1.03,.59,2.03,.95,3,.02,.06,.05,.12,.07,.19l.03,.08c1.55,4.09,3.89,7.67,6.74,10.4-.02,.42-.05,.83-.08,1.22-.33,3.37,.64,5.84-8.59,9.9-9.24,4.06-23.13,8.39-25.98,14.94-2.85,6.54-1.71,10.39-1.71,10.39H99.77s1.15-3.85-1.7-10.39Z"/>
</svg>
