<?xml version="1.0" encoding="utf-8"?>
<!-- Generator: Adobe Illustrator 26.4.1, SVG Export Plug-In . SVG Version: 6.00 Build 0)  -->
<svg version="1.1" id="Слой_1" xmlns="http://www.w3.org/2000/svg" xmlns:xlink="http://www.w3.org/1999/xlink" x="0px" y="0px"
	 viewBox="0 0 93 106" style="enable-background:new 0 0 93 106;" xml:space="preserve">
<style type="text/css">
	.st0{display:none;}
</style>
<path class="st0" d="M72.7,49.2c-0.3,7.1-1.6,12.9-2.8,17.3c-1,3.3-4.5,15-14.1,27.3c-4.3,5.5-8.6,9.6-11.8,12.2
	c0.1-0.8,0.3-1.9,0.5-3.2c6.2-8.1,9.5-15.5,11.2-20.6c1.8-5.1,3.6-10.4,3.3-17.5c-0.4-15.2-9.8-25.5-12.2-28
	c-5.2-5.4-10.7-8.6-14.4-10.3c4.5-0.6,8.9-1.2,13.4-1.8c4,1.8,9.4,4.9,14.9,9.9C66.6,39.8,70.4,45.2,72.7,49.2z"/>
<path d="M56.2,84.1c-1.7,5-5.2,13.8-11.5,21.9c0.3-1.9,1.2-7,1.9-11.9c1.1-7.2,2.1-14,2.4-15.5c0.8-5.5,1.9-14.4,1.9-24.2
	c0-7.2-4.2-12.1-11.5-14c-7.5-2-15.1-3.7-22.6-6.1c-7.5-2.4-9.6-4.4-10.4-5.1C2,25.2,0.6,20,0.1,17c1.9,2.4,3.8,4.1,5.2,5.3
	c2.3,1.9,4.5,3.7,7.8,5c1.6,0.6,3.2,0.9,5.2,1.2c7.3,0.9,10.1,0,14.3-0.2c4.4,1.1,15,4.4,22.2,13.5c1.4,1.7,3.8,4.9,5.2,9.7
	c1.3,4.4,1,7.8,0.6,13C60,73,57.8,79.3,56.2,84.1z"/>
<path d="M92.7,2.3C88.5,10,81.3,17,77.1,23.7c-4.8,7.5-3.7,17-4.2,25.4C71.1,44.7,68,39,63.1,33.1c-3.4-4-6.8-7.1-9.8-9.4
	c8.5-2.6,18.9-6.9,29.5-14C86.5,7.3,89.8,4.8,92.7,2.3z"/>
<path d="M56.1,10.8C56,16,51,21,45.4,21s-10.5-5.1-10.3-11c0.1-5.5,5-10.1,10.7-10C51.3,0.2,56.2,5.4,56.1,10.8z"/>
<path d="M74.4,53.9c11.1,9.7,23.1,37.1,17,52.1c-2.7-10.8-8.8-22.9-13.8-30.5c-2.4-4.1-8.5-9-8.3-9.7C70.9,61.4,73.1,58.4,74.4,53.9
	z"/>
<circle cx="6" cy="14.9" r="6"/>
</svg>
