<?xml version="1.0" encoding="utf-8"?>
<!-- Generator: Adobe Illustrator 26.4.1, SVG Export Plug-In . SVG Version: 6.00 Build 0)  -->
<svg version="1.1" id="Слой_1" xmlns="http://www.w3.org/2000/svg" xmlns:xlink="http://www.w3.org/1999/xlink" x="0px" y="0px"
	 viewBox="0 0 93 106" style="enable-background:new 0 0 93 106;" xml:space="preserve">
<style type="text/css">
	.st0{display:none;fill:#3F3F3F;}
</style>
<path d="M56.2,84.1c-1.7,5-5.2,13.8-11.5,21.9c0.3-1.9,1.2-7,1.9-11.9c1.1-7.2,2.1-14,2.4-15.5c0.8-5.5,1.9-14.4,1.9-24.2c0-7.2-4.2-12.1-11.5-14c-7.5-2-15.1-3.7-22.6-6.1c-7.5-2.4-9.6-4.4-10.4-5.1C2,25.2,0.6,20,0.1,17c1.9,2.4,3.8,4.1,5.2,5.3c2.3,1.9,4.5,3.7,7.8,5c1.6,0.6,3.2,0.9,5.2,1.2c7.3,0.9,10.1,0,14.3-0.2c4.4,1.1,15,4.4,22.2,13.5c1.4,1.7,3.8,4.9,5.2,9.7c1.3,4.4,1,7.8,0.6,13C60,73,57.8,79.3,56.2,84.1zM92.7,2.3c-4.4,8.3-8.1,15.8-12.6,22.9c-5.1,8.1-6.3,16.9-6.8,25.8c-2.3-3.9-6.1-9.4-12.1-14.7c-5.5-4.9-11.1-8-15-9.9c10.3-2.8,23-7.7,35.9-16.3C85.9,7.7,89.6,5,92.7,2.3zM58.1,10.8C58,16,53,21,47.4,21s-10.5-5.1-10.3-11c0.1-5.5,5-10.1,10.7-10C53.3,0.2,58.2,5.4,58.1,10.8zM72.2,57.1c11.1,9.7,25.4,33.9,19.3,48.9C88.9,95.2,84,86.3,76.1,79c-0.6-0.5-9.2-9.3-9-10C68.8,64.6,70.9,61.6,72.2,57.1zM12,14.9c0,3.3-2.7,6-6,6s-6-2.7-6-6s2.7-6,6-6S12,11.6,12,14.9z"/>
</svg>
