<?xml version="1.0" encoding="utf-8"?>
<svg version="1.1" xmlns="http://www.w3.org/2000/svg" xmlns:xlink="http://www.w3.org/1999/xlink" x="0px" y="0px"
	 viewBox="0 0 800 800" fill="white" fill-rule="evenodd">
<path class="st0" d="M400.3,479.2H400c-105.4,0-191.2-85.8-191.2-191.2V128.7C208.8,58.4,266,1.2,336.3,1.2H464
	c70.3,0,127.5,57.2,127.5,127.5V288C591.5,393.4,505.7,479.2,400.3,479.2z M336.3,64.8c-35.2,0-63.8,28.6-63.8,63.8V288
	c0,70.3,57.2,127.5,127.5,127.5h0.3c70.3,0,127.5-57.2,127.5-127.5V128.7c0-35.2-28.6-63.8-63.8-63.8H336.3z"/>
<path class="st0" d="M456.3,255.9H343.7c-62.9,0-114.1-46.3-114.1-103.1V127h340.7v25.8C570.3,209.6,519.2,255.9,456.3,255.9z
	 M296.4,178.5c9.5,15.5,27.1,25.9,47.3,25.9h112.6c20.2,0,37.9-10.4,47.3-25.9H296.4z"/>
<path d="M502.4,497.3c-31.8-12.2-66.3-18.9-102.4-18.9c-36.1,0-70.6,6.7-102.4,18.9L400,620L502.4,497.3z"/>
<path d="M560.2,527.3L448.9,660.7c9.3,11.1,14.9,25.4,14.9,41v95.7h-63.7v-31.8c-0.1,0-0.1,0-0.2,0c-35.2,0-63.8-28.6-63.8-63.8
	c0-15.6,5.6-29.9,14.9-41L239.8,527.3C163.8,578.6,113.6,665.4,113,764c0,11.1,0,22.2,0,33.3c191.3,0.4,382.7,0.9,574,1.3
	c0-11.1,0-22.2,0-33.3C686.9,666.2,636.6,578.9,560.2,527.3z"/>
</svg>
