<?xml version="1.0" encoding="utf-8"?>
<svg version="1.1" xmlns="http://www.w3.org/2000/svg" viewBox="0 0 574 735">
<path fill="white" d="M574,701.7V735H0v-34.7C0.6,590.2,63.2,494.8,154.5,447L285.4,604c-16.9,0.9-30.4,14.8-30.4,32c0,17.7,14.3,32,32,32v64.7h32v-99.4h-0.1c-1.3-15.9-14.2-28.5-30.2-29.3L419.5,447C511.2,495,573.9,591,574,701.7z M418.7,446.6C418.7,446.7,418.8,446.7,418.7,446.6c-1.8-0.9-3.7-1.9-5.6-2.8c-0.7-0.4-1.4-0.7-2.2-1c-1.4-0.7-2.9-1.4-4.3-2c-0.9-0.4-1.7-0.8-2.6-1.2c-1.3-0.6-2.6-1.2-3.9-1.7c0.6,0.3,1.2,0.5,1.8,0.8c-0.6-0.3-1.2-0.5-1.9-0.8c-0.7-0.3-1.3-0.6-2-0.9c0.6,0.3,1.3,0.6,1.9,0.8c-0.9-0.4-1.8-0.8-2.7-1.2c-1.3-0.5-2.6-1.1-3.9-1.6c-1-0.4-1.9-0.8-2.9-1.1c-1.3-0.5-2.6-1-3.9-1.5c-0.8-0.3-1.5-0.6-2.3-0.8c0.4,0.1,0.7,0.3,1.1,0.4c-0.6-0.2-1.2-0.4-1.7-0.6c-0.5-0.2-1.1-0.4-1.6-0.6c0.4,0.1,0.7,0.3,1.1,0.4c-1.2-0.4-2.5-0.9-3.7-1.3c-0.5-0.2-1-0.3-1.5-0.5c0.2,0.1,0.5,0.2,0.7,0.2c-0.6-0.2-1.3-0.4-1.9-0.6c-0.2-0.1-0.5-0.2-0.7-0.2c0.1,0,0.2,0.1,0.4,0.1c-2.1-0.7-4.2-1.4-6.4-2c0,0,0,0,0,0c0,0,0,0,0,0c-22.3-6.7-45.7-10.9-69.9-12h146.1L419.5,447C419.2,446.9,419,446.8,418.7,446.6z M390.3,433.8c-0.8-0.3-1.5-0.6-2.3-0.9C388.8,433.2,389.5,433.5,390.3,433.8z M392,434.5c-0.3-0.1-0.6-0.2-0.9-0.4C391.4,434.2,391.7,434.3,392,434.5z M396.2,436.2c-0.7-0.3-1.5-0.6-2.2-0.9C394.7,435.6,395.4,435.9,396.2,436.2z M406.6,440.7c-0.7-0.3-1.3-0.6-2-0.9C405.2,440.1,405.9,440.4,406.6,440.7z M408,441.3c-0.2-0.1-0.3-0.2-0.5-0.2C407.6,441.2,407.8,441.3,408,441.3z M412.9,443.7c-0.1-0.1-0.2-0.1-0.3-0.2C412.7,443.6,412.8,443.6,412.9,443.7z M415.1,444.8c-0.6-0.3-1.3-0.6-1.9-1C413.8,444.1,414.4,444.5,415.1,444.8z M155.2,446.7c-0.2,0.1-0.5,0.2-0.7,0.4l-26.8-32.2h146.1c-26.5,1.2-52.1,6.1-76.3,14c0.2-0.1,0.3-0.1,0.5-0.2c-0.3,0.1-0.6,0.2-0.8,0.3c-0.6,0.2-1.1,0.4-1.7,0.6c0.2-0.1,0.4-0.2,0.7-0.2c-0.5,0.2-0.9,0.3-1.4,0.5c-1.4,0.5-2.7,0.9-4.1,1.4c0.4-0.2,0.9-0.3,1.3-0.5c-0.6,0.2-1.1,0.4-1.7,0.6c-0.5,0.2-1,0.4-1.5,0.6c0.4-0.1,0.8-0.3,1.1-0.4c-0.8,0.3-1.5,0.6-2.3,0.9c-1.4,0.5-2.7,1-4.1,1.5c-0.9,0.4-1.9,0.7-2.8,1.1c-1.3,0.5-2.7,1.1-4,1.6c-0.9,0.4-1.8,0.8-2.7,1.2c-1.3,0.6-2.7,1.2-4,1.8c-0.9,0.4-1.7,0.8-2.6,1.2c-1.5,0.7-2.9,1.4-4.4,2.1c-0.7,0.3-1.4,0.7-2.1,1C159,444.8,157.1,445.7,155.2,446.7C155.2,446.7,155.2,446.7,155.2,446.7z M161.3,443.6c-0.1,0-0.1,0.1-0.2,0.1C161.2,443.7,161.3,443.6,161.3,443.6z M166.5,441.1c-0.1,0-0.2,0.1-0.3,0.1C166.3,441.2,166.4,441.2,166.5,441.1z M169.2,439.9c-0.5,0.2-1.1,0.5-1.6,0.7C168.2,440.4,168.7,440.1,169.2,439.9z M173.6,437.9c-0.4,0.2-0.9,0.4-1.3,0.6C172.7,438.3,173.2,438.1,173.6,437.9z M175.9,437c-0.6,0.2-1.2,0.5-1.8,0.8C174.7,437.5,175.3,437.2,175.9,437z M180,435.3c-0.7,0.3-1.3,0.5-2,0.8C178.7,435.8,179.3,435.6,180,435.3z M182.3,434.4c-0.1,0-0.1,0.1-0.2,0.1C182.2,434.4,182.2,434.4,182.3,434.4z M186,432.9c-0.7,0.3-1.4,0.5-2.1,0.8C184.6,433.5,185.3,433.2,186,432.9z M159.3,444.6c0.5-0.3,1-0.5,1.5-0.8C160.3,444.1,159.8,444.4,159.3,444.6z M100.1,312.3L100.1,312.3c10.8-15.3,14.8-35,12.1-58.4c-9.3-80.4-10.7-129.2,15.5-140.5v14.4h319c0,52.9-42.8,95.7-95.7,95.7c-0.1,0-0.2,0-0.3,0H223.3c-52.3,0-94.8-42-95.7-94.1v125.8c0,88,71.3,159.4,159.3,159.4c0.1,0,0.2,0,0.3,0c88,0,159.3-71.4,159.3-159.4V114.9c25.2,11.9,21.1,59.4,11.9,139c-2.7,23.5,1.4,43.1,12.1,58.4v0c23.7,33.7,74.2,39.9,100.1,40.9c-20.2-16.8-52.9-55.4-42.1-123.8c7.2-46.1,2.2-111.4-26.2-145.9c-15.9-19.3-36.5-26.1-61.4-20.2C427.8,26.4,392.5,0,351,0H223.4C181.6,0,146,26.8,133,64.2c-26.4-7.3-48.1-0.8-64.7,19.3c-28.4,34.5-33.4,99.8-26.2,145.9c10.7,68.4-21.9,107-42.1,123.8C25.8,352.2,76.3,346,100.1,312.3z"/>
</svg>
