<?xml version="1.0" encoding="UTF-8"?>
<svg id="_Слой_2" data-name="Слой 2" xmlns="http://www.w3.org/2000/svg" viewBox="0 0 87.52 100.01" fill="white">
  <g id="_Слой_1-2" data-name="Слой 1">
    <path d="M27.52,34.13c-.01-.16-.02-.25-.02-.26,0-.02,0-.04,0-.05v-9.79c-.44,.13-1.03,.34-1.63,.63,0,0,0,0,0,0-.05,.04-.11,.07-.17,.1-.02,0-.03,.01-.05,.01-1.4,.75-2.8,2.03-2.64,4.12,.27,3.59,2.88,4.88,4.52,5.22Z"/>
    <path d="M62.42,25.08c-.08-.03-.16-.07-.22-.13,0,0-.01,0-.02-.01-.77-.45-1.56-.74-2.13-.9v9.84s0,.1-.03,.26c1.63-.34,4.24-1.62,4.52-5.21,.14-1.85-.92-3.06-2.12-3.83h0Z"/>
    <path d="M58.63,34.74s0-.04,.01-.05c.08-.49,.11-.81,.12-.89v-10.77c-3.15-1.27-4.59-4.62-5.2-6.67-.16,.26-.32,.52-.49,.78-5.62,8.52-20.61,6.28-24.28,5.59v11.08c0,.08,.04,.42,.13,.92,0,.02,0,.03,0,.05,0,0,0,.01,0,.02,.35,1.93,1.33,5.62,4.01,8.85,.01,.01,.03,.03,.04,.04,2.64,3.16,6.28,5.06,10.8,5.64h0c4.51-.58,8.14-2.48,10.78-5.64,.01-.01,.02-.03,.04-.04,2.8-3.38,3.73-7.33,4.01-8.87,0,0,0-.02,.02-.02h0Z"/>
    <path d="M54.49,14.68c.2,1.04,1.36,6.06,5.12,7.26t0,0s.04,.01,.07,.03c.02,0,.04,.02,.06,.03,.05,.03,.09,.06,.13,.1,.03,.03,.05,.06,.07,.09,.03,.03,.04,.07,.05,.11t0,0s.03,.06,.03,.09c.02,.05,.02,.11,.02,.16v.12c.67,.16,1.44,.44,2.2,.82,.7-2.29,2.54-9.28,.66-13.68-1.69-3.97-5.27-4.46-6.84-4.48,.46,2.13,.43,5.29-1.6,9.34h0Z"/>
    <path d="M27.49,22.68v-.77s0-.07,0-.11c0-.01,0-.03,0-.04,.03-.11,.08-.22,.16-.3,.02-.02,.04-.04,.06-.05l.02-.02s.04-.03,.07-.04c.09-.06,.21-.09,.33-.09,.04,0,.07,0,.11,0,.01,0,.03,0,.04,0,0,0,0,0,.02,0,.68,.15,17.98,3.77,23.68-4.87,.46-.7,.88-1.41,1.25-2.13,0,0,0-.02,.02-.03,1.7-3.33,2.2-6.63,1.39-9.3,0-.01-.01-.03-.01-.04-.79-2.56-2.73-4.34-5.09-4.66C47.65-.02,30.89-1.89,24.88,11.18c0,.02-1.79,4.62,.93,12.07,.59-.26,1.17-.45,1.69-.58h0Zm3.66-15.89C39.05,.83,48.3,1.98,48.69,2.03c.36,.05,.61,.38,.56,.73-.05,.36-.38,.61-.73,.56-.09-.01-9.12-1.13-16.58,4.5-.12,.09-.26,.13-.39,.13-.2,0-.39-.09-.52-.26-.21-.29-.16-.69,.13-.91h0Z"/>
    <path d="M36.63,62.32l7.15,9.23,7.32-9.45c-2.6,1.18-5.16,1.77-7.65,1.77-2.33,0-4.6-.52-6.82-1.55Z"/>
    <path d="M31.17,52.88c-.4,.18-.86,.39-1.37,.63l.66,.85,.7-1.48Z"/>
    <path d="M56.19,55.52l-1.7-3.6s-.04-.08-.04-.12c-.01-.03-.02-.05-.02-.08h0s-.01-.07-.01-.11v-5.86c-2.74,2.7-6.29,4.33-10.56,4.86-.03,0-.06,0-.09,0s-.05,0-.08,0c-4.27-.53-7.81-2.16-10.56-4.86v5.82c0,.11-.01,.22-.06,.32l-1.71,3.62,3.19,4.12c5.79,3.93,11.84,3.92,18.47-.02l3.18-4.09Z"/>
    <path d="M85.5,73.57c-.95-7.05-7.03-9.69-7.09-9.71-.02,0-.04-.02-.05-.03l-7.34-3.95c-.7,.93-1.73,1.87-3.22,2.73-4.58,2.64-14.75,8.07-16.76,9.14v17.9c0,.36-.29,.65-.65,.65s-.65-.29-.65-.65v-18.29c0-.24,.13-.46,.35-.58,.12-.06,12.02-6.4,17.06-9.3,1.53-.88,2.49-1.85,3.09-2.76,.01-.03,.03-.05,.05-.08,1.17-1.83,.89-3.39,.89-3.42,0-.04,0-.08,0-.12,0-5.98-12.24-8.91-15.44-9.58v5.63c1.08,.35,3.83,1.35,6.88,3.36,.3,.2,.38,.61,.18,.9-.12,.19-.33,.29-.54,.29-.12,0-.25-.04-.36-.11-.99-.65-1.95-1.2-2.82-1.64l-1.59,2.06s0,.01-.02,.02l-3.45,4.45-.04,.05-9.53,12.3v3.51c0,.36-.29,.65-.65,.65s-.65-.29-.65-.65v-3.51l-9.51-12.27s-.04-.05-.05-.07l-3.43-4.43-.08-.1h0s-1.43-1.84-1.43-1.84c-.96,.5-2.02,1.1-3.05,1.77-.11,.07-.23,.11-.36,.11-.21,0-.42-.11-.55-.3-.2-.3-.11-.71,.19-.9,2.93-1.9,5.89-3.17,6.97-3.61v-5.66c-3.21,.67-15.44,3.61-15.44,9.58,0,.04,0,.08-.01,.12-.02,.09-.26,1.61,.86,3.38,0,0,0,0,0,0,.03,.03,.05,.07,.07,.11,0,0,0,.01,0,.02,.6,.9,1.56,1.87,3.08,2.74,5.05,2.91,16.94,9.24,17.06,9.3,.21,.12,.35,.34,.35,.58v18.29c0,.36-.29,.65-.65,.65s-.65-.29-.65-.65v-17.9c-2-1.07-12.17-6.5-16.75-9.14-1.49-.86-2.52-1.8-3.22-2.73l-7.34,3.95s-.04,.02-.05,.03c-.06,.03-6.14,2.67-7.09,9.71-.8,5.99-1.73,16.04-2.06,19.71,5,1.77,15.52,4.77,32.48,6.23,1.81,.16,3.73,.3,5.69,.42,.76,.04,2.78,.07,4.96,.07v-16c0-.36,.29-.65,.65-.65s.65,.3,.65,.65v16c1.82,0,3.16-.03,3.74-.06,1.95-.12,3.87-.26,5.69-.42,18.59-1.6,29.47-5.07,33.66-6.66-.39-4.27-1.26-13.66-2.02-19.29h0Z"/>
    <path d="M56.31,52.74l.77,1.63,.77-1c-.59-.27-1.11-.48-1.55-.64h0Z"/>
  </g>
</svg>