<?xml version="1.0" encoding="utf-8"?>
<svg version="1.1" xmlns="http://www.w3.org/2000/svg" viewBox="0 0 56 60" fill="white">
		<g>
			<path d="M48.9,51.5l-2.5-2.4c0.1-0.2,0.1-0.4,0.1-0.6c0-0.7-0.4-1.2-0.9-1.5v-0.1l-0.2-3.7c-0.1-1.6-1.1-1.6-1.2,0l-0.3,3.5v0.1
				c-0.5,0.3-0.9,0.9-0.9,1.5c0,0.2,0,0.3,0.1,0.4l-3.7,1.7c-0.2,0.1-0.3,0.3-0.2,0.5c0.1,0.1,0.2,0.2,0.3,0.2h0.1l3.7-1.5
				c0.3,0.4,0.8,0.7,1.4,0.7c0.1,0,0.2,0,0.3,0l0.1,0.1l2.9,2.1C49.4,53.4,50.1,52.6,48.9,51.5L48.9,51.5z"/>
			<path d="M45.9,36.9v-1.6h1.3c0.6,0,1.1-0.5,1.1-1.1c0-0.6-0.5-1-1.1-1h-5.7c-0.6,0-1.1,0.5-1.1,1.1c0,0.6,0.5,1.1,1.1,1.1h1.3V37
				c-5.7,0.8-10,5.6-10,11.4C32.8,54.8,38,60,44.4,60S56,54.8,56,48.4C56,42.5,51.6,37.7,45.9,36.9L45.9,36.9z M44.3,56.8
				c-4.6,0-8.4-3.8-8.4-8.4s3.8-8.4,8.4-8.4s8.4,3.8,8.4,8.4S49,56.8,44.3,56.8z"/>
		
		<path d="M12.1,6.4c-0.2,0.3-0.4,0.6-0.5,1c0.2-0.3,0.3-0.5,0.5-0.8l0,0c0,0.1,0,0.1,0,0.2l0,0c-0.4,1.8-0.5,3.7-0.3,5.5l0.4,3.9
			c0,0.4,0.1,0.8,0.1,1.1c0.1,1.9,0.9,3.7,2.4,5.4c0,0,0.1,0.1,0.1,0.2c0.5,1.7,1.3,3,2.4,4.1c1.6,1.6,3.5,2.5,5.5,2.5l0,0
			c2,0,3.9-0.9,5.5-2.5c1-1,1.8-2.3,2.3-3.9c0.1-0.2,0.2-0.4,0.3-0.5c1.6-1.9,2.3-3.8,2.3-5.8c0-0.1,0-0.3,0-0.4v-7
			c0-0.2-0.1-0.5-0.1-0.7c0,0.1,0.1,0.2,0.1,0.3c0.1,0.2,0.1,0.3,0.2,0.5c0.1,0.2,0.2,0.5,0.2,0.7v-0.1c-0.2-0.8-0.3-1.5-0.7-2.2
			c0-0.1,0-0.1-0.1-0.2l0,0c0-0.1-0.1-0.2-0.1-0.3c-0.1-0.3-0.2-0.6-0.3-0.9C32.2,6.3,32.1,6,32,5.8V5.7l0,0
			c0.4,0.4,0.6,0.8,0.9,1.2c0-0.1-0.1-0.3-0.2-0.4c-0.3-0.6-0.6-1.2-1.1-1.7c-0.1-0.1-0.2-0.2-0.3-0.3c-0.5-0.8-1.1-1.4-2-1.8
			c0,0,0,0-0.1,0c-0.4-0.2-0.8-0.3-1.2-0.5c-0.1,0-0.2-0.1-0.3-0.1c0.2,0,0.4,0,0.6,0.1c1.1,0.2,2.1,0.5,3.1,1l-0.1-0.1
			c-1.2-0.8-2.5-1.2-4-1.4c-0.1,0-0.1,0-0.2,0c-0.5,0-1-0.1-1.4-0.2c-0.2-0.1-0.4-0.1-0.6-0.2c0-0.1-0.2-0.2-0.4-0.2
			c0,0-0.1,0-0.2,0l0,0H27c0,0,0-0.1-0.1-0.1c-1.1-0.2-2.1-0.3-3.2-0.2c-0.4,0-0.7,0-1.1,0c-0.2,0-0.3,0-0.5,0l0,0
			c0.8-0.1,1.6-0.3,2.5-0.5c-0.9,0-1.7,0.1-2.5,0.2c-0.4,0.1-0.9,0.2-1.3,0.3c-0.6,0.1-1.3,0.1-1.9,0.2c1.3-0.6,2.6-0.9,4-1
			c-0.3,0-0.5,0-0.8,0c-1,0-1.9,0.2-2.9,0.4c-0.8,0.2-1.5,0.5-2.1,1c-0.1,0.1-0.3,0.2-0.4,0.2c0,0,0,0,0-0.1
			c0.3-0.2,0.6-0.4,0.9-0.6s0.6-0.4,1-0.5c0.3-0.1,0.7-0.3,1-0.4c-0.6,0.2-1.3,0.4-1.9,0.7c-1.2,0.6-2.1,1.6-3.1,2.3l0,0
			c-0.1,0.1-0.2,0.2-0.3,0.3c-0.1,0.2-0.2,0.3-0.3,0.5c0,0.1-0.1,0.1-0.2,0.2c-0.2,0.1-0.4,0.1-0.5,0.2c-0.9,0.4-1.4,1.1-1.6,2
			c0.2-0.4,0.5-0.8,0.9-1.2c-0.1,0.4-0.2,0.7-0.3,1C12.2,6.1,12.2,6.3,12.1,6.4L12.1,6.4z M14.2,16.4v-0.1c0-0.1,0-0.2,0-0.3
			c0.5-0.2,0.8-0.6,0.8-1.3c0-0.5,0-1,0-1.4c0-0.5,0-1,0-1.6c0-0.9,0.7-1.6,1.6-1.6l0,0h0.8c0.7-0.1,1.3,0,2-0.1c0.6,0,1.2,0,1.8,0
			H23c0.6,0,1.3,0,1.9,0c0.5,0,0.9,0,1.4,0c0.4,0,0.8,0,1.2,0c0.4,0,0.8,0,1.2,0.1c0.5,0.1,0.8,0.4,1,0.8c0.1,0.3,0.2,0.6,0.3,0.8
			l0,0c0,0.4,0,0.9,0,1.4c0,0.4,0,0.8,0,1.3c0,0.1,0,0.2,0,0.4V15c0,0.5,0.3,0.9,0.8,1c0,0.1,0,0.2,0,0.3c0.2,1.8-0.4,3.5-1.8,5.2
			c-0.3,0.4-0.5,0.8-0.7,1.2c-0.4,1.3-1,2.3-1.9,3.1c-1.2,1.2-2.6,1.9-4,1.9l0,0c-1.4,0-2.8-0.7-4.1-1.9c-0.8-0.9-1.5-1.9-1.9-3.3
			c-0.1-0.3-0.3-0.6-0.5-0.9C14.7,19.9,14.1,18.2,14.2,16.4L14.2,16.4z"/>
		<path d="M30.3,48.4c0-5.5,3.2-10.3,8-12.6c-0.1-0.1-0.1-0.3-0.1-0.4c-1.3-0.7-2.8-1.2-4.5-1.6c-1.4-0.3-3.2-2.3-4-4l-0.4,0.3
			c-2,1.6-4.2,2.4-6.6,2.4s-4.7-0.8-6.6-2.4l0.6,0.5c-0.4-0.2-0.7-0.5-1-0.8c-0.8,1.7-2.6,3.7-4,4c-6,1.2-9.6,4.7-10.4,10.9L0,56.1
			c0,0.7,0,0.9,0.7,1.1c0.3,0.1,0.6,0.2,1,0.4c3,1,6.1,1.5,9.2,1.7c3.9,0.3,7.8,0.5,9.8,0.6c5.9,0,10.4-0.2,14.7-0.7
			C32.3,56.6,30.2,52.7,30.3,48.4L30.3,48.4z"/>
	
	</g>
</svg>
