<?xml version="1.0" encoding="utf-8"?>
<svg version="1.1" xmlns="http://www.w3.org/2000/svg" viewBox="0 0 574 735">
<path fill="white" d="M446.7,95.7v159.4c0,88-71.3,159.4-159.3,159.4c-0.1,0-0.2,0-0.3,0c-88,0-159.3-71.4-159.3-159.4V129.3c0.8,52.1,43.3,94.1,95.7,94.1h127.3c0.1,0,0.2,0,0.3,0c52.8,0,95.7-42.8,95.7-95.7h-319v-32c0-52.9,42.8-95.7,95.7-95.7H351C403.9,0,446.7,42.8,446.7,95.7z M370.1,426.8c17.2,5.2,33.7,12,49.4,20.2L288.6,604c16,0.8,28.9,13.4,30.2,29.3h0.1v99.4h-32V668c-17.7,0-32-14.3-32-32c0-17.1,13.5-31.1,30.4-32L154.5,447c15.7-8.2,32.3-15,49.5-20.2C86.5,462.4,0.8,571.2,0,700.3V735h574v-33.3C573.9,572.1,488,462.6,370.1,426.8z M446.3,414.9H300.2c42.9,2,83.3,13.4,119.3,32.2 M154.5,447c36-18.8,76.4-30.2,119.2-32.2H127.7"/>
</svg>
