<?xml version="1.0" encoding="utf-8"?>

<svg version="1.1" xmlns="http://www.w3.org/2000/svg" viewBox="0 0 62 60" fill="white">
		<g>
			<path d="M55.4,51.3L53.2,49c0.1-0.2,0.1-0.4,0.1-0.6c0-0.6-0.3-1.2-0.8-1.4c0,0,0-0.1,0-0.1l-0.2-3.3c-0.1-1.5-1-1.5-1.1,0
				l-0.2,3.3c0,0,0,0.1,0,0.1c-0.5,0.3-0.8,0.8-0.8,1.4c0,0.2,0,0.3,0.1,0.4l-3.4,1.4c-0.2,0.1-0.3,0.3-0.2,0.5
				c0.1,0.1,0.2,0.2,0.3,0.2c0,0,0.1,0,0.1,0l3.4-1.4c0.3,0.4,0.8,0.6,1.3,0.6c0.1,0,0.2,0,0.3,0c0,0,0.1,0.1,0.1,0.1l2.7,2
				C55.9,53.1,56.5,52.4,55.4,51.3L55.4,51.3z"/>
			<path d="M52.7,37.7v-1.4h1.2c0.6,0,1-0.5,1-1c0-0.6-0.5-1-1-1h-5.3c-0.6,0-1,0.5-1,1c0,0.6,0.5,1,1,1h1.2v1.4
				c-5.3,0.7-9.3,5.2-9.3,10.7c0,6,4.8,10.8,10.8,10.8S62,54.4,62,48.4C62,43,57.9,38.4,52.7,37.7z M51.2,56.2
				c-4.3,0-7.8-3.5-7.8-7.8s3.5-7.8,7.8-7.8s7.8,3.5,7.8,7.8S55.5,56.2,51.2,56.2z"/>

		<path d="M38.3,48.4c0-3.1,1.1-6.1,3.2-8.5c1.1-1.3,2.5-2.3,4-3.1c-0.6-0.6-1.2-1.1-2-1.6c-1-0.6-2.1-1.1-3.2-1.6
			c-1.7-0.7-3.3-1.4-5-2.1c1.9-0.1,3.7-0.5,5.1-1c-0.1-0.1-0.2-0.1-0.3-0.1c-1.6-0.6-2.8-1.5-3.7-2.9c-0.4-0.7-0.7-1.4-0.8-2.1h0.8
			c0.7,0,1-0.3,1.3-0.9c1.3-3.1,1.6-6.2,1.2-9.5c-0.5-3.9-1.7-7.4-4.1-10.4c-0.1-0.1-0.1-0.2-0.2-0.3c-0.6-0.8-1.2-1.4-1.9-1.9
			c-1.2-1.1-2.5-2-4.1-2.3c-0.8-0.1-1.7-0.2-2.5-0.2c-0.1,0-0.2,0-0.2,0h-2.2c0,0-0.1,0-0.1,0c-0.5,0-0.9,0-1.4,0.1
			c-2.1,0.2-3.8,1.1-5.3,2.4c-0.8,0.6-1.5,1.3-2,2.1c-2.5,3.1-3.8,6.7-4.3,10.7c-0.4,3.3-0.1,6.5,1.3,9.5c0.1,0.3,0.5,0.7,0.8,0.7
			H14c-0.7,2.4-2.1,4.2-4.6,5.1c-0.1,0-0.1,0.1-0.3,0.2c1.8,0.5,3.5,1,5.1,1c-2.3,0.9-4.5,1.9-6.8,2.9c-2.4,1-4.1,2.8-5.3,5.1
			c-1.2,2.3-2,13.6-2.1,16.2c0,0.8,0.1,0.9,0.8,1.2c0.4,0.1,0.7,0.3,1.1,0.4c3.3,1.1,6.6,1.6,10.1,1.9c4.3,0.4,8.6,0.5,10.8,0.7
			c7.5-0.1,12.8-0.3,18.1-1.1c0.8-0.1,1.6-0.3,2.4-0.4C40.3,56.2,38.3,52.5,38.3,48.4L38.3,48.4z M16.3,31.5
			c1.3-0.3,2.5-0.8,3.7-1.8c0.9,0.5,1.8,1,2.7,1.5c1.4,0.7,2.9,0.8,4.3,0c0.8-0.4,1.6-0.9,2.4-1.3c1.3,1,2.8,1.6,4.4,1.7
			C23.5,41.3,16.3,31.5,16.3,31.5L16.3,31.5z M34.7,18.2c-0.8,4.3-3.2,8.1-6.7,10.6c-0.1,0.1-0.2,0.2-0.4,0.2
			c-2,1.4-3.7,1.1-5.8-0.1c-8.5-4.5-6-17.1-6-17.1c0.1-0.9,0.3-1.8,0.5-2.6c0.2-0.6,0.7-1,1.3-1c0,0,0,0,0,0
			c2.1,0.1,4.1-0.1,6.1-0.5c0.7-0.2,1.3-0.3,1.9-0.6c0.4,0.3,0.9,0.6,1.3,0.9c1.2,0.8,2.4,1.5,3.4,2.5c1,0.9,1.9,2.1,2.9,3.1
			c0.4-2-1.4-3.1-2.3-4.6c1.3,0.8,2.3,1.7,3,2.9l0.3,0.5c0.4,0.8,0.7,1.7,0.7,2.8c0,0.3,0,0.5,0,0.7C35,16.3,34.9,17.2,34.7,18.2
			L34.7,18.2z"/>

</g>
</svg>
