<?xml version="1.0" encoding="utf-8"?>
<!-- Generator: Adobe Illustrator 26.4.1, SVG Export Plug-In . SVG Version: 6.00 Build 0)  -->
<svg version="1.1" id="_Слой_2" xmlns="http://www.w3.org/2000/svg" xmlns:xlink="http://www.w3.org/1999/xlink" x="0px"
	 y="0px" viewBox="0 0 1280 1390.2" style="enable-background:new 0 0 1280 1390.2;" xml:space="preserve">
<g id="_Слой_1-2">
	<path d="M580.9,490c-1.3-17.6-8.9-39.5-14-49.9c-9-18.7-18.3-32.1-22.5-36.6c-9.1-9-12.3-11.6-17-14.1c-2.3-1.2-3.1-1.8-3.5-2.8
		c-0.8-2-4-6.6-6.2-9c-1.1-1.2-3.5-3.2-5.2-4.3c-6.8-4.5-12.5-5.8-27.8-6.4l-7-0.3l0.2-1.7c0.5-3.9-1.5-9.2-5.3-13.7
		c-1.1-1.2-4.1-4.3-6.8-6.8c-5.6-5.2-8-7.9-9.5-10.7c-0.9-1.8-1.1-2.6-1.3-7.3c-0.5-9.1-1.8-11-10.3-13.9c-3.2-1.1-5-2-6.8-3.4
		c-4.6-3.5-7.1-4.1-12.9-3.2c-5.3,0.8-7.5,0.7-12.9-0.2c-6.1-1.1-9.4-1-14.5,0.4c-1.9,0.5-4.2,2.4-4.9,4c-0.3,0.8-1-0.2-2.1-2.9
		c-2.9-7.4-5-16-6.2-25.5c-1.2-9.6-0.7-26.6,1.2-35.3c0.4-1.6,1.9-5.4,4.1-10c3.3-6.9,5.2-12.1,5.8-15.9c0.2-1.5,0.4-1.6,4.2-3.4
		c5.9-2.9,6.9-4.8,6.9-13.8c0-3,0.2-6.5,0.4-7.7c0.2-1.2,0.4-2.5,0.5-2.9c0-0.4,0.5-1.6,0.9-2.5s1.3-4.3,1.8-7.4s1.7-7.7,2.6-10.3
		c3.9-11.8,4.5-20.7,1.2-22.5c-1.8-0.9-4.9,0-7.9,2.3c-0.8,0.6-1.8,1.2-2.3,1.2c-0.5,0-0.8,0-0.8-0.1c0,0,0.4-1.8,0.7-4
		c1-5,3-17.7,3.7-23.8c0.9-7.3,1.3-13.6,1.6-24c0.2-5.3,0.4-12.6,0.5-16.2c0.5-12.6-0.5-20.3-3.6-27.6c-4.8-11-15.5-24.1-26.5-32.1
		c-1.5-1.1-2.7-2-2.7-2.1c0-0.2,7.8,2.5,9.1,3.2c5.3,2.7-11.6-9.3-18.1-12.9c-1.5-0.8-2.7-1.5-2.7-1.6c0-0.1,1.9,0.2,4.2,0.6
		c2.3,0.4,4.2,0.7,4.3,0.6c0.2-0.2-9.5-4.5-14.3-6.2c-4.2-1.5-8.2-2.8-12.3-3.8c-6-1.5-10.5-2.2-11.5-2.4
		c-5.5-0.8-13.6-1.5-23.8-0.7c-1.8,0.2-4.2,0.5-5.2,0.7c-1.3,0.3-3.6,0.3-7.4,0c-16.7-1.3-35.6,1.9-48.1,8.1c-1.9,1-3.6,1.8-3.7,1.9
		c-0.1,0.1,1.5,0,3.5-0.1l3.7-0.3l-3,1.6c-4.2,2.2-9.5,5.8-13.9,9.4c-4,3.2-12.7,11.4-12.4,11.6c0.1,0.1,1.4-0.5,3-1.2l2.9-1.4
		l-2,2.1c-6.1,6.4-11.1,13.4-14.6,20.7c-2.7,5.6-3.4,7.4-4.1,11.8c-1.4,7.9-1.6,12.8-1.6,34.8c0,22.9,0.3,29.4,1.8,39.3
		c0.5,3.9,0.7,6.2,0.5,8.9c-0.1,2-0.3,3.7-0.3,3.8c-0.1,0-0.9-0.1-1.7-0.3c-2.4-0.7-3.9,0.1-5,2.4c-1.3,3-0.7,7.3,3.2,20.7
		c0.8,2.9,1.4,6,1.8,10.3c0.5,5.2,0.7,6.5,1.6,8.2c0.9,1.8,1,2.4,1,6.7c0,2.6,0,6.6-0.2,9c-0.1,3.8,0,4.5,0.7,6.1
		c1,2.2,2.5,3.2,5.6,3.9c3.6,0.7,4.6,1.1,7,2.7c2.3,1.5,2.3,1.6,3.4,4.8c1.2,3.8,4.2,10.2,6.2,13.5c2.5,4.1,4.1,15,4.1,27.8
		c0,14.3-2.7,28.5-7.3,38.8l-1.2,2.7h-2.1c-2,0-2.1-0.1-2.7-1.2c-0.8-2-4.2-5.2-7-6.5c-4.4-2.1-11.2-2.3-14.7-0.6
		c-0.9,0.5-2.1,1.6-3.2,3.2c-2.1,3-3.1,3.5-10.2,4.9c-5.6,1.1-9.6,2.7-12.1,4.8c-2,1.6-4.1,5.2-5,8.2l-0.7,2.6l-3.9,2
		c-10.2,5.1-21.7,12.8-26.9,18c-4.5,4.5-5.8,7.2-6.5,13.6c-0.7,6.5-3.2,10.6-7.7,12.7c-1.6,0.8-3.2,1-10,1.5
		c-4.4,0.3-9,0.9-10.3,1.2c-9.5,2.4-35.9,19.3-50.8,35.1c-4.4,4.7-14.4,25.7-16.6,37.7c-2.3,12.8-5.9,35.3-6.8,43.7"/>
</g>
</svg>
