<?xml version="1.0" encoding="utf-8"?>
<svg version="1.1" xmlns="http://www.w3.org/2000/svg" viewBox="0 0 89 103">
<path fill="white" d="M191.1,423.3c0.6,2.5,1.8,6,4.7,8.4c2.3,1.8,4.8,2.4,12.7,2.9c13.9,0.9,17.2,0.1,21.7,2.8c1.3,0.8,4.5,2.9,5.6,6.7c0.4,1.6,0.4,3.2-1,7.6c-1.9,5.9-3.6,11.4-8.6,17.3c-1.3,1.5-3.3,3.7-6.2,5.9c2.1-8.5,3.7-15.3,5.1-19.7c0.3-1,1.1-3.2-0.1-4.8c-0.6-0.9-2.1-1.2-4.5-1.6c-4.8-0.6-9.7-1-14.6-1.7c-5.5-0.8-10.4-2.9-13.9-7.4c-1.1-1.5-1.7-2.9-1.9-3.7C188.2,430.2,190.4,425,191.1,423.3zM89,87.9c-6.4-1.9-11-4.4-13.9-6.3c-3.4-2.2-9.4-6.7-14.4-12.4c-2-2.2-4.3-5.1-8.8-7.6c-1.4-0.7-2.1-1.1-3.5-2c-3.4-2.3-5.4-5.1-6.7-7.1c3.3-0.3,6,0,7.8,0.5c3.1,0.8,8.4,3.1,11.8,5.2c2.7,1.7,4.9,3.3,6.4,4.6c3.5,3,6,5.8,10.6,11.4C82.3,78.9,86,83.6,89,87.9zM69.8,21.4C64,21.4,59,16.6,59,10.9c0.1-5.8,4.8-10.6,10.7-10.7c5.6-0.1,11.1,5.3,11,11C80.6,16.7,75.6,21.4,69.8,21.4L69.8,21.4zM2.7,41.9c-4.4-7.4-3.5-14.7,2.9-20.3c4.9-4.5,10.9-7.4,17.6-5.6c2.7,0.7,5.2,2.6,7.5,4.4c2.2,1.8,4.4,3.9,6.2,6.9c-3.3-0.7-6.6-0.9-9.9-1.8c-6.5-2-12.8-1.2-17.4,4C6.7,32.7,5.1,37.6,2.7,41.9L2.7,41.9zM40.4,22.7c-2.5-6.8-4.9-14-13.2-16C19.7,4.9,12.8,7.2,5.1,9.1c9.2-6.5,18.6-9.7,29.2-9c4.7,0.4,9.3,5,10.8,10.4C46.5,15.4,45.1,19.5,40.4,22.7zM36.7,55.9c-2.2-1-7.8-4.1-8.9-9.3c-1.2-5.7,3.5-11.1,8.3-16.9c1.9-2.2,3.4-3.5,4.7-4.8c4.6-4.2,7.5-6.9,11.5-6.8c1.1,0,3.2,0.3,5.7,2.2c-1.9,6.1-4.7,8.8-7,10.1c-3.2,1.9-5.8,1.3-9.3,4c-2.6,2.1-4,4.5-4.5,5.9C34.8,46.5,35.9,52.8,36.7,55.9zM64.1,103c-5.5-3.2-9.2-6.6-11.4-9.1c-2.6-2.9-7.1-8.6-10.3-15.4c-1.3-2.6-2.7-6-6.2-9.5c-1.1-1-1.7-1.5-2.8-2.7c-2.6-3-3.8-6.2-4.4-8.6c1.3-0.1,3.1,0,5.2,0.8c0.5,0.2,1.2,0.5,4.1,2.5c3.3,2.3,5.1,3.5,7.2,5.6c2.6,2.6,4.2,5,5.4,6.8c2.6,3.9,4.2,7.4,7,13.7C60.2,92.6,62.4,98,64.1,103z"/>
</svg>
