<?xml version="1.0" encoding="utf-8"?>
<!-- Generator: Adobe Illustrator 26.4.1, SVG Export Plug-In . SVG Version: 6.00 Build 0)  -->
<svg version="1.1" id="Capa_1" xmlns="http://www.w3.org/2000/svg" xmlns:xlink="http://www.w3.org/1999/xlink" x="0px" y="0px"
	 viewBox="0 0 89 103" style="enable-background:new 0 0 89 103;" xml:space="preserve">
<style type="text/css">
	.st0{display:none;}
	.st1{display:inline;}
	.st2{display:none;fill:#F18835;}
	.st3{fill:#121026;}
	.st4{fill:#F18835;}
</style>
<g class="st0">
	<g id="Layer_1_24_" class="st1">
		<g>
			<path d="M164.3,400.2l24.4,9.4l-22.8,19.8c-1.5,1.3-1.8,3.6-0.7,5.3c1.2,1.9,3.7,2.4,5.5,1.2l18.7-12.4c0,0-3.4,10.5-3.7,11.3
				c-1.2,3.3,0.3,6.9,3.5,8.2l22.7,9l13.8,17.6c1.7,2.1,4.7,2.5,6.8,0.9c2.2-1.7,2.6-4.8,1-7l-12.6-17.2l3.9,0.5l17.4,10.4
				c2.3,1.4,5.2,0.7,6.7-1.6c1.5-2.3,0.8-5.4-1.5-6.9l-18-11.8c-0.5-0.3-1.1-0.6-1.7-0.7l-0.3,0l-17.4-3.2c0,0,8.1-24.3-1.3-28.7
				l-41.1-13.3c-2.5-0.8-5.2,0.5-6.1,3C160.5,396.3,161.7,399.2,164.3,400.2z M208.4,402.2c1.3,0.9,2.9,1.6,4.4,1.9l0,0
				c3.9,0.8,8.1-0.5,10.9-3.4c2.9-2.9,4.1-7.2,3.3-11.3c-0.8-3.9-3.5-7.3-7.2-8.8c-3.7-1.6-8.1-1.1-11.4,1.2
				c-3.4,2.3-5.4,6.2-5.4,10.4C203.1,396.1,205.1,399.9,208.4,402.2z M261.8,482.2c0-0.8-0.6-1.4-1.4-1.4c-1.2,0-1.7-0.2-2.4-0.4
				c-0.8-0.3-1.8-0.6-3.5-0.6c-1.8,0-2.7,0.3-3.6,0.6c-0.7,0.2-1.2,0.4-2.4,0.4c-1.2,0-1.7-0.2-2.4-0.4c-0.8-0.3-1.8-0.6-3.5-0.6
				c-1.8,0-2.7,0.3-3.6,0.6c-0.7,0.2-1.2,0.4-2.4,0.4c-1.2,0-1.7-0.2-2.4-0.4c-0.8-0.3-1.8-0.6-3.5-0.6c-1.8,0-2.7,0.3-3.6,0.6
				c-0.7,0.2-1.2,0.4-2.4,0.4c-1.2,0-1.7-0.2-2.4-0.4c-0.8-0.3-1.8-0.6-3.5-0.6c-1.8,0-2.7,0.3-3.6,0.6c-0.7,0.2-1.2,0.4-2.4,0.4
				c-1.2,0-1.7-0.2-2.4-0.4c-0.8-0.3-1.8-0.6-3.5-0.6c-1.8,0-2.7,0.3-3.6,0.6c-0.7,0.2-1.2,0.4-2.4,0.4c-1.2,0-1.7-0.2-2.4-0.4
				c-0.8-0.3-1.8-0.6-3.5-0.6c-1.8,0-2.7,0.3-3.6,0.6c-0.7,0.2-1.2,0.4-2.4,0.4c-1.2,0-1.7-0.2-2.4-0.4c-0.8-0.3-1.8-0.6-3.5-0.6
				c-1.8,0-2.7,0.3-3.6,0.6c-0.7,0.2-1.2,0.4-2.4,0.4c-1.2,0-1.7-0.2-2.4-0.4c-0.8-0.3-1.8-0.6-3.5-0.6c-1.8,0-2.7,0.3-3.6,0.6
				c-0.7,0.2-1.2,0.4-2.4,0.4c-1.2,0-1.7-0.2-2.4-0.4c-0.4-0.2-0.9-0.3-1.6-0.5v-0.2c0-0.8-0.6-1.4-1.4-1.4h-6.5
				c-0.8,0-1.4,0.6-1.4,1.4v7.2c0,0.8,0.6,1.4,1.4,1.4h106.7c0.8,0,1.4-0.6,1.4-1.4L261.8,482.2z"/>
		</g>
	</g>
</g>
<path class="st2" d="M191.1,423.3c0.6,2.5,1.8,6,4.7,8.4c2.3,1.8,4.8,2.4,12.7,2.9c13.9,0.9,17.2,0.1,21.7,2.8
	c1.3,0.8,4.5,2.9,5.6,6.7c0.4,1.6,0.4,3.2-1,7.6c-1.9,5.9-3.6,11.4-8.6,17.3c-1.3,1.5-3.3,3.7-6.2,5.9c2.1-8.5,3.7-15.3,5.1-19.7
	c0.3-1,1.1-3.2-0.1-4.8c-0.6-0.9-2.1-1.2-4.5-1.6c-4.8-0.6-9.7-1-14.6-1.7c-5.5-0.8-10.4-2.9-13.9-7.4c-1.1-1.5-1.7-2.9-1.9-3.7
	C188.2,430.2,190.4,425,191.1,423.3z"/>
<path class="st3" d="M89,87.9c-6.4-1.9-11-4.4-13.9-6.3c-3.4-2.2-9.4-6.7-14.4-12.4c-2-2.2-4.3-5.1-8.8-7.6c-1.4-0.7-2.1-1.1-3.5-2
	c-3.4-2.3-5.4-5.1-6.7-7.1c3.3-0.3,6,0,7.8,0.5c3.1,0.8,8.4,3.1,11.8,5.2c2.7,1.7,4.9,3.3,6.4,4.6c3.5,3,6,5.8,10.6,11.4
	C82.3,78.9,86,83.6,89,87.9z"/>
<path class="st4" d="M69.8,21.4C64,21.4,59,16.6,59,10.9c0.1-5.8,4.8-10.6,10.7-10.7c5.6-0.1,11.1,5.3,11,11
	C80.6,16.7,75.6,21.4,69.8,21.4L69.8,21.4z"/>
<path class="st3" d="M2.7,41.9c-4.4-7.4-3.5-14.7,2.9-20.3c4.9-4.5,10.9-7.4,17.6-5.6c2.7,0.7,5.2,2.6,7.5,4.4
	c2.2,1.8,4.4,3.9,6.2,6.9c-3.3-0.7-6.6-0.9-9.9-1.8c-6.5-2-12.8-1.2-17.4,4C6.7,32.7,5.1,37.6,2.7,41.9L2.7,41.9z"/>
<path class="st4" d="M40.4,22.7c-2.5-6.8-4.9-14-13.2-16C19.7,4.9,12.8,7.2,5.1,9.1c9.2-6.5,18.6-9.7,29.2-9
	c4.7,0.4,9.3,5,10.8,10.4C46.5,15.4,45.1,19.5,40.4,22.7z"/>
<path class="st3" d="M36.7,55.9c-2.2-1-7.8-4.1-8.9-9.3c-1.2-5.7,3.5-11.1,8.3-16.9c1.9-2.2,3.4-3.5,4.7-4.8
	c4.6-4.2,7.5-6.9,11.5-6.8c1.1,0,3.2,0.3,5.7,2.2c-1.9,6.1-4.7,8.8-7,10.1c-3.2,1.9-5.8,1.3-9.3,4c-2.6,2.1-4,4.5-4.5,5.9
	C34.8,46.5,35.9,52.8,36.7,55.9z"/>
<path class="st4" d="M64.1,103c-5.5-3.2-9.2-6.6-11.4-9.1c-2.6-2.9-7.1-8.6-10.3-15.4c-1.3-2.6-2.7-6-6.2-9.5
	c-1.1-1-1.7-1.5-2.8-2.7c-2.6-3-3.8-6.2-4.4-8.6c1.3-0.1,3.1,0,5.2,0.8c0.5,0.2,1.2,0.5,4.1,2.5c3.3,2.3,5.1,3.5,7.2,5.6
	c2.6,2.6,4.2,5,5.4,6.8c2.6,3.9,4.2,7.4,7,13.7C60.2,92.6,62.4,98,64.1,103z"/>
</svg>
