<?xml version="1.0" encoding="utf-8"?>
<!-- Generator: Adobe Illustrator 28.0.0, SVG Export Plug-In . SVG Version: 6.00 Build 0)  -->
<svg version="1.1" id="Capa_1" xmlns="http://www.w3.org/2000/svg" xmlns:xlink="http://www.w3.org/1999/xlink" x="0px" y="0px"
	 viewBox="0 0 800 800" style="enable-background:new 0 0 800 800;" xml:space="preserve">
<g>
	<g id="Layer_1_24_">
		<g>
			<path d="M86,136.9c59.7,29.5,119.4,58.9,179.1,88.4C221.8,266.1,178.4,307,135,347.9c-27.6,35.2-39.6,54.5-36,58
				c3.1,3.1,18.1-5.9,45-27c20.7-11.1,43.7-22.3,69-33c19.8-8.3,38.8-15.4,56.8-21.5c0,0-24.8,75.8-26.8,80.9
				c-9.1,23.4,2.4,49.8,25.8,58.9L435.1,529c14.6,10.6,29.3,21.2,43.9,31.9c43.9,37.2,74.6,67.5,95,89c7.4,7.8,16.8,18,20,16
				c6.3-3.8-15.7-51.2-36-92c-19-28.7-38-57.4-56.9-86.1l28.3,3.4c14.2,4.3,28.4,8.5,42.6,12.8c34.7,15,69.3,30,104,45
				c21.1,12.1,32.8,16.8,35,14c3.9-4.9-21.4-32.9-76-84c-10.2-12-25.8-27.8-48-42c-19.9-12.8-38.7-20.2-52.9-24.6
				c-9.3-1.7-18.5-3.4-27.8-5c-28.5-5.2-56.9-10.3-85.4-15.5c0,0,59.1-174.5-9.6-206.3C345.5,173,279.6,160.5,213.7,148
				c-47.6-13.8-85.9-23.6-112.7-30.1c-20.2-4.9-40-9.5-42-5C57.1,117.2,72.6,128.2,86,136.9z M409.6,171.6
				c9.8,6.6,20.9,11.2,32.5,13.4l0.1,0c28.7,5.6,58.9-3.7,79.6-24.3c21-21,30.2-51.9,24.1-81c-6-28.3-25.9-52.5-52.6-63.6
				C465.9,4.9,434,8,409.5,24.5C385,41.1,370.1,69.4,370.4,99C370.7,127.9,385.6,155.5,409.6,171.6z M800,746.6c0-5.5-4.5-10-10-10
				c-8.6,0-12.5-1.4-17.4-3.1c-6-2.1-12.9-4.5-25.9-4.5c-13,0-19.9,2.4-26,4.5c-4.9,1.7-8.8,3.1-17.4,3.1c-8.6,0-12.5-1.4-17.4-3.1
				c-6-2.1-12.9-4.5-25.9-4.5s-19.9,2.4-26,4.5c-4.9,1.7-8.8,3.1-17.4,3.1c-8.6,0-12.5-1.4-17.4-3.1c-6-2.1-12.9-4.5-25.9-4.5
				c-13,0-19.9,2.4-26,4.5c-4.9,1.7-8.8,3.1-17.4,3.1c-8.6,0-12.5-1.4-17.4-3.1c-6-2.1-12.9-4.5-25.9-4.5s-19.9,2.4-26,4.5
				c-4.9,1.7-8.8,3.1-17.4,3.1s-12.5-1.4-17.4-3.1c-6-2.1-12.9-4.5-25.9-4.5c-13,0-19.9,2.4-26,4.5c-4.9,1.7-8.8,3.1-17.4,3.1
				c-8.6,0-12.5-1.4-17.4-3.1c-6-2.1-12.9-4.5-25.9-4.5c-13,0-19.9,2.4-26,4.5c-4.9,1.7-8.8,3.1-17.4,3.1c-8.6,0-12.5-1.4-17.4-3.1
				c-6-2.1-12.9-4.5-25.9-4.5c-13,0-19.9,2.4-26,4.5c-4.9,1.7-8.8,3.1-17.4,3.1c-8.6,0-12.5-1.4-17.4-3.1c-6-2.1-12.9-4.5-25.9-4.5
				c-13,0-19.9,2.4-26,4.5c-4.9,1.7-8.8,3.1-17.4,3.1c-8.6,0-12.5-1.4-17.4-3.1c-3.2-1.1-6.8-2.4-11.7-3.3v-1.5c0-5.5-4.5-10-10-10
				H10c-5.5,0-10,4.5-10,10v51.8c0,5.5,4.5,10,10,10h780c5.5,0,10-4.5,10-10L800,746.6z"/>
		</g>
	</g>
</g>
</svg>
