<?xml version="1.0" encoding="utf-8"?>
<!-- Generator: Adobe Illustrator 26.4.1, SVG Export Plug-In . SVG Version: 6.00 Build 0)  -->
<svg version="1.1" id="Capa_1" xmlns="http://www.w3.org/2000/svg" xmlns:xlink="http://www.w3.org/1999/xlink" x="0px" y="0px"
	 viewBox="0 0 647 660" style="enable-background:new 0 0 647 660;" xml:space="preserve">
<g>
	<g id="Layer_1_24_">
		<g>
			<path d="M23.3,148.3L201.4,216L35.1,358.3c-10.9,9.3-13.5,25.5-5.4,37.9c8.7,13.4,26.7,17.1,40,8.4L206,315.2c0,0-24.8,75.8-26.8,81c-9.1,23.4,2.4,49.8,25.8,58.9l166.2,64.9l100.9,126.5c12.1,15.1,34,18.1,49.7,6.4c16-11.9,19.3-34.5,7.4-50.5l-92-123.8l28.3,3.4l127.2,75c16.6,9.8,38.1,4.8,48.6-11.6c10.7-16.8,5.9-39.1-10.9-49.8L498.7,411c-3.7-2.4-8.1-4.2-12.7-5l-2-0.4l-126.9-23.1c0,0,59.1-174.6-9.6-206.5L47,80.2c-18.1-5.7-37.8,3.6-44.6,21.6C-4.7,120.4,4.7,141.2,23.3,148.3zM345.7,162.3c9.8,6.6,20.9,11.2,32.5,13.4l0.1,0c28.7,5.6,58.9-3.7,79.6-24.3c21-21,30.2-52,24.1-81c-6-28.3-25.9-52.5-52.6-63.6c-27.3-11.4-59.1-8.2-83.7,8.3c-24.5,16.5-39.4,44.9-39.1,74.5C306.9,118.5,321.8,146.1,345.7,162.3z"/>
		</g>
	</g>
</g>
</svg>
