<?xml version="1.0" encoding="utf-8"?>
<!-- Generator: Adobe Illustrator 26.4.1, SVG Export Plug-In . SVG Version: 6.00 Build 0)  -->
<svg version="1.1" id="_Слой_2" xmlns="http://www.w3.org/2000/svg" xmlns:xlink="http://www.w3.org/1999/xlink" x="0px"
	 y="0px" viewBox="0 0 145 72" style="enable-background:new 0 0 145 72;" xml:space="preserve">
<style type="text/css">
	.st0{fill:#F18835;}
	.st1{fill:#121026;}
</style>
<g id="_Слой_1-2">
	<g>
		<path class="st0" d="M113.7,47.3c-12.5-5.2-11.3-4.8-17.3-7.3c-12-4.8-16.2-6-19-6.5c-1.3-1.8-2.8-4.1-4.1-7
			c-1.5-3.2-2.2-6-2.7-8.3c0.4,0,0.7,0.1,1.2,0.1C83.6,19.5,95,22.1,105,28.7c2.6,3,5.6,7.4,7.5,13.4
			C113,43.9,113.4,45.7,113.7,47.3z"/>
		<path class="st1" d="M79.4,33.5c-5.3-1.1-5.2-0.5-13.8-1.6c0,0-20.2-1.9-31-10.4c-2.5-2-4-3.8-3.6-7.1c0.2-1.6-0.5-3.3-0.7-5.5
			c13.3,7.8,27.9,8,42.4,9.4c0.5,2.3,1.2,5.2,2.7,8.3C76.7,29.4,78.1,31.8,79.4,33.5z"/>
		<path class="st1" d="M138.3,51.1v1.3c-1.2,0.2-2.5,0.6-3.7,0.4c-10.2-2-20.8-5.5-20.8-5.5c-0.3-1.6-0.6-3.3-1.2-5.1
			c-1.8-6-5-10.4-7.5-13.4c9.9,6.6,20.1,13,30,19.7C136.2,49.2,137.2,50.2,138.3,51.1z"/>
		<path class="st1" d="M11.7,0C18,0,23.7,5.8,23.5,11.7c-0.2,6-5.6,11.3-11.7,11.4C5.5,23.3-0.1,17.5,0,11.3C0.1,5.3,5.6,0,11.7,0
			L11.7,0z"/>
		<path class="st0" d="M44.4,32.7c2.9,0.9,5.4,1.7,7.8,2.7c0.7,0.3,1.5,1.2,1.7,2c1.6,7.3,2.8,14.5,0.8,22
			c-1.7,6-5.4,10.2-12.3,12.1c5.9-10,3.1-20.5,2.1-30.6C44.2,38.3,44.4,35.7,44.4,32.7z"/>
		<path class="st0" d="M29,22.8c3.1,2.8,8.1,5.2,9,8.6c1.4,5.9,0.8,12.4-0.2,18.5c-1,5.9-6.1,9-11.8,8.9
			C31.9,47.2,31.2,35.3,29,22.8z"/>
		<path class="st0" d="M143.2,54.1c4.6,7,0.2,16-9.1,17.9C137.1,66,140,60.1,143.2,54.1z"/>
	</g>
</g>
</svg>
