<?xml version="1.0" encoding="utf-8"?>
<!-- Generator: Adobe Illustrator 26.4.1, SVG Export Plug-In . SVG Version: 6.00 Build 0)  -->
<svg version="1.1" id="_Слой_2" xmlns="http://www.w3.org/2000/svg" xmlns:xlink="http://www.w3.org/1999/xlink" x="0px"
	 y="0px" viewBox="0 0 130 123" style="enable-background:new 0 0 130 123;" xml:space="preserve">
<style type="text/css">
	.st0{fill:#F18835;}
	.st1{fill:#121026;}
</style>
<g id="_Слой_1-2">
	<g>
		<path class="st0" d="M74.3,38.7c-1.2,2.3-2.5,5.7-1.8,9.5c0.6,2.9,2.1,4.9,7.8,10.4c9.9,9.6,12.9,11.1,14.5,16
			c1.2,3.5,0.1,8.1,0,8.7c-0.5,3-1.4,5.2-1.9,6.6c-1.2,3.1-2.2,4.3-4,7.6c-1.1,1.9-2.5,4.8-4,8.5c-1.5-4.5-1.7-7.3-1.7-10.3
			c0-3.6,0-6.7,1.4-10.3c0.7-1.8,1.5-2.7,1.2-4.1c-0.5-2.3-3.8-4.6-5.7-6.1c-3-2.4-4.9-3.7-9.5-8.9c-3.6-4.1-6-8.9-5.8-14.6
			c0.1-1.9,0.6-3.3,0.9-4.1C67.7,42.1,72.6,39.5,74.3,38.7z"/>
		<path class="st1" d="M37.7,108.6c0-6.6,1.3-11.7,2.5-15c1.4-3.9,4.4-10.8,9.1-17.1C51.1,74,53.6,71,55,66c0.4-1.5,0.5-2.3,1.1-3.9
			c1.5-3.9,3.9-6.6,5.8-8.4l4.4,15.1c-4.3,8-9.8,16.8-16.7,25.8C45.6,99.8,41.6,104.6,37.7,108.6z"/>
		<path class="st0" d="M102.1,21.1c-5.7,0-10.6-4.8-10.6-10.5S96.2,0.1,102,0c5.5-0.1,10.9,5.3,10.8,11
			C112.8,16.4,107.9,21.1,102.1,21.1L102.1,21.1z"/>
		<path class="st1" d="M123.2,46.6c-4.3,7.4-11,10.1-18.9,7.2c-6.2-2.2-11.5-6-13.2-12.8c-0.7-2.7-0.2-5.8,0.3-8.7
			c0.5-2.8,1.3-5.7,3-8.8c1,3.2,2.4,6.2,3.1,9.6c1.4,6.7,5,11.8,11.7,13.4C113.4,47.5,118.4,46.6,123.2,46.6L123.2,46.6z"/>
		<path class="st0" d="M87,27.2c-5.8-4.2-11.7-8.9-19.5-5.9C60.4,24,56,29.8,50.8,35.7c3.9-10.5,9.8-18.3,18.9-23.7
			c4-2.3,10.3-1.1,14.5,2.6C88,17.8,89.1,22,87,27.2z"/>
	</g>
</g>
<path class="st0" d="M103.4,101.4c7-20.5,8.2-28.3,15.2-44c8.8-21.7,11.5-26.9,11.5-26.9c-3,9.2-6.3,18.6-9.8,28.2
	C114.7,73.6,109.1,87.8,103.4,101.4z"/>
<path class="st1" d="M0,71.3c17.6-12.2,23.2-17.8,38-26.2C57.8,33,63,30.4,63,30.4c-4.5,3.3-9.2,6.6-13.9,9.9
	C32.4,51.8,16,62.1,0,71.3z"/>
<path class="st1" d="M114,107.5c-1.7-0.3-3.4,0.4-4.5,1.7l-45.2-6.3c0.1-2.6-1.7-5-4.3-5.3c-2.8-0.4-5.3,1.5-5.7,4.3
	s1.5,5.4,4.3,5.8c2.5,0.4,4.7-1.2,5.5-3.5c14.3,4.5,26.6,10.6,44.2,8.1c-0.1,2.6,1.7,4.9,4.3,5.3c2.8,0.4,5.3-1.5,5.7-4.3
	C118.7,110.5,116.8,107.9,114,107.5z"/>
<path class="st0" d="M63,113c-1.7-0.5-3.4,0-4.7,1.1l-44.1-12c0.5-2.6-1.1-5.1-3.6-5.8c-2.7-0.7-5.4,0.8-6.2,3.6
	c-0.7,2.7,0.8,5.5,3.5,6.3c2.4,0.7,4.8-0.5,5.9-2.7c13.6,6.3,25,13.9,42.9,13.7c-0.5,2.6,1.1,5.1,3.6,5.8c2.7,0.7,5.4-0.8,6.2-3.6
	C67.2,116.5,65.6,113.7,63,113z"/>
</svg>
