<?xml version="1.0" encoding="utf-8"?>
<!-- Generator: Adobe Illustrator 26.4.1, SVG Export Plug-In . SVG Version: 6.00 Build 0)  -->
<svg version="1.1" id="_Слой_2" xmlns="http://www.w3.org/2000/svg" xmlns:xlink="http://www.w3.org/1999/xlink" x="0px"
	 y="0px" viewBox="0 0 130 123" style="enable-background:new 0 0 130 123;" xml:space="preserve">
<style type="text/css">
	.st0{fill:#F18835;}
	.st1{fill:#121026;}
</style>
<g id="_Слой_1-2">
	<g>
		<path class="st0" d="M74.3,41.7c-1.2,2.3-2.5,5.7-1.8,9.5c0.6,2.9,2.1,4.9,7.8,10.4c9.9,9.6,12.9,11.1,14.5,16
			c1.2,3.5,0.1,8.1,0,8.7c-0.5,3-1.4,5.2-1.9,6.6c-1.2,3.1-2.2,4.3-4,7.6c-1.1,1.9-2.5,4.8-4,8.5c-1.4-4.3-1.7-7.9-1.7-10.3
			c0-3.6,0-6.7,1.4-10.3c0.7-1.8,1.5-2.7,1.2-4.1c-0.5-2.3-3.8-4.6-5.7-6.1c-3-2.4-4.9-3.7-9.5-8.9c-3.6-4.1-6-8.9-5.8-14.6
			c0.1-1.9,0.6-3.3,0.9-4.1C67.7,45.1,72.6,42.5,74.3,41.7z"/>
		<path class="st1" d="M37.7,108.6c0-6.6,1.3-11.7,2.5-15c1.4-3.9,4.4-10.8,9.1-17.1c1.8-2.5,4.3-5.5,5.7-10.5
			c0.4-1.5,0.5-2.3,1.1-3.9c1.5-3.9,3.9-6.6,5.8-8.4l4.4,15.1c-4.3,8-9.8,16.8-16.7,25.8C45.6,99.8,41.6,104.6,37.7,108.6z"/>
		<path class="st0" d="M102.1,21.1c-5.7,0-10.6-4.8-10.6-10.5C91.5,4.9,96.2,0.1,102,0c5.5-0.1,10.9,5.3,10.8,11
			C112.8,16.4,107.9,21.1,102.1,21.1L102.1,21.1z"/>
		<path class="st1" d="M123.2,46.6c-4.3,7.4-11,10.1-18.9,7.2c-6.2-2.2-11.5-6-13.2-12.8c-0.7-2.7-0.2-5.8,0.3-8.7
			c0.5-2.8,1.3-5.7,3-8.8c1,3.2,2.4,6.2,3.1,9.6c1.4,6.7,5,11.8,11.7,13.4C113.4,47.5,118.4,46.6,123.2,46.6L123.2,46.6z"/>
		<path class="st0" d="M87,27.2c-5.8-4.2-11.7-8.9-19.5-5.9C60.4,24,56,29.8,50.8,35.7c3.9-10.5,9.8-18.3,18.9-23.7
			c4-2.3,10.3-1.1,14.5,2.6C88,17.8,89.1,22,87,27.2z"/>
	</g>
</g>
<path class="st0" d="M103.4,101.4c7-20.5,8.2-28.3,15.2-44c8.8-21.7,11.5-26.9,11.5-26.9c-3,9.2-6.3,18.6-9.8,28.2
	C114.7,73.6,109.1,87.8,103.4,101.4z"/>
<path class="st1" d="M59.9,103c18.2,5.1,32.2,14.1,56.1,7.8c0.3-0.1,0.3-0.6,0-0.6L60,102.3C59.6,102.3,59.5,102.9,59.9,103z"/>
<path class="st1" d="M0,71.3c17.6-12.2,23.2-17.8,38-26.2C57.8,33,63,30.4,63,30.4c-4.5,3.3-9.2,6.6-13.9,9.9
	C32.4,51.8,16,62.1,0,71.3z"/>
<path class="st1" d="M118.3,113.3c-0.4,2.8-2.9,4.7-5.7,4.3s-4.7-3-4.3-5.8c0.4-2.8,2.9-4.7,5.7-4.3S118.7,110.5,118.3,113.3z"/>
<path class="st1" d="M64.3,103.4c-0.4,2.8-2.9,4.7-5.7,4.3c-2.8-0.4-4.7-3-4.3-5.8c0.4-2.8,2.9-4.7,5.7-4.3
	C62.8,98,64.7,100.6,64.3,103.4z"/>
<path class="st0" d="M9.8,101.5c17.5,7.4,30.2,18.1,54.7,14.9c0.4,0,0.4-0.6,0-0.6L10,100.9C9.6,100.8,9.4,101.4,9.8,101.5z"/>
<path class="st0" d="M66.5,119.2c-0.7,2.7-3.5,4.3-6.2,3.6c-2.7-0.7-4.3-3.6-3.5-6.3c0.7-2.7,3.5-4.3,6.2-3.6
	C65.6,113.7,67.2,116.5,66.5,119.2z"/>
<path class="st0" d="M14.1,102.5c-0.7,2.7-3.5,4.3-6.2,3.6s-4.3-3.6-3.5-6.3s3.5-4.3,6.2-3.6S14.9,99.8,14.1,102.5z"/>
</svg>
