
<?xml version="1.0" encoding="utf-8"?>
<svg version="1.1" xmlns="http://www.w3.org/2000/svg" viewBox="0 0 87 109">
		<path d="M37.2,41.8c-1.2,2.3-2.5,5.7-1.8,9.5c0.6,2.9,2.1,4.9,7.9,10.4c10.1,9.6,13.1,11.1,14.8,16.1c0.5,1.5,1.6,5.1,0,8.7c-0.7,1.5-1.7,2.7-5.7,5.2c-5.2,3.3-10.1,6.4-17.7,7.7c-2,0.3-4.9,0.7-8.5,0.5c7.1-5.2,12.7-9.3,16.6-11.8c0.9-0.6,2.9-1.8,3-3.8c0.1-1.1-0.8-2.3-2.4-4.1c-3.3-3.6-6.8-7-10.1-10.7c-3.7-4.1-6.1-8.9-5.9-14.6c0.1-1.9,0.6-3.3,0.9-4.1C30.5,45.2,35.5,42.6,37.2,41.8zM0,109c0-6.6,1.3-11.7,2.5-15c1.4-3.9,4.5-10.8,9.3-17.2c1.8-2.5,4.4-5.5,5.8-10.5c0.4-1.5,0.5-2.3,1.1-3.9c1.5-3.9,4-6.6,5.9-8.4l4.5,15.1C24.7,77.1,19.1,86,12.1,95C8,100.1,3.9,104.9,0,109zM65.5,21.2c-5.8,0-10.8-4.8-10.8-10.5C54.8,4.9,59.5,0.1,65.4,0C71-0.1,76.5,5.3,76.4,11C76.4,16.5,71.4,21.2,65.5,21.2C65.5,21.2,65.5,21.2,65.5,21.2zM87,46.8c-4.4,7.4-11.2,10.1-19.2,7.2c-6.3-2.2-11.7-6-13.4-12.8c-0.7-2.7-0.2-5.8,0.3-8.7c0.5-2.8,1.3-5.7,3.1-8.8c1,3.2,2.4,6.2,3.2,9.6c1.4,6.7,5.1,11.8,11.9,13.4C77,47.7,82.1,46.8,87,46.8L87,46.8zM50.2,27.3c-5.9-4.2-11.9-8.9-19.9-5.9c-7.2,2.7-11.7,8.5-17,14.4c4-10.5,10-18.4,19.2-23.8c4.1-2.3,10.5-1.1,14.8,2.6C51.2,17.9,52.3,22.1,50.2,27.3z"/>
	</g>
</g>
</svg>
