<?xml version="1.0" encoding="utf-8"?>
<svg version="1.1" xmlns="http://www.w3.org/2000/svg" viewBox="0 0 120 123">
	<path d="M33.5,40.7c0.6,5.1,0,9.7,1.8,13c2.9,5.5,7.4,10.3,11.3,15.3c5.8,7.3,12.5,13.9,17.5,21.8c6.9,10.8,2,25.5-9.8,32.1c0.3-1.3,0.4-2.5,0.9-3.5c4-9.9,1-18.5-5.6-26.2c-5.5-6.4-11.3-12.4-16.4-19.2c-5.3-6.9-8.3-14.7-4.8-23.5C29.5,47.3,31.5,44.4,33.5,40.7zM3,120.6c4.9-8.5,9.5-16.6,14.2-24.7c4.7-8.2,6.9-16.9,5.9-26.3c5.3,2.5,9.7,10.4,8.7,17.5C29.5,101.7,22,113,8,119.3C6.5,120.3,4.9,120.3,3,120.6zM29.8,39.6c-6.7,4-13.6,7.3-22,4.6C1,42-1.9,36.5,1.3,29.8c1.7-3.5,4.5-7,7.7-9.4c5.6-4.1,12.4-5.3,19.7-4.2c-3.2,2-6.6,3.7-9.5,6c-3.3,2.6-6.7,5.4-9.3,8.6c-2.8,3.5-1.7,6,2.7,6.7C18.3,38.6,23.9,39,29.8,39.6C29.8,39.6,29.8,39.6,29.8,39.6zM41.3,20c-5.4-0.1-9.9-4.6-9.9-10S36-0.1,41.7,0c5.6,0.1,9.9,4.5,9.9,9.9S46.9,20.1,41.3,20L41.3,20zM76.3,34.8c-2,11.2-10,19.2-19,18.8c-8.2-0.4-16-6.9-16.5-13.9c6,2.8,12.1,7.3,18.7,5.2C65.4,42.7,70.6,38.2,76.3,34.8L76.3,34.8zM47.3,31.7c0-1.7,0-3.3,0.1-5c12.4,0,24.9,0,37.3,0.1c0.1-0.4,0.3-0.9,0.4-1.3c11.6-0.1,23.2-0.2,34.8-0.3c-0.2,1.1-0.3,2.2-0.5,3.3c-10.7,0-21.3,0.1-32,0.1c-0.3,1.2-0.7,2.3-1,3.5C73.6,31.9,60.4,31.8,47.3,31.7zM45,25.4c1.5,6.3,0.9,7.1-4.8,7.8c-4.4,0.5-8.8,0.9-13.2,1.5c-4.8,0.7-5.3-3.6-8-6.5C27.6,27.2,36.3,26.3,45,25.4zM81.4,21H52.2v-1.6h29.1V21zM58.2,24.5h-1.1v-2.2h1.1V24.5zM75.2,24.5h-0.9v-2.2h0.9V24.5zM50.8,34h-1.5c0.1,0.3,1.8,4.1,5.8,4.8c3.4,0.6,7.1-1.3,8.8-4.7h-1.8c-1.2,2.1-3.5,3.3-5.9,3.3C52.7,37.2,50.9,34.2,50.8,34z"/>
</svg>
