<?xml version="1.0" encoding="utf-8"?>
<svg version="1.1" xmlns="http://www.w3.org/2000/svg" viewBox="0 0 126 108">
		<path d="M61.2,90.3c0.4-0.2-1-4.9-4.1-9.6C54.8,77,52,74.5,46.6,69.6c-3.4-3.2-4.8-4.1-7.3-6.9C35.8,59,35,58,35,58c-0.4-0.5-1.4-1.6-3-3.2c-0.1-0.1-0.6-0.6-1.2-1.2c-1.3-1.3-3.1-2.8-5.1-4.4C13.6,39.9,0.2,37.5,0,37.9c-0.1,0.2,4.9,1.5,12.3,5.8c1.8,1.1,5.9,3.6,10.6,7.3c2.3,1.8,3.8,3.3,6.2,5.5c5,4.7,5.7,6,11.1,11.2c1.1,1.1,2.6,2.4,5.5,5.2c6.8,6.4,7.1,6.4,8.6,8C59.1,86,60.9,90.5,61.2,90.3zM78.1,32.9c-0.4-1.5-1.7-5.3-4.5-9.6c-2.6-3.9-5.9-7.4-9.9-10.3c-4.6-3.3-11.8-2.9-16.1,1.1c-3.7,3.4-6.2,6.9-3,12.2c1.1-0.9,8-6.7,16.3-4.9c5,1,8.3,4.3,10.2,6.1c3.6,3.5,5.4,7.2,6.3,9.5h1.7C78.9,36,78.6,34.6,78.1,32.9zM26.2,50.5c0,0,3.4-0.6,6.3-2.2c3.6-2,10.7-7.4,9.2-14.7c-0.7-3.6-1.9-7.3-2.8-10.9c-0.1,2.3-0.8,7.8-4.8,12.7c-4,4.7-11.3,10.3-17.7,7.5c-1.5-0.7-3.1-0.9-4.6-1.4c-0.3,0.5-0.6,0.9-0.8,1.5c1.2,1.6,4.2,5,9.1,6.7C22.5,50.3,24.6,50.5,26.2,50.5zM84.9,96.2c0.8,1.1,1.7,2.1,2.6,3.2c1.3,0.2,2.6,0.5,4,0.7c-0.1-0.8-0.4-2.1-0.7-3.6c-1.5-6.5-3.7-10.8-10.9-24.3c-1.5-2.8-4.2-6.1-5.9-11.1c-1.3-3.8-3.9-7.2-6-11.2c-1.1,4.3-2.2,8.6-3.4,12.9C69.6,73.9,76.2,85.3,84.9,96.2zM63.4,91.9c-5.4-4.3-10.9-8.6-16.3-12.8c5.3-4.9,9.1-9.4,11.6-12.7c6-7.9,6.4-11,6.5-12.3c0.2-3.9-1.6-7.9-5.2-12.6C59,42,58,42.4,56.9,42.8c0.8,4,0.2,6.8-0.5,8.5c-2,4.8-5.9,5.3-14.4,13.4c-2.4,2.3-3.9,4-5.2,6.4c-1.5,2.8-3.1,5.9-2.1,9.3c0.8,2.7,2.9,5,6.5,6.7c3.2,1.5,4.8,2.3,9.2,4.1c2.4,1,5.9,2.5,10.1,4.7c1.7-0.5,3.4-1.1,5.1-1.6C64.7,93.4,64,92.6,63.4,91.9zM31.2,21.4c-6.2,0-11-4.8-10.9-10.9C20.4,4.5,25.2,0,31.5,0s10.7,4.7,10.7,10.6C42.2,16.5,37.2,21.4,31.2,21.4zM122.1,28c-0.2-0.6-9.4,4.1-23,5.8c-2.3,0.3-7.9,0.9-14.5,1.3c-2.8,0.3-5.2,0.3-6.8,0.4c-2.1,0.2-5.1,0.7-8.7,1.7c-15.6,4.3-26.2,14.2-25.9,14.6C43.3,52,47.6,48.5,56,45c5-2.1,9.5-3.3,13-4.2c3.9-1,6.4-1.7,9.9-2.2c5.6-0.8,7.3-0.4,14.1-1.1c0.4-0.1,4.9-0.6,8.9-1.4C113,33.9,122.3,28.6,122.1,28zM126,103.7c0-0.3-4.2,0.7-10.4,0.7c-10.6-0.2-20.1-3.6-27.2-4.9c-2.3-0.4-3.2-0.6-3.2-0.6c-2.9-0.5-3.6-0.6-6-1.1c-3.5-0.7-5-1.1-7.9-1.5c-1.5-0.2-3.2-0.3-6.5-0.5c-5.3-0.3-9.4-0.3-11-0.3c-5.2,0-9.3,0-14.5,0.5c-6.8,0.6-13.2,1.8-13.1,2.2c0,0.2,1.4,0.1,13.3-0.4c4.6-0.2,5-0.2,5.6-0.2c2.4,0,7.1,0,13.1,0.3c3.5,0.2,5.8,0.4,10.5,1c5,0.6,9.3,1.2,12.6,1.8l0,0c4.3,1,7.6,1.3,8.6,1.5c6.5,0.8,15.3,3.8,23.1,3.9C120.3,106.3,126,104.1,126,103.7L126,103.7zM115.7,88.1c0-0.2-5.2-0.7-11.1-0.6C99,87.7,92,89,78,91.8c-5.7,1.1-5.9,1.2-9.2,1.8c-3.5,0.6-5.1,0.8-7.9,1.5c-1.4,0.4-3.1,0.8-6.2,1.9c-4.7,1.6-7.3,2.8-10.3,3.9c-7.2,2.8-10.9,4.2-15.9,5.1c-6.5,1.2-10.8,0.8-10.8,1.2c0,0.4,5.3,1.3,11.3,0.7c3.3-0.3,5.6-1,8.3-1.8c5.3-1.5,6.3-2.5,12.3-4.6c3.3-1.1,5.5-1.7,10.1-3c4.8-1.3,9.1-2.2,12.4-3c4.4-0.7,7.5-1.5,8.5-1.8c9.2-2.4,15.7-4.2,22.9-5C110.5,87.9,115.7,88.3,115.7,88.1z"/>
	</g>
</g>
</svg>
