<?xml version="1.0" encoding="utf-8"?>
<!-- Generator: Adobe Illustrator 26.4.1, SVG Export Plug-In . SVG Version: 6.00 Build 0)  -->
<svg version="1.1" id="Слой_1" xmlns="http://www.w3.org/2000/svg" xmlns:xlink="http://www.w3.org/1999/xlink" x="0px" y="0px"
	 viewBox="0 0 90 54" style="enable-background:new 0 0 90 54;" xml:space="preserve">
<style type="text/css">
	.st0{display:none;}
	.st1{fill:#F18835;}
	.st2{fill:#121026;}
</style>

<path class="st1" d="M73.5,35.9c-6.4-2-13.4-1.6-19.7,0.6c-8.3,2.8-12.2,6.4-17.9,7.7C23,47.2,10.6,41,0,33.6C6.9,45.5,18.5,53.9,31.4,54c13.5,0.1,23.9-11,37.2-11.7c7.5-0.4,14.7,2.5,21.3,6.1C85.9,42.4,80,37.9,73.5,35.9zM47.4,21.9c-3.1-6.5-6.1-13.5-14.6-14.7c-7.6-1.1-14.3,1.9-21.7,4.6C19.7,4.5,28.7,0.4,39.3,0C44-0.1,49,4.1,51,9.4C52.8,14.1,51.7,18.4,47.4,21.9zM75.1,24c-4.5,0-8.4-3.8-8.4-8.4C66.7,11,70.4,7.1,75,7c4.4-0.1,8.7,4.2,8.6,8.8C83.6,20.3,79.7,24,75.1,24L75.1,24zM13.8,29.9c1.4-0.4,3.6-1.1,6.2-2.1c4.5-1.7,5.6-2.5,9.7-4c4.4-1.6,6.6-2.4,8.7-2.4c4.9,0.2,5.3,3.1,9.5,3.2c5.5,0.1,7.4-4.8,12-3.8c2.5,0.6,5,2.8,4.8,4.6c-0.2,1.7-2.6,2.4-12.2,5.9c-10.3,3.7-11,4.1-13.8,4.6c-3.4,0.6-7.5,1.3-12.6,0.1C20.2,34.8,16,31.8,13.8,29.9z"/>
</svg>
