<?xml version="1.0" encoding="UTF-8"?>
<svg id="_Слой_2" data-name="Слой 2" xmlns="http://www.w3.org/2000/svg" viewBox="0 0 170 43.94">
  <defs>
    <style>
      .cls-1 {
        fill: #121026;
      }

      .cls-2 {
        fill: #f18835;
      }
    </style>
  </defs>
  <g id="_Слой_1-2" data-name="Слой 1">
    <g>
      <path class="cls-2" d="M44,5.5c8.2-1.9,19.9-3.3,32.3,.8,13.5,4.4,18.9,11.1,34,21,10.1,6.6,20.6,11.9,33.2,12.2-3.3,1.8-9.9,4.8-18.3,4.4-1.6-.1-6.7-.5-15.6-4.7-7.8-3.7-10.2-6.5-18.6-12.4-6.1-4.3-17.7-12.2-33-17.5-5.7-2-10.7-3.1-14-3.8Z"/>
      <path class="cls-1" d="M100.9,40.9c-13.8,2.6-26.3-.8-38-7.6-10.7-6.3-21.5-12.5-32.4-18.5-2.9-1.6-6-3-9-3.9-3.2-.9-6.4-1.3-10.2-2,5.7-3.1,11.5-4.1,17.6-3.1,9.7,1.6,18.5,5.4,26.9,10.3,14.7,8.6,28.5,19,45.1,24.8Z"/>
      <path class="cls-1" d="M62.9,37.6c-9.5,4.4-18.8,4.2-28.2,.3-8.3-3.5-16.5-7-24.9-10.1-2.9-1.1-6.4-1-9.8-1.5,2.3-4.3,6.6-5.9,11-6.4,4.3-.4,9.2-.6,13.2,.9,13,5.1,25.6,11,38.7,16.8h0Z"/>
      <path class="cls-1" d="M120.3,27.8c5.8-4.8,12.4-6.5,19.8-4.4,6,1.7,11.7,3.8,17.8,5.3,3.9,1,8.1,1.1,12.1,1.7-1.6,5.3-9,9.2-16.4,7.4-7-1.8-13.8-4.3-20.7-6.4-4-1.3-8.2-2.3-12.6-3.6Z"/>
      <path class="cls-2" d="M111.2,21.5c-6.4,0-11.3-4.5-11.4-10.6C99.7,4.9,104.6,.1,110.9,0c6.5-.1,11.3,4.4,11.3,10.6s-4.7,10.8-11,10.9h0Z"/>
    </g>
  </g>
</svg>