<?xml version="1.0" encoding="utf-8"?>
<!-- Generator: Adobe Illustrator 26.4.1, SVG Export Plug-In . SVG Version: 6.00 Build 0)  -->
<svg version="1.1" id="Слой_1" xmlns="http://www.w3.org/2000/svg" xmlns:xlink="http://www.w3.org/1999/xlink" x="0px" y="0px"
	 viewBox="0 0 84 54" style="enable-background:new 0 0 84 54;" xml:space="preserve">
<style type="text/css">
	.st0{display:none;}
	.st1{fill:#F18835;}
	.st2{fill:#121026;}
</style>

<path class="st1" d="M68.6,35.9c-6-2-12.5-1.6-18.4,0.6c-7.7,2.8-11.4,6.4-16.7,7.7C21.4,47.2,9.9,41,0,33.6C6.4,45.5,17.2,53.9,29.3,54c12.6,0.1,22.3-11,34.7-11.7c7-0.4,13.7,2.5,19.9,6.1C80.2,42.4,74.7,37.9,68.6,35.9zM41.3,21.9c-3.2-6.5-6.2-13.5-14.6-14.7C19,6.2,12.3,9.1,4.8,11.8C13.4,4.5,22.4,0.4,33.1,0c4.7-0.1,9.7,4.1,11.7,9.4C46.6,14.1,45.6,18.4,41.3,21.9zM69,24c-4.5,0-8.5-3.8-8.5-8.4C60.7,11,64.3,7.1,69,7c4.4-0.1,8.7,4.2,8.6,8.8C77.6,20.3,73.7,24,69,24L69,24zM7.5,29.9c1.4-0.4,3.6-1.1,6.2-2.1c4.5-1.7,5.7-2.5,9.7-4c4.4-1.6,6.6-2.4,8.7-2.4c4.9,0.2,5.3,3.1,9.6,3.2c5.6,0.1,7.5-4.8,12.1-3.8c2.5,0.6,5,2.8,4.9,4.6c-0.2,1.7-2.6,2.4-12.2,5.9c-10.3,3.7-11.1,4.1-13.9,4.6c-3.4,0.6-7.5,1.3-12.7,0.1C13.9,34.8,9.7,31.8,7.5,29.9z"/>
</svg>
