<?xml version="1.0" encoding="utf-8"?>
<svg version="1.1"xmlns="http://www.w3.org/2000/svg" viewBox="0 0 93 106">
	<path d="M55.7,82.3c-1.7,5-4.9,12.5-11.2,20.6c0.3-1.9,0.9-5.7,1.6-10.6c1.1-7.2,2.1-14,2.4-15.5c0.8-5.5,1.9-14.4,1.9-24.3c0-7.2-4.2-12.1-11.4-14c-7.5-2-15-3.7-22.5-6.1c-3.6-1.1-7.1-3.1-10.3-5.1c-1.4-0.8-7-6.1-6-12c0.1-0.6,0.6-3.5,3.1-5.1C3.4,10,6.4,8.2,9.5,9.7c0.3,0.2,2.7,1.4,3.2,4.2c0.4,2.5-1.1,4.4-1.6,5c-0.6,0.7-1.4,1.7-2.6,1.9c-1.4,0.3-3.3-0.4-3.3-0.4l0,0c1.5,1.5,4.1,3.6,7.8,5c1.6,0.6,3.2,0.9,5.2,1.2c7.3,0.9,15.5-0.4,19.3-1.1c4.8,3.9,10.5,9.9,15,18.2c2.6,4.8,6.2,11.4,6.5,20.7C59.3,71.9,57.4,77.2,55.7,82.3zM92,0.3c-4.4,8.3-8.1,15.8-12.5,23c-5.1,8.1-6.3,16.9-6.8,25.9c-2.3-3.9-6.1-9.4-12-14.7c-5.5-4.9-11-8-14.9-9.9c10.2-2.8,22.9-7.7,35.7-16.3C85.3,5.7,88.9,3,92,0.3zM72.7,49.2c-0.3,7.1-1.6,12.9-2.8,17.3c-1,3.3-4.5,15-14.1,27.3c-4.3,5.5-8.6,9.6-11.8,12.2c0.1-0.8,0.3-1.9,0.5-3.2c6.2-8.1,9.5-15.5,11.2-20.6c1.8-5.1,3.6-10.4,3.3-17.5c-0.4-15.2-9.8-25.5-12.2-28c-5.2-5.4-10.7-8.6-14.4-10.3c4.5-0.6,8.9-1.2,13.4-1.8c4,1.8,9.4,4.9,14.9,9.9C66.6,39.8,70.4,45.2,72.7,49.2zM60,10.4c-0.1,5.1-5.2,9.9-10.8,9.9S38.6,15.4,38.8,9.7c0.1-5.3,5-9.8,10.8-9.7C55.1,0.2,60.1,5.2,60,10.4zM78.4,61.5c11,9.7,18.5,27.7,12.5,42.8c-2.7-10.8-7.5-19.8-15.4-27.1c-0.6-0.5-0.8-1.8-0.6-2.5C75.9,70.3,77.1,66,78.4,61.5z"/>
</svg>
